<svg width="221" height="14" viewBox="0 0 221 14" xmlns="http://www.w3.org/2000/svg">
  <path fill="#140D00" fill-rule="evenodd" d="M5.89908665,5.35613409 C6.78754483,5.35613409 7.38822686,5.54028216 7.70275402,5.90857832 C8.01647055,6.27609418 8.03106201,6.81683409 7.74652842,7.53001774 C7.45875228,8.25256486 7.03722103,8.79798649 6.48193467,9.16550236 C5.92664831,9.53379851 5.2497664,9.71794659 4.45209957,9.71794659 C4.03867469,9.71794659 3.7760283,9.6563038 3.66334975,9.53301822 C3.55148184,9.40895236 3.5571563,9.19203216 3.68118377,8.88147736 L5.08682836,5.35613409 L5.89908665,5.35613409 Z M6.2768435,2.3730913 L6.42113689,2.00947688 C6.62541742,1.49760764 6.82240222,1.17924995 7.01209128,1.05596438 C7.20096971,0.932678798 7.51468623,0.87103601 7.95161959,0.87103601 C8.59283347,0.87103601 9.03625192,1.03879803 9.28187493,1.37510236 C9.52830859,1.71140668 9.53803623,2.16241341 9.3118685,2.72968313 C9.04922211,3.38824659 8.6285015,3.86578313 8.04889603,4.16307303 C7.4701012,4.46036293 6.6578429,4.60861774 5.61293178,4.60861774 L5.38514278,4.60861774 L6.2768435,2.3730913 Z M5.19383245,10.4654629 C6.47139639,10.4654629 7.56413509,10.227475 8.47042728,9.75227928 C9.3775301,9.27630332 9.99766742,8.62086101 10.3316499,7.78361149 C10.5959175,7.12114659 10.5618708,6.55933889 10.2295096,6.10052928 C9.89795907,5.64093938 9.25836646,5.26952207 8.31235306,4.98549707 C9.25998773,4.78964466 10.0325248,4.49781678 10.6307749,4.11157399 C11.2290251,3.7253312 11.6416393,3.24857495 11.867807,2.68130524 C12.1977363,1.85419947 12.0161536,1.22216582 11.3238696,0.785204279 C10.6307749,0.349023029 9.46021508,0.13054226 7.81219002,0.13054226 L7.37039284,0.13054226 L4.08325973,0.22651774 L3.9819301,0.48011149 C4.20809783,0.544095144 4.34266358,0.650214375 4.38562734,0.799249471 C4.4285911,0.947504279 4.38400606,1.18627255 4.25268287,1.51555428 L1.20387704,9.1623812 C1.07255384,9.49166293 0.92582854,9.7304312 0.764511773,9.87868601 C0.603195006,10.0277211 0.383512374,10.1338403 0.106274513,10.197824 L8.10637021e-05,10.4654629 L5.19383245,10.4654629 Z M18.4428839,4.27933601 C18.4534222,4.72332014 18.2029353,5.58709947 17.6906127,6.87145428 C17.1799114,8.15190764 16.7405461,9.01724755 16.3733276,9.46747399 C16.006109,9.91770043 15.5853884,10.1432038 15.1103551,10.1432038 C14.6499133,10.1432038 14.4172605,9.9130187 14.4123966,9.4534288 C14.4083434,8.99461918 14.6580196,8.13396101 15.1606146,6.87145428 C15.6623989,5.61440957 16.097711,4.75687255 16.4681721,4.29962351 C16.8378226,3.84315476 17.2536794,3.61453024 17.7141212,3.61453024 C18.1891545,3.61453024 18.431535,3.83613216 18.4428839,4.27933601 L18.4428839,4.27933601 Z M12.7246504,8.44217495 C12.7384312,8.94546101 12.8665118,9.39100572 13.1105136,9.77958938 C13.3026345,10.0721975 13.5474469,10.2930192 13.8441401,10.441274 C14.1416439,10.5895288 14.494271,10.6644365 14.902832,10.6644365 C15.3065293,10.6644365 15.7191435,10.5895288 16.142296,10.441274 C16.5646379,10.2930192 16.991033,10.0721975 17.4214812,9.77958938 C17.9686612,9.39568745 18.4509903,8.95170332 18.8676577,8.44919755 C19.2843251,7.94591149 19.6020948,7.42077736 19.8209668,6.87145428 C20.2619534,5.76500524 20.3122129,4.85674947 19.9709347,4.14590668 C19.6296565,3.43506389 18.9843894,3.07925236 18.0343228,3.07925236 C17.0607478,3.07925236 16.0896046,3.44364707 15.1225147,4.17321678 C14.1546141,4.90278649 13.4607088,5.79309563 13.0416094,6.84414418 C12.817063,7.40673216 12.7116802,7.93966918 12.7246504,8.44217495 L12.7246504,8.44217495 Z M27.5041845,4.27933601 C27.5147228,4.72332014 27.2642359,5.58709947 26.7519133,6.87145428 C26.241212,8.15190764 25.8018467,9.01724755 25.4346282,9.46747399 C25.0674096,9.91770043 24.646689,10.1432038 24.1716557,10.1432038 C23.7112139,10.1432038 23.4785611,9.9130187 23.4736972,9.4534288 C23.469644,8.99461918 23.7193202,8.13396101 24.2219152,6.87145428 C24.7236995,5.61440957 25.1590116,4.75687255 25.5294727,4.29962351 C25.8991232,3.84315476 26.3141693,3.61453024 26.7754218,3.61453024 C27.2504551,3.61453024 27.4928356,3.83613216 27.5041845,4.27933601 L27.5041845,4.27933601 Z M21.785951,8.44217495 C21.7997318,8.94546101 21.9278124,9.39100572 22.1718142,9.77958938 C22.3639352,10.0721975 22.6087475,10.2930192 22.9054407,10.441274 C23.2029445,10.5895288 23.5555716,10.6644365 23.9641326,10.6644365 C24.3678299,10.6644365 24.7804441,10.5895288 25.2035966,10.441274 C25.6259385,10.2930192 26.0523336,10.0721975 26.4827818,9.77958938 C27.0299618,9.39568745 27.5114802,8.95170332 27.9289583,8.44919755 C28.3456257,7.94591149 28.6633954,7.42077736 28.8814568,6.87145428 C29.323254,5.76500524 29.3727028,4.85674947 29.0322353,4.14590668 C28.6909571,3.43506389 28.04569,3.07925236 27.0956234,3.07925236 C26.1220484,3.07925236 25.1509052,3.44364707 24.1838153,4.17321678 C23.2159147,4.90278649 22.5220094,5.79309563 22.10291,6.84414418 C21.8783636,7.40673216 21.7729808,7.93966918 21.785951,8.44217495 L21.785951,8.44217495 Z M32.5982275,10.4654629 L32.7052316,10.197824 C32.5309446,10.1705139 32.4361001,10.0893639 32.420698,9.95437399 C32.4061065,9.81938409 32.5050043,9.48464034 32.7182018,8.94936245 L33.1835074,7.78361149 L34.1368166,7.03609514 L34.3573098,8.94936245 C34.3840609,9.19203216 34.3978417,9.39334659 34.3978417,9.55330572 C34.3978417,9.71326486 34.3840609,9.82952784 34.3548779,9.90287495 C34.3232631,9.9809038 34.2713823,10.0433269 34.1976144,10.0917048 C34.1238464,10.1393024 34.0298125,10.1751956 33.9163233,10.197824 L33.8093192,10.4654629 L36.887308,10.4654629 L36.9943121,10.197824 C36.849208,10.1197951 36.7381508,10.0128956 36.659519,9.87556486 C36.5816978,9.73823409 36.5200894,9.52365476 36.4746937,9.23104659 L35.9712882,5.70570332 L37.8317001,4.32771389 C38.2832249,3.99375043 38.6042372,3.77917111 38.7947369,3.68241534 C38.984426,3.58643986 39.1579023,3.53884226 39.3151659,3.53884226 L39.3865019,3.53884226 L39.4926954,3.27120332 L36.7786826,3.27120332 L36.6716785,3.53884226 C36.7875996,3.55678889 36.8686633,3.60984851 36.9148696,3.69646053 C36.961076,3.78307255 36.958644,3.89075236 36.9075739,4.01871966 C36.8565038,4.14668697 36.7276125,4.30898697 36.5209001,4.50561966 C36.3141876,4.70225236 35.9510222,4.99954226 35.4322145,5.39748938 L33.5693707,6.81683409 L36.2874366,0.000234086539 L35.938052,0.000234086539 C35.5643484,0.306107163 35.1590299,0.56126149 34.7212859,0.764916779 C34.2843525,0.968572067 33.8239107,1.1152663 33.340771,1.20734034 L33.2232287,1.50228938 C33.4307517,1.56627303 33.5450516,1.68175572 33.5661281,1.84795716 C33.5872047,2.01493889 33.4996559,2.3457812 33.3026711,2.83892351 L30.8658962,8.94936245 C30.6526987,9.48464034 30.4848968,9.81938409 30.36168,9.95437399 C30.2392738,10.0893639 30.0820102,10.1705139 29.8906999,10.197824 L29.7845064,10.4654629 L32.5982275,10.4654629 Z M44.6102469,1.8791687 C44.9231528,1.65990764 45.1395928,1.3992913 45.2603778,1.09731966 C45.3827839,0.791446587 45.3754882,0.531610529 45.2393012,0.318591779 C45.1031142,0.106353317 44.8737039,0.000234086539 44.5510704,0.000234086539 C44.2373538,0.000234086539 43.9260692,0.107133606 43.6172165,0.322493221 C43.3083638,0.537072548 43.093545,0.795348029 42.9735707,1.09731966 C42.8544071,1.39460957 42.8641347,1.65366534 43.0011324,1.87604755 C43.13813,2.09764947 43.3610552,2.20845043 43.6699079,2.20845043 C43.9836245,2.20845043 44.2965303,2.09842976 44.6102469,1.8791687 L44.6102469,1.8791687 Z M43.9439032,2.82565861 C43.5701996,3.13153168 43.1624492,3.38902688 42.720652,3.59736389 C42.2788548,3.80492063 41.8192236,3.95473601 41.3409478,4.04602976 L41.2290799,4.32771389 C41.4366029,4.39169755 41.5500921,4.50796053 41.570358,4.67728313 C41.590624,4.84660572 41.5014539,5.18056918 41.3028478,5.67839322 L39.9985329,8.94936245 C39.7853353,9.48464034 39.6183441,9.81938409 39.4983698,9.95437399 C39.3775849,10.0893639 39.2195107,10.1705139 39.0233365,10.197824 L38.9163324,10.4654629 L41.8167917,10.4654629 L41.9229852,10.197824 C41.7584258,10.1705139 41.6684451,10.092485 41.653043,9.96451774 C41.6368303,9.83655043 41.7227578,9.53926053 41.9083937,9.07342832 L44.4002919,2.82565861 L43.9439032,2.82565861 Z M47.0729621,10.4654629 L47.1799662,10.197824 C47.0056793,10.1705139 46.9108347,10.0893639 46.8954326,9.95437399 C46.8808412,9.81938409 46.9797389,9.48464034 47.1929364,8.94936245 L48.7736786,4.98549707 C49.1919673,4.8075913 49.5372987,4.67728313 49.8096727,4.59457255 C50.0820467,4.51264226 50.3065932,4.47128697 50.4825014,4.47128697 C50.7151543,4.47128697 50.8448562,4.54229322 50.8716072,4.68430572 C50.8975476,4.82553793 50.8132413,5.14155476 50.6186885,5.63079563 L49.2949182,8.94936245 C49.0817207,9.48464034 48.9131082,9.81938409 48.790702,9.95437399 C48.6682958,10.0893639 48.5110322,10.1705139 48.3197219,10.197824 L48.2127178,10.4654629 L51.0134687,10.4654629 L51.1196621,10.197824 C50.950239,10.1705139 50.8578264,10.092485 50.8424243,9.96451774 C50.8270222,9.83655043 50.9121391,9.53926053 51.0977749,9.07342832 L52.5366556,5.46615476 C52.9322465,4.47362784 53.100859,3.82832928 53.0416825,3.52869851 C52.9833166,3.22906774 52.719049,3.07925236 52.2488795,3.07925236 C51.9302992,3.07925236 51.5103892,3.18537159 50.9883389,3.39839034 C50.4670993,3.6106288 49.8048089,3.94771341 49.0038995,4.40964418 L49.5283817,3.09329755 L49.1798077,3.09329755 C48.8077254,3.39448889 48.4024068,3.64886293 47.9638522,3.8540788 C47.5261082,4.06007495 47.0648558,4.20832976 46.5825267,4.29962351 L46.4641737,4.59457255 C46.6716968,4.65933649 46.7859966,4.77403889 46.8070732,4.94102063 C46.8289604,5.10800236 46.7414116,5.4365038 46.5468587,5.92496438 L45.3406308,8.94936245 C45.1274333,9.48464034 44.9588208,9.81938409 44.8364146,9.95437399 C44.7140084,10.0893639 44.5567448,10.1705139 44.3654345,10.197824 L44.259241,10.4654629 L47.0729621,10.4654629 Z M56.0288799,10.8907201 C57.7150049,11.2839855 58.4859207,11.6608649 58.342438,12.0221384 C58.233002,12.2968 57.9573854,12.5340076 57.5163989,12.7353221 C57.0746017,12.9366365 56.5882195,13.0372937 56.0564416,13.0372937 C55.4006362,13.0372937 54.9288455,12.9264927 54.6394481,12.7041105 C54.3500507,12.4825086 54.2795252,12.1867793 54.4270612,11.8161423 C54.5073142,11.6148278 54.6353949,11.4252177 54.8104925,11.247312 C54.9864007,11.0686259 55.2028408,10.9063259 55.4606234,10.760412 C55.5951891,10.7924038 55.7848782,10.8353197 56.0288799,10.8907201 L56.0288799,10.8907201 Z M57.2683439,7.21087976 C57.2351078,6.8293187 57.3785906,6.23864034 57.6971709,5.43806438 C57.9363088,4.83958313 58.2086829,4.38545524 58.514293,4.0772413 C58.8207138,3.76824707 59.1465899,3.61453024 59.4935425,3.61453024 C59.8826483,3.61453024 60.0990884,3.79945861 60.1412415,4.16931534 C60.1833946,4.53995236 60.0520714,5.10722207 59.7480826,5.87034418 C59.4838149,6.53358938 59.2025239,7.01814851 58.9042094,7.32402159 C58.6067056,7.63067495 58.2727232,7.78361149 57.9022621,7.78361149 C57.5123457,7.78361149 57.30158,7.59322111 57.2683439,7.21087976 L57.2683439,7.21087976 Z M54.6491757,8.90176486 C54.2625019,9.14443457 54.0241746,9.37930139 53.9325726,9.60792591 C53.8417812,9.83655043 53.8839344,10.0331831 54.0606532,10.197824 C54.2373721,10.3624649 54.5437929,10.4880913 54.979105,10.5747033 C54.275472,10.8267365 53.7518005,11.0616033 53.4080904,11.2816447 C53.0635697,11.5009057 52.8422658,11.734212 52.7441787,11.9807831 C52.5674598,12.423987 52.7563383,12.7977451 53.3124353,13.1020576 C53.8677216,13.4063701 54.6726842,13.5585264 55.727323,13.5585264 C56.8006064,13.5585264 57.7587793,13.3595528 58.6018418,12.9616057 C59.4440937,12.5636586 59.9839779,12.0673951 60.2206839,11.4735956 C60.3447114,11.1622605 60.374705,10.882137 60.309854,10.633225 C60.2458137,10.3843129 60.0885501,10.168173 59.8380633,9.98558553 C59.6045998,9.82094466 58.9358243,9.61026678 57.8317367,9.35433216 C57.6655561,9.31765861 57.540718,9.29034851 57.458033,9.27240188 C57.3404906,9.24431149 57.183227,9.2099788 56.9862422,9.1694038 C56.4382516,9.05470139 56.1910073,8.92907495 56.2461306,8.79174418 C56.2736923,8.7230788 56.3401645,8.64661053 56.4479793,8.56233938 C56.5549833,8.47806822 56.7252171,8.36882784 56.9594912,8.2361788 C57.0494719,8.25958745 57.1499909,8.2767538 57.2594269,8.28767784 C57.3688629,8.29938216 57.5042393,8.30484418 57.6655561,8.30484418 C58.5491504,8.30484418 59.3768108,8.06373505 60.1485373,7.58151678 C60.9202637,7.09929851 61.4504203,6.49691582 61.7381964,5.7743687 C61.8695196,5.44508697 61.9392344,5.14389563 61.9465302,4.86923409 C61.9538259,4.59457255 61.8987026,4.34800139 61.7819708,4.12874034 C61.8784367,4.06475668 61.9611216,4.0163788 62.0284045,3.98438697 C62.0956874,3.95239514 62.1508107,3.93678938 62.1937745,3.93678938 C62.2318744,3.93678938 62.3105062,4.01793938 62.4312911,4.18023938 C62.552076,4.34253938 62.7093396,4.42368938 62.9038925,4.42368938 C63.0798007,4.42368938 63.253277,4.36048601 63.4243214,4.23485957 C63.5961765,4.10923313 63.7185827,3.95239514 63.7939719,3.76512591 C63.883142,3.54118313 63.8790888,3.34923216 63.7810017,3.18927303 C63.6837253,3.02931389 63.5232192,2.94894418 63.2994833,2.94894418 C63.081422,2.94894418 62.8333671,3.01058697 62.5561292,3.13387255 C62.2788913,3.25793841 61.942477,3.45847255 61.5460755,3.73781582 C61.368546,3.52713793 61.1358931,3.3671788 60.8473064,3.25793841 C60.5579089,3.14791774 60.2287903,3.09329755 59.8583292,3.09329755 C58.9650072,3.09329755 58.1114064,3.34533072 57.2975269,3.85095764 C56.4828367,4.35580428 55.9299822,4.97457303 55.6381529,5.70570332 C55.4338723,6.21835284 55.3998256,6.67716245 55.5343913,7.08447303 C55.6689571,7.49100332 55.964029,7.81404274 56.4204176,8.05125043 C55.6259933,8.37585043 55.0350389,8.65909514 54.6491757,8.90176486 L54.6491757,8.90176486 Z M69.4805906,10.4272288 C69.8380815,10.5856274 70.2158384,10.6644365 70.6154824,10.6644365 C71.3604579,10.6644365 72.0381504,10.4701447 72.6469388,10.081561 C73.2549166,9.69297736 73.6853648,9.1826687 73.9366623,8.55219563 C74.2617278,7.73835476 73.8142561,7.02048938 72.5942474,6.39859947 L72.4459008,6.32291149 C71.9789739,6.08960524 71.6790382,5.87424563 71.5469044,5.67527207 C71.4147705,5.47629851 71.402611,5.24221197 71.5104257,4.97223216 C71.6304,4.67026053 71.8460294,4.41744707 72.1581247,4.21457207 C72.4694093,4.01091678 72.7936641,3.90947928 73.1308891,3.90947928 C73.5110779,3.90947928 73.7826413,4.04602976 73.94639,4.3206913 C74.1101386,4.59457255 74.1498598,4.98159563 74.064743,5.47941966 L74.2779405,5.53482014 L75.2190901,4.29962351 C74.9775202,4.04837063 74.7124419,3.85876053 74.4238552,3.73079322 C74.1352684,3.60282591 73.8223625,3.53884226 73.4851375,3.53884226 C72.8058237,3.53884226 72.1848757,3.72299034 71.6231043,4.0905062 C71.0605222,4.45880236 70.6592568,4.94492207 70.4184977,5.54808505 C70.1080237,6.32525236 70.5133422,7.02517111 71.6336425,7.64706101 L71.6790382,7.67437111 C72.2562118,7.98960764 72.5991112,8.24320139 72.7077366,8.43515236 C72.816362,8.62710332 72.8155513,8.86275043 72.704494,9.1420937 C72.5747921,9.4666937 72.3461925,9.73979466 72.0178845,9.96139659 C71.6895765,10.1829985 71.346677,10.2937995 70.9908074,10.2937995 C70.5206379,10.2937995 70.172064,10.1244769 69.9467069,9.78661197 C69.7205392,9.44796678 69.6581201,8.99071774 69.7594498,8.41486486 L69.5316608,8.36024466 L68.4980986,9.73823409 C68.7956023,10.0402057 69.1230997,10.2696105 69.4805906,10.4272288 L69.4805906,10.4272288 Z M77.9744453,10.4654629 L78.0741537,10.197824 C77.8860859,10.1931423 77.7774605,10.122136 77.7490882,9.98558553 C77.7207159,9.84825476 77.7701648,9.61963024 77.8982454,9.29971197 L80.3017842,3.27120332 L80.0383272,3.27120332 C79.7124511,3.50450957 79.3881963,3.69646053 79.0639415,3.8470562 C78.7404973,3.99843216 78.4129999,4.11235428 78.0830707,4.19038313 L78.0011963,4.39637928 C78.200613,4.41900764 78.318966,4.49235476 78.3554447,4.61564034 C78.3911127,4.73892591 78.3473383,4.95584611 78.2233109,5.2671812 L76.6158177,9.29971197 C76.4917902,9.61026678 76.3572245,9.83655043 76.2129311,9.97856293 C76.0686377,10.1197951 75.9024571,10.1931423 75.7160106,10.197824 L75.6090065,10.4654629 L77.9744453,10.4654629 Z M80.8100536,1.88931245 C81.0475702,1.72233072 81.2121296,1.52491774 81.3037315,1.29629322 C81.4001973,1.05362351 81.3969548,0.853089375 81.2948145,0.692349952 C81.1918636,0.532390817 81.0175767,0.452801394 80.7703324,0.452801394 C80.5279519,0.452801394 80.288814,0.53629226 80.0512973,0.70327399 C79.8129701,0.870255721 79.6492214,1.0676687 79.5576194,1.29629322 C79.4684493,1.52023601 79.4765557,1.7168687 79.5827492,1.8861913 C79.6889426,2.05551389 79.859987,2.13978505 80.0975037,2.13978505 C80.3350203,2.13978505 80.572537,2.05629418 80.8100536,1.88931245 L80.8100536,1.88931245 Z M82.6972166,10.4654629 L82.80341,10.197824 C82.6120997,10.1884605 82.5018531,10.116674 82.4726701,9.98168409 C82.4434872,9.84669418 82.4929361,9.61963024 82.6202061,9.29971197 L84.2560716,5.19851582 C84.7651516,4.9698913 85.193168,4.79822784 85.5401206,4.68430572 C85.8870733,4.56960332 86.1537728,4.51264226 86.3385981,4.51264226 C86.5858424,4.51264226 86.731757,4.57896678 86.7763421,4.71161582 C86.8209271,4.84426486 86.7706676,5.09083601 86.6271848,5.45210957 L85.092649,9.29971197 C84.9645683,9.61963024 84.8324345,9.84669418 84.6954368,9.98168409 C84.5584392,10.116674 84.391448,10.1884605 84.1928419,10.197824 L84.0858378,10.4654629 L86.4156086,10.4654629 L86.5226127,10.197824 C86.3313023,10.1884605 86.222677,10.116674 86.1951153,9.98168409 C86.1683643,9.84669418 86.2186238,9.61963024 86.3467044,9.29971197 L88.1211889,4.84894659 C88.2841269,4.44163601 88.317363,4.12171774 88.2233291,3.88841149 C88.1284846,3.65510524 87.9169083,3.53884226 87.589411,3.53884226 C87.1759861,3.53884226 86.2291621,3.90713841 84.7481282,4.64295043 L84.4117139,4.8075913 L84.9175514,3.53884226 L84.6897624,3.53884226 C84.3817203,3.76278505 84.0623293,3.95239514 83.7324001,4.10767255 C83.4016602,4.26373024 83.0676777,4.37765236 82.7296421,4.45099947 L82.6453358,4.66323793 C82.8496163,4.68664659 82.9695906,4.75843313 83.004448,4.87937784 C83.0393054,5.00032255 82.995531,5.21412159 82.8731248,5.52077495 L81.3661506,9.29971197 C81.2421231,9.61026678 81.1107999,9.83577014 80.972181,9.97466149 C80.8335621,10.1143331 80.6673815,10.1884605 80.4736392,10.197824 L80.3666352,10.4654629 L82.6972166,10.4654629 Z M92.9914961,9.70390139 C92.6469754,9.88258745 92.3275844,9.97154034 92.0333231,9.97154034 C91.48209,9.97154034 91.1651309,9.68907591 91.0816353,9.12492736 C90.9981397,8.55999851 91.1586458,7.77034659 91.5631537,6.7551913 C91.9319935,5.83132976 92.3478503,5.12438841 92.8123453,4.63280668 C93.2768403,4.14122495 93.7607906,3.89543409 94.2641962,3.89543409 C94.8154294,3.89543409 95.1575182,4.11391486 95.2928946,4.55009611 C95.4274603,4.98705764 95.336669,5.60114466 95.0213312,6.39157688 L94.0015498,8.94936245 C93.6724312,9.27474274 93.3352062,9.52599563 92.9914961,9.70390139 L92.9914961,9.70390139 Z M93.3968146,10.4654629 L95.1777841,10.4654629 L95.2774925,10.197824 C95.0894247,10.1931423 94.9807993,10.122136 94.952427,9.98558553 C94.9240547,9.84825476 94.9735036,9.61963024 95.1015842,9.29971197 L98.7583678,0.13054226 L98.5224725,0.13054226 C98.215241,0.354485048 97.8966607,0.543314856 97.5667314,0.696251394 C97.2376128,0.849187933 96.9052516,0.964670625 96.5704585,1.04269947 L96.4853416,1.25493793 C96.6920541,1.27366486 96.8144603,1.34389082 96.8533708,1.46795668 C96.8914708,1.59124226 96.8509389,1.80348072 96.7309647,2.10545236 L95.8335895,4.35502399 C95.7427981,4.09440764 95.5798601,3.89309322 95.3439647,3.75108072 C95.1080693,3.60984851 94.8097549,3.53884226 94.4490214,3.53884226 C93.5889356,3.53884226 92.7507369,3.89621438 91.9336148,4.61173889 C91.1164927,5.32726341 90.4728469,6.27297303 90.0042987,7.44808745 C89.6143823,8.42656918 89.5260228,9.20685764 89.740031,9.78973313 C89.9540392,10.3726086 90.4315044,10.6644365 91.1732373,10.6644365 C91.5809877,10.6644365 92.0065721,10.5692413 92.4475586,10.3796312 C92.8893558,10.1900211 93.3262892,9.91457928 93.7607906,9.55330572 L93.3968146,10.4654629 Z M99.9783766,10.4654629 L100.078085,10.197824 C99.8900171,10.1931423 99.7813918,10.122136 99.7530195,9.98558553 C99.7246472,9.84825476 99.774096,9.61963024 99.9021767,9.29971197 L101.441576,5.43806438 C101.657206,5.25547688 101.851759,5.11814611 102.026046,5.02685236 C102.200333,4.93555861 102.355975,4.88952159 102.494594,4.88952159 C102.626728,4.88952159 102.780749,4.92775572 102.955036,5.00266341 C103.129323,5.07835139 103.270373,5.11580524 103.379809,5.11580524 C103.612462,5.11580524 103.836198,5.04167784 104.049396,4.89342303 C104.263404,4.74438793 104.413372,4.56023986 104.50092,4.3409788 C104.599818,4.09440764 104.611978,3.89855524 104.53902,3.75498216 C104.466063,3.6106288 104.317717,3.53884226 104.094791,3.53884226 C103.847547,3.53884226 103.525724,3.64964322 103.128512,3.87124514 C102.7313,4.09284707 102.240054,4.43695428 101.654774,4.90356678 L102.193848,3.55210716 L101.93039,3.55210716 C101.619106,3.77214851 101.300526,3.95863745 100.973839,4.11157399 C100.646341,4.26451053 100.316412,4.37765236 99.9832404,4.45099947 L99.8981235,4.66323793 C100.098351,4.68664659 100.216704,4.75843313 100.253993,4.87937784 C100.291282,5.00032255 100.248319,5.21412159 100.126723,5.52077495 L98.6197489,9.29971197 C98.4957214,9.61026678 98.3611557,9.83655043 98.2168623,9.97856293 C98.0725689,10.1197951 97.907199,10.1931423 97.7199418,10.197824 L97.6129377,10.4654629 L99.9783766,10.4654629 Z M106.57453,10.4654629 L106.674238,10.197824 C106.486171,10.1931423 106.377545,10.122136 106.349173,9.98558553 C106.320801,9.84825476 106.370249,9.61963024 106.49833,9.29971197 L108.901869,3.27120332 L108.638412,3.27120332 C108.312536,3.50450957 107.988281,3.69646053 107.664026,3.8470562 C107.340582,3.99843216 107.013085,4.11235428 106.683155,4.19038313 L106.601281,4.39637928 C106.800698,4.41900764 106.919051,4.49235476 106.955529,4.61564034 C106.992008,4.73892591 106.947423,4.95584611 106.823396,5.2671812 L105.215902,9.29971197 C105.091875,9.61026678 104.957309,9.83655043 104.813016,9.97856293 C104.668722,10.1197951 104.502542,10.1931423 104.316095,10.197824 L104.209091,10.4654629 L106.57453,10.4654629 Z M109.410138,1.88931245 C109.647655,1.72233072 109.812214,1.52491774 109.903816,1.29629322 C110.000282,1.05362351 109.997039,0.853089375 109.894899,0.692349952 C109.791948,0.532390817 109.617661,0.452801394 109.370417,0.452801394 C109.128847,0.452801394 108.888899,0.53629226 108.651382,0.70327399 C108.413055,0.870255721 108.249306,1.0676687 108.157704,1.29629322 C108.068534,1.52023601 108.07664,1.7168687 108.182834,1.8861913 C108.289027,2.05551389 108.460072,2.13978505 108.697588,2.13978505 C108.935105,2.13978505 109.172622,2.05629418 109.410138,1.88931245 L109.410138,1.88931245 Z M117.855355,9.25835668 C118.010997,9.50102639 118.316607,9.62197111 118.772185,9.62197111 C119.090766,9.62197111 119.434476,9.55798745 119.803315,9.43002014 C120.172966,9.30205284 120.545048,9.11868505 120.920373,8.88147736 C121.611847,8.43281149 122.223067,7.8912913 122.754845,7.25613649 C123.285812,6.62020139 123.696805,5.93900957 123.986203,5.21178072 C124.553648,3.79009514 124.512306,2.64853313 123.863796,1.78631438 C123.214476,0.924875913 122.068235,0.494156683 120.425074,0.494156683 C119.560124,0.494156683 118.695985,0.62212399 117.831036,0.878058606 C116.966897,1.13399322 116.114917,1.51555428 115.276718,2.02352207 C114.244777,2.64463168 113.361183,3.36171678 112.626746,4.17321678 C111.892309,4.98471678 111.340265,5.85473841 110.969804,6.78250139 C110.610692,7.68373457 110.471262,8.50771918 110.550705,9.25523553 C110.630147,10.0027519 110.925219,10.6347855 111.436731,11.1513365 C111.833132,11.5625485 112.361668,11.872323 113.021526,12.08066 C113.682195,12.2882168 114.461218,12.3927754 115.358593,12.3927754 C116.213815,12.3927754 117.08525,12.2640278 117.973708,12.0080932 C118.862166,11.7521586 119.755488,11.3729384 120.654484,10.8696524 L120.531268,10.5887485 C119.662265,11.0639442 118.807853,11.4197557 117.968844,11.6554028 C117.129024,11.8902697 116.305417,12.0080932 115.498022,12.0080932 C114.728728,12.0080932 114.043739,11.896512 113.444679,11.6725692 C112.844807,11.4486264 112.370585,11.125587 112.020389,10.7050115 C111.628852,10.2344975 111.417276,9.69921966 111.38485,9.10073841 C111.353235,8.50147688 111.503203,7.78595236 111.834754,6.95416486 C112.190623,6.06229514 112.668899,5.24377255 113.270392,4.49859707 C113.871074,3.75342159 114.584434,3.09797928 115.408852,2.53070957 C116.195981,1.98684851 117.014724,1.57407591 117.865082,1.29239178 C118.716251,1.01148793 119.569041,0.87103601 120.424263,0.87103601 C121.102767,0.87103601 121.699395,0.966231202 122.212529,1.1558413 C122.725662,1.34545139 123.126117,1.61621149 123.413082,1.96812159 C123.744633,2.37543216 123.933511,2.83502207 123.978907,3.3468913 C124.023492,3.85876053 123.925405,4.41900764 123.682214,5.02685236 C123.354716,5.85005668 122.920215,6.57806582 122.380331,7.21087976 C121.840446,7.84447399 121.205718,8.36648697 120.476955,8.77847928 C120.219172,8.92439322 119.958958,9.04377736 119.697122,9.13507111 C119.434476,9.22636486 119.225331,9.27240188 119.068878,9.27240188 C118.864598,9.27240188 118.731653,9.20841822 118.671666,9.07967063 C118.610868,8.95170332 118.627081,8.77145668 118.720304,8.53815043 C118.774617,8.40081966 118.888917,8.20418697 119.062393,7.94825236 C119.092387,7.90767736 119.113463,7.87958697 119.123191,7.86632207 L122.02284,3.66915043 L120.896865,3.66915043 L120.057856,4.86221149 C120.134055,4.43227255 120.082985,4.10689226 119.906266,3.88529034 C119.727926,3.66368841 119.425559,3.55210716 118.998353,3.55210716 C118.632756,3.55210716 118.233112,3.63169659 117.799421,3.78931486 C117.366541,3.94693313 116.928797,4.17399707 116.486999,4.47128697 C115.894424,4.87391582 115.382912,5.31946053 114.953274,5.80870139 C114.522826,6.29794226 114.208299,6.79186486 114.009693,7.29046918 C113.728402,7.99428938 113.687059,8.55687736 113.885665,8.97745284 C114.083461,9.39802832 114.488779,9.60792591 115.101621,9.60792591 C115.543418,9.60792591 115.99089,9.49166293 116.444846,9.25835668 C116.898803,9.02505043 117.368973,8.66845861 117.854544,8.1885812 C117.700523,8.65909514 117.700523,9.01568697 117.855355,9.25835668 L117.855355,9.25835668 Z M119.627407,4.26216966 C119.723873,4.52044514 119.688205,4.85987063 119.520403,5.28044611 C119.361518,5.67839322 119.101304,6.13096053 118.73976,6.63892832 C118.378216,7.14611582 117.982625,7.61272832 117.551366,8.03798553 C117.133077,8.44451582 116.747214,8.74726774 116.394587,8.9462413 C116.04196,9.14521486 115.71203,9.24431149 115.403178,9.24431149 C115.108917,9.24431149 114.915174,9.12492736 114.823572,8.88459851 C114.73197,8.64426966 114.764396,8.32825284 114.920849,7.93498745 C115.106485,7.46837495 115.414527,6.94636197 115.844975,6.36738793 C116.275423,5.78919418 116.756131,5.25547688 117.288719,4.76623601 C117.63324,4.45099947 117.93885,4.22315524 118.20555,4.08426389 C118.47225,3.94459226 118.734085,3.87514659 118.991057,3.87514659 C119.318555,3.87514659 119.530941,4.00389418 119.627407,4.26216966 L119.627407,4.26216966 Z M127.141202,10.4654629 L127.247395,10.197824 C127.056085,10.1884605 126.945838,10.116674 126.916655,9.98168409 C126.887472,9.84669418 126.936921,9.61963024 127.064191,9.29971197 L128.700057,5.19851582 C129.209137,4.9698913 129.637153,4.79822784 129.984106,4.68430572 C130.331869,4.56960332 130.597758,4.51264226 130.783394,4.51264226 C131.029828,4.51264226 131.175742,4.57896678 131.220327,4.71161582 C131.264912,4.84426486 131.214653,5.09083601 131.07117,5.45210957 L129.536634,9.29971197 C129.409364,9.61963024 129.27642,9.84669418 129.140233,9.98168409 C129.003235,10.116674 128.835433,10.1884605 128.636827,10.197824 L128.530634,10.4654629 L130.860404,10.4654629 L130.966598,10.197824 C130.775288,10.1884605 130.666662,10.116674 130.639911,9.98168409 C130.61235,9.84669418 130.662609,9.61963024 130.79069,9.29971197 L132.425745,5.19851582 C132.925908,4.9698913 133.34906,4.79822784 133.696013,4.68430572 C134.043776,4.56960332 134.309665,4.51264226 134.495301,4.51264226 C134.741734,4.51264226 134.88846,4.57974707 134.934666,4.71473697 C134.980062,4.84972688 134.932234,5.09551774 134.790373,5.45210957 L133.255837,9.29971197 C133.127756,9.61963024 132.995622,9.84669418 132.858625,9.98168409 C132.722438,10.116674 132.553825,10.1908014 132.353598,10.2048466 L132.249026,10.4654629 L134.572311,10.4654629 L134.671209,10.197824 C134.483141,10.1931423 134.375327,10.122136 134.346954,9.98558553 C134.318582,9.84825476 134.368031,9.61963024 134.495301,9.29971197 L136.270596,4.84894659 C136.434345,4.43695428 136.470823,4.11625572 136.380032,3.88529034 C136.289241,3.65432495 136.080096,3.53884226 135.752599,3.53884226 C135.339174,3.53884226 134.39235,3.90713841 132.911316,4.64295043 L132.582197,4.8075913 L132.66164,4.60861774 C132.797827,4.26607111 132.811608,4.00155332 132.702982,3.81662495 C132.593546,3.63169659 132.370621,3.53884226 132.033396,3.53884226 C131.619971,3.53884226 130.673147,3.90713841 129.192113,4.64295043 L128.855699,4.8075913 L129.361537,3.53884226 L129.133748,3.53884226 C128.825706,3.76278505 128.507125,3.95239514 128.176385,4.10767255 C127.846456,4.26373024 127.511663,4.37765236 127.174438,4.45099947 L127.089321,4.66323793 C127.293602,4.68664659 127.413576,4.75843313 127.448433,4.87937784 C127.483291,5.00032255 127.439516,5.21412159 127.31711,5.52077495 L125.810136,9.29971197 C125.686108,9.61026678 125.554785,9.83577014 125.416166,9.97466149 C125.277547,10.1143331 125.111367,10.1884605 124.917624,10.197824 L124.811431,10.4654629 L127.141202,10.4654629 Z M139.344531,10.4654629 L139.443429,10.197824 C139.255361,10.1931423 139.147547,10.122136 139.119174,9.98558553 C139.089991,9.84825476 139.140251,9.61963024 139.267521,9.29971197 L141.67187,3.27120332 L141.408413,3.27120332 C141.082537,3.50450957 140.757472,3.69646053 140.434028,3.8470562 C140.109773,3.99843216 139.783086,4.11235428 139.452346,4.19038313 L139.370472,4.39637928 C139.570699,4.41900764 139.688242,4.49235476 139.72472,4.61564034 C139.761199,4.73892591 139.717425,4.95584611 139.593397,5.2671812 L137.985093,9.29971197 C137.861066,9.61026678 137.727311,9.83655043 137.583017,9.97856293 C137.437913,10.1197951 137.272543,10.1931423 137.085286,10.197824 L136.979093,10.4654629 L139.344531,10.4654629 Z M142.18014,1.88931245 C142.417656,1.72233072 142.582216,1.52491774 142.673007,1.29629322 C142.769473,1.05362351 142.767041,0.853089375 142.66409,0.692349952 C142.56195,0.532390817 142.386852,0.452801394 142.140419,0.452801394 C141.898038,0.452801394 141.65809,0.53629226 141.420573,0.70327399 C141.183056,0.870255721 141.018497,1.0676687 140.927706,1.29629322 C140.838536,1.52023601 140.846642,1.7168687 140.952025,1.8861913 C141.058218,2.05551389 141.230073,2.13978505 141.46759,2.13978505 C141.705106,2.13978505 141.942623,2.05629418 142.18014,1.88931245 L142.18014,1.88931245 Z M145.969868,9.70390139 C145.625347,9.88258745 145.305956,9.97154034 145.011695,9.97154034 C144.460462,9.97154034 144.143503,9.68907591 144.060007,9.12492736 C143.975701,8.55999851 144.137018,7.77034659 144.541525,6.7551913 C144.909555,5.83132976 145.326222,5.12438841 145.790717,4.63280668 C146.254401,4.14122495 146.738352,3.89543409 147.242568,3.89543409 C147.79299,3.89543409 148.13589,4.11391486 148.270456,4.55009611 C148.405021,4.98705764 148.315041,5.60114466 147.999703,6.39157688 L146.979111,8.94936245 C146.649992,9.27474274 146.313578,9.52599563 145.969868,9.70390139 L145.969868,9.70390139 Z M146.375186,10.4654629 L148.156156,10.4654629 L148.255864,10.197824 C148.066986,10.1931423 147.959171,10.122136 147.930799,9.98558553 C147.902426,9.84825476 147.951875,9.61963024 148.079145,9.29971197 L151.735929,0.13054226 L151.500844,0.13054226 C151.192802,0.354485048 150.874222,0.543314856 150.545103,0.696251394 C150.215985,0.849187933 149.883623,0.964670625 149.54883,1.04269947 L149.463713,1.25493793 C149.670426,1.27366486 149.792832,1.34389082 149.830932,1.46795668 C149.869843,1.59124226 149.829311,1.80348072 149.708526,2.10545236 L148.811961,4.35502399 C148.72117,4.09440764 148.557421,3.89309322 148.322336,3.75108072 C148.086441,3.60984851 147.788127,3.53884226 147.427393,3.53884226 C146.567307,3.53884226 145.729109,3.89621438 144.911987,4.61173889 C144.094054,5.32726341 143.451219,6.27297303 142.98267,7.44808745 C142.592754,8.42656918 142.504395,9.20685764 142.718403,9.78973313 C142.932411,10.3726086 143.409876,10.6644365 144.150798,10.6644365 C144.559359,10.6644365 144.984133,10.5692413 145.42593,10.3796312 C145.866917,10.1900211 146.304661,9.91457928 146.738352,9.55330572 L146.375186,10.4654629 Z M154.788788,9.08669322 C154.438593,9.37071822 154.099747,9.59075957 153.77306,9.74837784 C153.447184,9.90677639 153.169946,9.98558553 152.941346,9.98558553 C152.632494,9.98558553 152.42497,9.8724437 152.317966,9.64616005 C152.210962,9.41987639 152.229607,9.12570764 152.3739,8.76443409 C152.548998,8.32591197 152.885412,7.94044947 153.383143,7.60882688 C153.880875,7.27720428 154.68908,6.91983216 155.806137,6.53593024 L154.788788,9.08669322 Z M156.439245,9.80689947 C156.350886,9.89819322 156.268201,9.96607832 156.19119,10.0089942 C156.11499,10.0526903 156.036358,10.0745384 155.955295,10.0745384 C155.845859,10.0745384 155.785061,10.0253802 155.772091,9.92706389 C155.75912,9.82874755 155.794789,9.67190957 155.880716,9.45733024 L157.48902,5.42479947 C157.757341,4.75297111 157.783281,4.26997255 157.567652,3.97736438 C157.351212,3.6847562 156.866451,3.53884226 156.110937,3.53884226 C155.388659,3.53884226 154.72799,3.68085476 154.128119,3.96409947 C153.528247,4.24734418 153.150491,4.58364851 152.995659,4.97223216 C152.92108,5.15950139 152.922702,5.31633938 153.000523,5.44196582 C153.079155,5.56759226 153.210478,5.63079563 153.396114,5.63079563 C153.576075,5.63079563 153.764143,5.56993313 153.959506,5.44898841 C154.15568,5.32726341 154.32105,5.16886486 154.456427,4.97223216 C154.776628,4.51498313 155.038464,4.22081438 155.242745,4.0905062 C155.446215,3.96019803 155.683731,3.89543409 155.954484,3.89543409 C156.253609,3.89543409 156.438434,3.99843216 156.508149,4.20364803 C156.577864,4.40964418 156.529226,4.72332014 156.361424,5.14389563 L155.959348,6.15202832 C154.19297,6.74582784 152.969719,7.25457591 152.291215,7.67749226 C151.611901,8.10040861 151.158755,8.59511149 150.932588,9.1623812 C150.750194,9.61963024 150.743709,9.98402495 150.913132,10.2563456 C151.082556,10.527886 151.405189,10.6644365 151.880222,10.6644365 C152.236092,10.6644365 152.643032,10.5762639 153.100231,10.3999187 C153.55743,10.2243538 154.047055,9.96919947 154.569916,9.63523601 L154.553703,9.6765913 C154.42238,10.005873 154.399682,10.2524442 154.48642,10.417085 C154.572348,10.5817259 154.770143,10.6644365 155.078996,10.6644365 C155.306785,10.6644365 155.548355,10.6051346 155.802084,10.4857504 C156.055814,10.3671466 156.317649,10.1908014 156.58597,9.95749514 L156.439245,9.80689947 Z M159.62748,9.31297688 C159.443466,9.77490764 159.39807,10.1158937 159.490483,10.3351548 C159.583706,10.5544158 159.820412,10.6644365 160.200601,10.6644365 C160.508643,10.6644365 160.823981,10.5817259 161.146614,10.417085 C161.468437,10.2524442 161.763509,10.0199182 162.031019,9.71794659 L161.897264,9.55330572 C161.785396,9.63133457 161.673528,9.69063649 161.562471,9.73121149 C161.451414,9.77256678 161.34522,9.79363457 161.245512,9.79363457 C161.060687,9.79363457 160.956925,9.71638601 160.935038,9.56344947 C160.913151,9.41051293 160.972327,9.15769947 161.112567,8.80578938 L162.952713,4.19038313 L164.178397,4.19038313 L164.359169,3.73781582 L163.105113,3.73781582 L164.248111,0.87103601 L163.841982,0.87103601 C163.400996,1.60684803 162.944607,2.21547303 162.473627,2.69535043 C162.001836,3.17522784 161.474111,3.56849322 160.891263,3.87514659 L160.765615,4.19038313 L161.670286,4.19038313 L159.62748,9.31297688 Z M166.405216,10.4654629 L166.512221,10.197824 C166.32091,10.1884605 166.211474,10.116674 166.184723,9.98168409 C166.157972,9.84669418 166.208232,9.61963024 166.336312,9.29971197 L169.992285,0.13054226 L169.728828,0.13054226 C169.420786,0.354485048 169.102206,0.543314856 168.773087,0.696251394 C168.443158,0.849187933 168.109175,0.964670625 167.769519,1.04269947 L167.684402,1.25493793 C167.891114,1.27366486 168.011088,1.34311053 168.046756,1.46405524 C168.080803,1.58578024 168.037839,1.79879899 167.915433,2.10545236 L165.046589,9.29971197 C164.922561,9.61026678 164.791238,9.83577014 164.652619,9.97466149 C164.51319,10.1143331 164.347009,10.1884605 164.154077,10.197824 L164.047073,10.4654629 L166.405216,10.4654629 Z M173.088108,9.08669322 C172.737102,9.37071822 172.399067,9.59075957 172.07238,9.74837784 C171.745693,9.90677639 171.468455,9.98558553 171.240666,9.98558553 C170.931814,9.98558553 170.72429,9.8724437 170.617286,9.64616005 C170.510282,9.41987639 170.528927,9.12570764 170.67322,8.76443409 C170.848318,8.32591197 171.184732,7.94044947 171.682463,7.60882688 C172.180195,7.27720428 172.9884,6.91983216 174.105458,6.53593024 L173.088108,9.08669322 Z M174.738565,9.80689947 C174.650206,9.89819322 174.567521,9.96607832 174.49051,10.0089942 C174.41431,10.0526903 174.335678,10.0745384 174.254615,10.0745384 C174.145179,10.0745384 174.084381,10.0253802 174.071411,9.92706389 C174.05763,9.82874755 174.094109,9.67190957 174.180036,9.45733024 L175.78834,5.42479947 C176.056661,4.75297111 176.082601,4.26997255 175.866161,3.97736438 C175.650532,3.6847562 175.16496,3.53884226 174.410257,3.53884226 C173.687979,3.53884226 173.02731,3.68085476 172.427439,3.96409947 C171.827567,4.24734418 171.449811,4.58364851 171.294979,4.97223216 C171.2204,5.15950139 171.222022,5.31633938 171.299843,5.44196582 C171.377664,5.56759226 171.509798,5.63079563 171.694623,5.63079563 C171.875395,5.63079563 172.063463,5.56993313 172.258826,5.44898841 C172.45419,5.32726341 172.62037,5.16886486 172.755747,4.97223216 C173.075138,4.51498313 173.337784,4.22081438 173.541254,4.0905062 C173.745535,3.96019803 173.983051,3.89543409 174.253804,3.89543409 C174.552929,3.89543409 174.736944,3.99843216 174.807469,4.20364803 C174.877184,4.40964418 174.828546,4.72332014 174.660744,5.14389563 L174.258668,6.15202832 C172.49229,6.74582784 171.269039,7.25457591 170.589725,7.67749226 C169.910411,8.10040861 169.458075,8.59511149 169.231908,9.1623812 C169.049514,9.61963024 169.043029,9.98402495 169.212452,10.2563456 C169.381876,10.527886 169.703698,10.6644365 170.178732,10.6644365 C170.535412,10.6644365 170.942352,10.5762639 171.399551,10.3999187 C171.85675,10.2243538 172.346375,9.96919947 172.869236,9.63523601 L172.853023,9.6765913 C172.7217,10.005873 172.699002,10.2524442 172.78574,10.417085 C172.871668,10.5817259 173.069463,10.6644365 173.378316,10.6644365 C173.606105,10.6644365 173.846864,10.6051346 174.101404,10.4857504 C174.355134,10.3671466 174.616159,10.1908014 174.88529,9.95749514 L174.738565,9.80689947 Z M179.056018,10.4654629 L179.163022,10.197824 C178.971712,10.1884605 178.861465,10.116674 178.832282,9.98168409 C178.802288,9.84669418 178.851737,9.61963024 178.979818,9.29971197 L180.614873,5.19851582 C181.123953,4.9698913 181.551969,4.79822784 181.899732,4.68430572 C182.246685,4.56960332 182.512574,4.51264226 182.69821,4.51264226 C182.945454,4.51264226 183.090558,4.57896678 183.135143,4.71161582 C183.179728,4.84426486 183.130279,5.09083601 182.985986,5.45210957 L181.45145,9.29971197 C181.32418,9.61963024 181.192046,9.84669418 181.055049,9.98168409 C180.918051,10.116674 180.750249,10.1884605 180.552454,10.197824 L180.44545,10.4654629 L182.77522,10.4654629 L182.882225,10.197824 C182.690914,10.1884605 182.581478,10.116674 182.554727,9.98168409 C182.527976,9.84669418 182.578236,9.61963024 182.705506,9.29971197 L184.480801,4.84894659 C184.642928,4.44163601 184.676975,4.12171774 184.58213,3.88841149 C184.487286,3.65510524 184.27652,3.53884226 183.949023,3.53884226 C183.535598,3.53884226 182.587963,3.90713841 181.106929,4.64295043 L180.770515,4.8075913 L181.277163,3.53884226 L181.048564,3.53884226 C180.741332,3.76278505 180.421941,3.95239514 180.091201,4.10767255 C179.761272,4.26373024 179.42729,4.37765236 179.089254,4.45099947 L179.004137,4.66323793 C179.209228,4.68664659 179.328392,4.75843313 179.363249,4.87937784 C179.398107,5.00032255 179.354332,5.21412159 179.232737,5.52077495 L177.725762,9.29971197 C177.601735,9.61026678 177.470412,9.83577014 177.331793,9.97466149 C177.192363,10.1143331 177.026183,10.1884605 176.833251,10.197824 L176.726247,10.4654629 L179.056018,10.4654629 Z M186.318515,9.31297688 C186.13369,9.77490764 186.088294,10.1158937 186.181517,10.3351548 C186.27474,10.5544158 186.510636,10.6644365 186.890825,10.6644365 C187.199677,10.6644365 187.515015,10.5817259 187.836838,10.417085 C188.159472,10.2524442 188.454543,10.0199182 188.722054,9.71794659 L188.588298,9.55330572 C188.476431,9.63133457 188.364563,9.69063649 188.253505,9.73121149 C188.141637,9.77256678 188.036255,9.79363457 187.936546,9.79363457 C187.75091,9.79363457 187.647149,9.71638601 187.625262,9.56344947 C187.603375,9.41051293 187.662551,9.15769947 187.802791,8.80578938 L189.643748,4.19038313 L190.869431,4.19038313 L191.049392,3.73781582 L189.795337,3.73781582 L190.939146,0.87103601 L190.533017,0.87103601 C190.09203,1.60684803 189.635642,2.21547303 189.163851,2.69535043 C188.69206,3.17522784 188.165146,3.56849322 187.582298,3.87514659 L187.456649,4.19038313 L188.36132,4.19038313 L186.318515,9.31297688 Z M193.174072,10.4654629 L193.27378,10.197824 C193.085713,10.1931423 192.977087,10.122136 192.948715,9.98558553 C192.920343,9.84825476 192.970602,9.61963024 193.097872,9.29971197 L195.502222,3.27120332 L195.237954,3.27120332 C194.912889,3.50450957 194.587823,3.69646053 194.264379,3.8470562 C193.940124,3.99843216 193.613437,4.11235428 193.282697,4.19038313 L193.200823,4.39637928 C193.40105,4.41900764 193.518593,4.49235476 193.555072,4.61564034 C193.59155,4.73892591 193.547776,4.95584611 193.423748,5.2671812 L191.815444,9.29971197 C191.691417,9.61026678 191.556851,9.83655043 191.412558,9.97856293 C191.268264,10.1197951 191.102895,10.1931423 190.915637,10.197824 L190.809444,10.4654629 L193.174072,10.4654629 Z M196.010491,1.88931245 C196.248008,1.72233072 196.411756,1.52491774 196.503358,1.29629322 C196.599824,1.05362351 196.596582,0.853089375 196.494441,0.692349952 C196.392301,0.532390817 196.217203,0.452801394 195.97077,0.452801394 C195.728389,0.452801394 195.488441,0.53629226 195.250924,0.70327399 C195.013408,0.870255721 194.848848,1.0676687 194.758057,1.29629322 C194.668076,1.52023601 194.676993,1.7168687 194.782376,1.8861913 C194.888569,2.05551389 195.060424,2.13978505 195.297941,2.13978505 C195.535458,2.13978505 195.772974,2.05629418 196.010491,1.88931245 L196.010491,1.88931245 Z M200.22175,9.64616005 C199.867502,9.78973313 199.524603,9.86151966 199.192241,9.86151966 C198.5413,9.86151966 198.135171,9.57047207 197.973043,8.98759659 C197.810916,8.40472111 197.925216,7.62365236 198.315943,6.64517063 C198.663706,5.77202784 199.069835,5.10019947 199.532709,4.62890524 C199.996393,4.1583913 200.481965,3.92274418 200.990234,3.92274418 C201.251259,3.92274418 201.436085,3.99218986 201.54471,4.13186149 C201.652525,4.27153313 201.685761,4.4829913 201.644418,4.76623601 C201.641986,4.78496293 201.637933,4.81929563 201.631448,4.86923409 C201.554438,5.40841341 201.71008,5.67839322 202.099996,5.67839322 C202.284822,5.67839322 202.459919,5.61753072 202.624478,5.49658601 C202.789038,5.3756413 202.909823,5.21880332 202.986833,5.02685236 C203.140044,4.64295043 203.065465,4.29884322 202.763908,3.99453072 C202.462351,3.69099851 202.029471,3.53884226 201.464457,3.53884226 C200.528171,3.53884226 199.628364,3.88372976 198.764225,4.57428505 C197.900086,5.26484034 197.247523,6.16061149 196.808158,7.2623788 C196.397976,8.29157928 196.328261,9.11556389 196.599014,9.73511293 C196.869766,10.354662 197.432348,10.6644365 198.28757,10.6644365 C198.748012,10.6644365 199.25385,10.5341283 199.804272,10.273512 C200.354695,10.0128956 200.903496,9.64225861 201.451487,9.1623812 L201.293412,9.00476293 C200.93349,9.28800764 200.575999,9.50180668 200.22175,9.64616005 L200.22175,9.64616005 Z M204.094163,10.4108427 C204.202789,10.579385 204.373023,10.6644365 204.605675,10.6644365 C204.843192,10.6644365 205.08233,10.5809456 205.322278,10.4139639 C205.562227,10.2469822 205.727597,10.0495692 205.818388,9.82094466 C205.913233,9.58295668 205.908369,9.38320284 205.804608,9.22090284 C205.700846,9.05860284 205.525748,8.97745284 205.278504,8.97745284 C205.036124,8.97745284 204.796986,9.05938313 204.56028,9.22402399 C204.323574,9.38866486 204.159014,9.58763841 204.065791,9.82094466 C203.976621,10.0448875 203.986349,10.2415201 204.094163,10.4108427 L204.094163,10.4108427 Z M211.017814,10.4654629 L211.117523,10.197824 C210.928644,10.1931423 210.820829,10.122136 210.792457,9.98558553 C210.764085,9.84825476 210.813534,9.61963024 210.940804,9.29971197 L213.345153,3.27120332 L213.081696,3.27120332 C212.75582,3.50450957 212.430755,3.69646053 212.10731,3.8470562 C211.783056,3.99843216 211.456369,4.11235428 211.12644,4.19038313 L211.043755,4.39637928 C211.243982,4.41900764 211.362335,4.49235476 211.398003,4.61564034 C211.434482,4.73892591 211.390707,4.95584611 211.26668,5.2671812 L209.658376,9.29971197 C209.534348,9.61026678 209.400593,9.83655043 209.2563,9.97856293 C209.111196,10.1197951 208.945826,10.1931423 208.758569,10.197824 L208.652375,10.4654629 L211.017814,10.4654629 Z M213.853422,1.88931245 C214.090939,1.72233072 214.255498,1.52491774 214.34629,1.29629322 C214.442756,1.05362351 214.440324,0.853089375 214.338183,0.692349952 C214.235233,0.532390817 214.060946,0.452801394 213.813701,0.452801394 C213.571321,0.452801394 213.331372,0.53629226 213.093856,0.70327399 C212.856339,0.870255721 212.69178,1.0676687 212.600988,1.29629322 C212.511818,1.52023601 212.519925,1.7168687 212.626118,1.8861913 C212.731501,2.05551389 212.903356,2.13978505 213.140873,2.13978505 C213.378389,2.13978505 213.615906,2.05629418 213.853422,1.88931245 L213.853422,1.88931245 Z M214.647036,10.4272288 C215.004527,10.5856274 215.383095,10.6644365 215.781928,10.6644365 C216.527714,10.6644365 217.204596,10.4701447 217.813384,10.081561 C218.421362,9.69297736 218.85181,9.1826687 219.103108,8.55219563 C219.428173,7.73835476 218.980702,7.02048938 217.760693,6.39859947 L217.612346,6.32291149 C217.145419,6.08960524 216.845484,5.87424563 216.71335,5.67527207 C216.581216,5.47629851 216.569056,5.24221197 216.676871,4.97223216 C216.796845,4.67026053 217.012475,4.41744707 217.32457,4.21457207 C217.635855,4.01091678 217.96011,3.90947928 218.297335,3.90947928 C218.677523,3.90947928 218.949087,4.04602976 219.112835,4.3206913 C219.276584,4.59457255 219.316305,4.98159563 219.231188,5.47941966 L219.444386,5.53482014 L220.385536,4.29962351 C220.143966,4.04837063 219.878887,3.85876053 219.590301,3.73079322 C219.301714,3.60282591 218.988808,3.53884226 218.651583,3.53884226 C217.972269,3.53884226 217.351321,3.72299034 216.78955,4.0905062 C216.226968,4.45880236 215.825702,4.94492207 215.584943,5.54808505 C215.274469,6.32525236 215.679788,7.02517111 216.800088,7.64706101 L216.846294,7.67437111 C217.422657,7.98960764 217.766367,8.24320139 217.874993,8.43515236 C217.983618,8.62710332 217.981997,8.86275043 217.87094,9.1420937 C217.741238,9.4666937 217.512638,9.73979466 217.18433,9.96139659 C216.856022,10.1829985 216.513933,10.2937995 216.157253,10.2937995 C215.687083,10.2937995 215.33932,10.1244769 215.113152,9.78661197 C214.886985,9.44796678 214.824566,8.99071774 214.925895,8.41486486 L214.698917,8.36024466 L213.664544,9.73823409 C213.962048,10.0402057 214.289545,10.2696105 214.647036,10.4272288 L214.647036,10.4272288 Z"/>
</svg>
