<svg width="59" height="11" viewBox="0 0 59 11" xmlns="http://www.w3.org/2000/svg">
  <path fill="#140D00" fill-rule="evenodd" d="M7.34534233,8.66845861 C6.74709221,8.94702159 6.151274,9.08669322 5.5578877,9.08669322 C4.64105724,9.08669322 4.09387725,8.63880764 3.91715838,7.7422562 C3.74043951,6.84648505 3.96417532,5.61440957 4.5899871,4.04602976 C5.00503326,3.00356438 5.51735585,2.18192063 6.12533362,1.58109851 C6.73250075,0.979496106 7.35506998,0.679085048 7.99142004,0.679085048 C8.58967016,0.679085048 9.03714179,0.897565817 9.33383494,1.33374707 C9.62971745,1.77070861 9.72375135,2.36138697 9.61674726,3.10656245 L9.96532118,3.16118264 L11.5241762,1.11058457 C11.218566,0.745409567 10.8254071,0.468407163 10.3446993,0.281137933 C9.86399155,0.0938687019 9.30951583,0.000234086539 8.68289341,0.000234086539 C7.90387124,0.000234086539 7.16457028,0.125860529 6.46580117,0.377113413 C5.76703206,0.628366298 5.06988422,1.01929082 4.37435766,1.54988697 C3.78826709,1.99309082 3.2410871,2.5556788 2.73200706,3.23687063 C2.22292701,3.91806245 1.82085105,4.62890524 1.52577917,5.36939899 C1.14802232,6.31588889 0.973735361,7.16640332 1.00291829,7.92094226 C1.03210123,8.6754812 1.26232214,9.30361341 1.69358103,9.80689947 C1.94487851,10.0948259 2.26345886,10.314087 2.64932208,10.4654629 C3.03599594,10.6160586 3.47617184,10.6917466 3.96984978,10.6917466 C4.91505255,10.6917466 5.86592977,10.4217668 6.82167082,9.88258745 C7.7782225,9.34262784 8.63587647,8.59042976 9.39625399,7.62599322 L8.96661637,7.48866245 C8.48347671,7.99663024 7.94359245,8.38989563 7.34534233,8.66845861 L7.34534233,8.66845861 Z M17.4515541,4.27933601 C17.4620923,4.72253986 17.2116055,5.58709947 16.6992829,6.87145428 C16.1885816,8.15190764 15.7500269,9.01724755 15.3828084,9.46747399 C15.0155898,9.91770043 14.5940586,10.1432038 14.1190253,10.1432038 C13.6585834,10.1432038 13.4259306,9.9130187 13.4218774,9.4534288 C13.4170136,8.99383889 13.6666898,8.13318072 14.1700954,6.87145428 C14.6710691,5.61440957 15.1071918,4.75687255 15.4768423,4.29962351 C15.8464928,3.84315476 16.2623495,3.61374995 16.7227914,3.61374995 C17.1978247,3.61374995 17.4410158,3.83613216 17.4515541,4.27933601 L17.4515541,4.27933601 Z M11.7341312,8.44217495 C11.7471013,8.94546101 11.8759926,9.39100572 12.1199944,9.77958938 C12.3121153,10.0721975 12.5561171,10.2930192 12.8536209,10.441274 C13.150314,10.5895288 13.5029411,10.6644365 13.9115022,10.6644365 C14.3151994,10.6644365 14.7286243,10.5895288 15.1509662,10.441274 C15.5733081,10.2930192 15.9997031,10.0721975 16.4301514,9.77958938 C16.9773314,9.39568745 17.4596604,8.95170332 17.8763278,8.44919755 C18.2929953,7.94591149 18.610765,7.41999707 18.829637,6.87145428 C19.2706235,5.76500524 19.320883,4.85674947 18.9796048,4.14590668 C18.6383266,3.43506389 17.9930596,3.07925236 17.042993,3.07925236 C16.0694179,3.07925236 15.0990854,3.44364707 14.1311848,4.17321678 C13.1632842,4.9020062 12.4701896,5.79231534 12.0502796,6.84414418 C11.8265438,7.40673216 11.7203503,7.93888889 11.7341312,8.44217495 L11.7341312,8.44217495 Z M22.5464077,10.4654629 L22.6526012,10.197824 C22.4783142,10.1705139 22.3834697,10.0893639 22.3688782,9.95437399 C22.3534761,9.81938409 22.4531845,9.48464034 22.666382,8.94936245 L24.2471242,4.98549707 C24.6646022,4.8075913 25.0099336,4.67728313 25.2823077,4.59457255 C25.5554923,4.51264226 25.7792281,4.47128697 25.9551364,4.47128697 C26.1877892,4.47128697 26.3174911,4.54229322 26.3442422,4.68430572 C26.3709932,4.82553793 26.2866869,5.14155476 26.0913234,5.63001534 L24.7675531,8.94936245 C24.5543556,9.48464034 24.3865537,9.81938409 24.2641476,9.95437399 C24.1409307,10.0893639 23.9844778,10.1705139 23.7931675,10.197824 L23.6861634,10.4654629 L26.4861036,10.4654629 L26.5931077,10.197824 C26.4228739,10.1705139 26.3304613,10.092485 26.3150592,9.96451774 C26.2996571,9.83655043 26.384774,9.53926053 26.5712205,9.07342832 L28.0092906,5.46615476 C28.4056921,4.47362784 28.573494,3.82754899 28.5151281,3.52869851 C28.4567622,3.22906774 28.1916839,3.07925236 27.7215144,3.07925236 C27.4037447,3.07925236 26.9838348,3.18537159 26.4617845,3.39839034 C25.9397343,3.6106288 25.2782545,3.94771341 24.4765345,4.40964418 L25.0018272,3.09251726 L24.6524427,3.09251726 C24.2803603,3.39448889 23.8750418,3.64808264 23.4372978,3.8540788 C22.9987432,4.06007495 22.5383013,4.20832976 22.0551617,4.29962351 L21.9376193,4.59457255 C22.1451424,4.6585562 22.2586316,4.77403889 22.2805188,4.94102063 C22.3015953,5.10800236 22.2148572,5.43572351 22.0194937,5.92496438 L20.8140764,8.94936245 C20.6000682,9.48464034 20.4322664,9.81938409 20.3098602,9.95437399 C20.1866434,10.0893639 20.0301904,10.1705139 19.8388801,10.197824 L19.731876,10.4654629 L22.5464077,10.4654629 Z M30.0934384,8.99071774 C29.8697025,9.55330572 29.8324132,9.97232063 29.9840024,10.249323 C30.1347809,10.5255451 30.4784909,10.6644365 31.0151327,10.6644365 C31.3855938,10.6644365 31.7763208,10.5567567 32.1873138,10.3421774 C32.5983068,10.1268177 33.0060572,9.81626293 33.410565,9.40895236 L33.1916931,9.1896913 C32.9979508,9.3317038 32.8350128,9.43236101 32.7045002,9.49166293 C32.5739876,9.55096486 32.4564453,9.58061582 32.3518731,9.58061582 C32.162184,9.58061582 32.0503161,9.51507159 32.01708,9.38476341 C31.9830333,9.25445524 32.0284289,9.03441389 32.1524564,8.7230788 L33.8888409,4.36828889 L35.4776894,4.36828889 L35.762223,3.65510524 L34.1733745,3.65510524 L35.4014896,0.576086971 L34.859984,0.576086971 C34.185534,1.42191966 33.5426989,2.11715668 32.9314786,2.66101774 C32.3202583,3.2048788 31.7293039,3.60984851 31.1578048,3.8743663 L30.96082,4.36828889 L31.9368269,4.36828889 L30.0934384,8.99071774 Z M39.8056805,8.89474226 C39.5738383,9.05938313 39.3419961,9.18657014 39.1093433,9.27552303 C38.8766905,9.36447591 38.6602504,9.40895236 38.4608337,9.40895236 C38.1568448,9.40895236 37.9477004,9.31687832 37.8342113,9.13116966 C37.7199114,8.9462413 37.7255859,8.69810957 37.8496134,8.38755476 C38.0117408,7.98024418 38.3254573,7.61116774 38.7899523,7.27954514 C39.2544473,6.94792255 39.9426781,6.61083793 40.8530235,6.2682913 L39.8056805,8.89474226 Z M42.2513724,9.40895236 C42.1759831,9.45498938 42.1030258,9.48776149 42.033311,9.50882928 C41.9635962,9.52911678 41.888207,9.53926053 41.8071433,9.53926053 C41.660418,9.53926053 41.5825968,9.47215572 41.5744905,9.33716582 C41.5663841,9.20217591 41.6263712,8.97511197 41.7536412,8.65441341 L43.1268604,5.21178072 C43.420311,4.4759687 43.4235535,3.93913024 43.1357774,3.60048505 C42.8480012,3.26183986 42.2456979,3.09251726 41.3288675,3.09251726 C40.5595729,3.09251726 39.829189,3.27120332 39.1385262,3.62779514 C38.4478635,3.98438697 38.0076876,4.40028072 37.8179985,4.87625668 C37.7174795,5.12750957 37.7239646,5.33974803 37.8374538,5.51375236 C37.950943,5.68775668 38.1365789,5.7743687 38.3927402,5.7743687 C38.6586291,5.7743687 38.9001989,5.69009755 39.1174497,5.52077495 C39.3347004,5.35145236 39.6022106,5.01124659 39.9199803,4.49859707 C40.1347991,4.1513687 40.3244882,3.91728216 40.4890475,3.79555716 C40.6536068,3.67461245 40.8505916,3.61374995 41.0783806,3.61374995 C41.3775057,3.61374995 41.5550352,3.70426341 41.6117798,3.88529034 C41.6677137,4.06553697 41.6069159,4.37765236 41.4301971,4.8208562 L41.0718955,5.71974851 C40.7184578,5.85629899 40.1688459,6.05527255 39.4238705,6.31588889 C38.6780844,6.57650524 38.1398214,6.78952399 37.8082709,6.95416486 C37.2951376,7.20541774 36.8582043,7.50270764 36.4982815,7.84525428 C36.1383586,8.1885812 35.8813867,8.55219563 35.7281763,8.93609755 C35.5311915,9.43002014 35.5263277,9.84123216 35.7135848,10.1705139 C35.9000313,10.4997956 36.2364457,10.6644365 36.720396,10.6644365 C37.0292487,10.6644365 37.4207864,10.5700216 37.8941984,10.3827524 C38.3684211,10.1954831 38.918033,9.91926101 39.5430341,9.55330572 C39.4344087,9.93252591 39.4311662,10.2126495 39.5324958,10.3928961 C39.6338254,10.573923 39.8437804,10.6644365 40.1615501,10.6644365 C40.456622,10.6644365 40.8003321,10.579385 41.1926804,10.4100625 C41.5858394,10.2415201 41.9935898,10.0011913 42.4167423,9.69063649 L42.2513724,9.40895236 Z M49.2690571,9.21700139 C48.9618256,9.36369563 48.6602687,9.43626245 48.3660074,9.43626245 C47.7296574,9.43626245 47.3600069,9.15457832 47.2578666,8.58964947 C47.1549157,8.02472063 47.3243388,7.18981197 47.7653254,6.08336293 C48.1025504,5.23753024 48.4259946,4.61642063 48.7356579,4.22081438 C49.0453212,3.82598841 49.3598484,3.62779514 49.6776181,3.62779514 C49.9199986,3.62779514 50.0845579,3.69568024 50.1704854,3.82988986 C50.2572236,3.96487976 50.2880278,4.22471582 50.262898,4.60861774 C50.2410108,5.01982976 50.2783001,5.29058986 50.3731447,5.42089803 C50.4687998,5.5512062 50.6447081,5.61675043 50.9008694,5.61675043 C51.1148775,5.61675043 51.3256432,5.54340332 51.5339769,5.39748938 C51.7415,5.25079514 51.8890359,5.06820764 51.9765847,4.8481663 C52.1662738,4.37297063 52.0916952,3.96175861 51.7528489,3.61374995 C51.4140026,3.26652159 50.9008694,3.09251726 50.2118279,3.09251726 C49.2285252,3.09251726 48.2922394,3.45847255 47.40216,4.19038313 C46.5112699,4.92151341 45.8222284,5.89999514 45.3334143,7.12504803 C44.9013448,8.2088687 44.8381151,9.06952688 45.1445359,9.70780284 C45.4509567,10.3452985 46.0759578,10.6644365 47.0211606,10.6644365 C47.6340022,10.6644365 48.2346842,10.4997956 48.8215854,10.1705139 C49.4084866,9.84123216 49.9775538,9.34965043 50.5279763,8.6957687 L50.2612768,8.52410524 C49.907839,8.84012207 49.5770991,9.07108745 49.2690571,9.21700139 L49.2690571,9.21700139 Z M53.4227611,8.99071774 C53.1982147,9.55330572 53.161736,9.97232063 53.3125145,10.249323 C53.4641036,10.5255451 53.8078137,10.6644365 54.3444554,10.6644365 C54.7149166,10.6644365 55.1056436,10.5567567 55.5166366,10.3421774 C55.9276295,10.1268177 56.33538,9.81626293 56.7398878,9.40895236 L56.5210158,9.1896913 C56.3264629,9.3317038 56.1643355,9.43236101 56.033823,9.49166293 C55.9033104,9.55096486 55.7857681,9.58061582 55.6811959,9.58061582 C55.4915068,9.58061582 55.3796389,9.51507159 55.3464028,9.38476341 C55.312356,9.25445524 55.3577517,9.03441389 55.4817792,8.7230788 L57.2181637,4.36828889 L58.8070122,4.36828889 L59.0915458,3.65510524 L57.5026973,3.65510524 L58.7308123,0.576086971 L58.1893068,0.576086971 C57.5148568,1.42191966 56.8720217,2.11715668 56.2608013,2.66101774 C55.649581,3.2048788 55.057816,3.60984851 54.4871275,3.8743663 L54.2901428,4.36828889 L55.2661497,4.36828889 L53.4227611,8.99071774 Z" transform="translate(-1)"/>
</svg>
