<svg width="111" height="33" viewBox="0 0 111 33" xmlns="http://www.w3.org/2000/svg">
  <path fill="#140D00" fill-rule="evenodd" d="M7.50208871,24.9847551 L7.73797581,24.3716207 C7.34676613,24.2244975 7.12975,23.9838821 7.08547581,23.6476003 C7.04192742,23.3127681 7.16676613,22.7619618 7.46144355,21.9966309 L11.0164435,12.748158 L11.9912016,12.748158 C13.4420887,12.748158 14.4429758,12.9322432 14.9938629,13.2989643 C15.54475,13.6664101 15.8307177,14.2954889 15.8510403,15.1862007 L16.3946694,15.1862007 L19.0191855,8.3605508 L18.4748306,8.3605508 C17.9116048,9.20995212 17.1560403,9.83105872 16.2081371,10.2238706 C15.2595081,10.6174072 14.0423306,10.8138131 12.5573306,10.8138131 L11.7596694,10.8138131 L13.718621,5.71812997 C14.0778952,4.78465821 14.4887016,4.17152381 14.9517661,3.87800203 C15.4141048,3.58448024 16.1566048,3.43735697 17.1778145,3.43735697 C18.3928145,3.43735697 19.3443468,3.6946415 20.0331371,4.20848582 C20.7212016,4.72233013 21.1334597,5.48186305 21.2699113,6.48853407 L21.8991855,6.26893629 L23.2876532,1.50301216 L9.92192742,1.50301216 L9.69837903,2.08498252 C10.0888629,2.23210578 10.3095081,2.47562015 10.3603145,2.81625038 C10.4103952,3.1568806 10.2906371,3.70478793 10.0003145,4.45997238 L3.25902419,21.9966309 C2.96870161,22.7510906 2.66749194,23.2997227 2.35539516,23.6403529 C2.04257258,23.9809831 1.63466935,24.2244975 1.13095968,24.3716207 L0.895072581,24.9847551 L7.50208871,24.9847551 Z M22.2780565,21.3827717 C21.8374919,21.7603639 21.4027339,22.0517115 20.9737823,22.2560896 C20.5448306,22.4604678 20.153621,22.5626568 19.7994274,22.5626568 C19.2594274,22.5626568 18.9037823,22.3503065 18.7339435,21.9256058 C18.5641048,21.5009052 18.6156371,20.932705 18.8899919,20.2195558 C19.2485403,19.286084 19.8698306,18.4395817 20.7524113,17.679324 C21.6349919,16.9190663 22.9160403,16.1457632 24.593379,15.3594148 L22.2780565,21.3827717 Z M26.5327339,22.5626568 C26.3912016,22.6677449 26.2562016,22.7438431 26.1284597,22.7909516 C26.0007177,22.83806 25.8649919,22.8612518 25.7220081,22.8612518 C25.4599919,22.8612518 25.3337016,22.7068811 25.3431371,22.3974149 C25.3525726,22.0886735 25.4977339,21.566857 25.7800726,20.8326902 L28.8153952,12.9373164 C29.4642661,11.249385 29.56225,10.0173182 29.1100726,9.24111616 C28.6571694,8.46563885 27.6163629,8.07717545 25.9876532,8.07717545 C24.6209597,8.07717545 23.2927339,8.48593171 22.0037016,9.30416899 C20.7146694,10.1216815 19.861121,11.0761709 19.4416048,12.1661876 C19.2202339,12.7430847 19.1948306,13.2308382 19.3668468,13.6294481 C19.5381371,14.0280579 19.8524113,14.2266381 20.3074919,14.2266381 C20.7799919,14.2266381 21.2241855,14.0331311 21.638621,13.6446677 C22.0537823,13.2569291 22.5879758,12.4756538 23.2419274,11.3015666 C23.6832177,10.5050717 24.0606371,9.96731081 24.3749113,9.68973341 C24.6877339,9.41143128 25.0477339,9.27228021 25.4527339,9.27228021 C25.9840242,9.27228021 26.2837823,9.47955732 26.3527339,9.89411155 C26.4216855,10.307941 26.2598306,11.0239892 25.8693468,12.0408067 L25.0774919,14.1012572 C24.4249919,14.4157966 23.4139435,14.8716613 22.0450726,15.469576 C20.6762016,16.066766 19.6825726,16.5545195 19.0656371,16.9321117 C18.10975,17.5090089 17.2823306,18.1902693 16.583379,18.9766178 C15.8844274,19.7629663 15.3654758,20.5964232 15.02725,21.4777133 C14.5917661,22.6097653 14.5112016,23.5533835 14.7870081,24.3085679 C15.0613629,25.0637524 15.6296694,25.4406198 16.4904758,25.4406198 C17.0384597,25.4406198 17.7504758,25.2260953 18.6243468,24.7963214 C19.4982177,24.3665475 20.5223306,23.7316708 21.6974113,22.8931406 C21.4382984,23.7635596 21.3838629,24.4056838 21.5326532,24.8195132 C21.6814435,25.2333427 22.0385403,25.4406198 22.6039435,25.4406198 C23.1265242,25.4406198 23.7521694,25.2463881 24.4794274,24.8586495 C25.2059597,24.4709108 25.9724113,23.9208293 26.7787823,23.20768 L26.5327339,22.5626568 Z M36.4414435,22.1220118 C35.8695081,22.4582935 35.32225,22.6257097 34.7989435,22.6257097 C33.6681371,22.6257097 33.0606371,21.9785122 32.9764435,20.6833927 C32.8915242,19.3882731 33.3371694,17.4720469 34.3126532,14.9347141 C35.0580565,12.9952961 35.7403145,11.5718966 36.3594274,10.6645156 C36.9778145,9.75785946 37.5700726,9.30416899 38.1354758,9.30416899 C38.565879,9.30416899 38.8460403,9.45853971 38.9759597,9.76800589 C39.105879,10.0774721 39.1153145,10.6724878 39.0049919,11.5530532 C38.8953952,12.4966714 38.9135403,13.117778 39.0601532,13.4170977 C39.2067661,13.7156927 39.5079758,13.8649902 39.9637823,13.8649902 C40.343379,13.8649902 40.7309597,13.6975741 41.1257984,13.3620171 C41.5206371,13.0264601 41.8145887,12.6068327 42.0076532,12.1038595 C42.4271694,11.0131181 42.3662016,10.0694999 41.8240242,9.27228021 C41.2825726,8.47578528 40.3999919,8.07717545 39.1762823,8.07717545 C37.4299919,8.07717545 35.7025726,8.91643034 33.9940242,10.5934906 C32.2862016,12.2712757 30.8919274,14.5150866 29.8119274,17.3249236 C28.8567661,19.8100747 28.5954758,21.7842805 29.0287823,23.2468163 C29.4620887,24.709352 30.5181371,25.4406198 32.1976532,25.4406198 C33.2863629,25.4406198 34.380879,25.0637524 35.4812016,24.3085679 C36.5807984,23.5533835 37.6767661,22.4264047 38.7676532,20.926907 L38.3241855,20.5340951 C37.6412016,21.2573908 37.013379,21.7871795 36.4414435,22.1220118 L36.4414435,22.1220118 Z M48.3062016,10.6014628 C49.0262016,9.69480663 49.7578145,9.24111616 50.5003145,9.24111616 C51.1999919,9.24111616 51.6231371,9.57449893 51.7675726,10.239815 C51.9127339,10.9058558 51.7595887,11.8262821 51.3081371,13.0003693 C51.0337823,13.7135185 50.7434597,14.1773554 50.4371694,14.39188 C50.130879,14.6071293 49.4841855,14.7143916 48.4970887,14.7143916 L46.1687016,14.7143916 C46.8734597,12.8800616 47.5862016,11.5088437 48.3062016,10.6014628 L48.3062016,10.6014628 Z M49.2381371,21.9574946 C48.5370081,22.2981249 47.8496694,22.46844 47.1746694,22.46844 C45.9342661,22.46844 45.180879,21.9314038 44.9145081,20.855882 C44.6488629,19.7818097 44.8854758,18.2272313 45.6250726,16.1928717 L53.3207984,16.1928717 C54.2338629,13.7287382 54.4784597,11.7603303 54.0531371,10.2869234 C53.6278145,8.81424127 52.6095081,8.07717545 50.9982177,8.07717545 C49.3441048,8.07717545 47.6355565,8.90555916 45.8725726,10.5623266 C44.1088629,12.219094 42.7494274,14.2896909 41.7942661,16.774842 C40.8028145,19.35421 40.5603952,21.4436503 41.0684597,23.0424381 C41.5757984,24.6412259 42.7327339,25.4406198 44.5385403,25.4406198 C45.6265242,25.4406198 46.7812823,25.0557802 48.0013629,24.2846513 C49.2214435,23.5142472 50.4843468,22.3742231 51.7907984,20.8638542 L51.4845081,20.3768255 C50.6875726,21.0899747 49.9385403,21.6168644 49.2381371,21.9574946 L49.2381371,21.9574946 Z M61.0078145,11.8364286 C61.4353145,11.4697075 61.82725,11.1964786 62.1828952,11.0181913 C62.5378145,10.839904 62.8716855,10.7507603 63.1837823,10.7507603 C64.0191855,10.7507603 64.4263629,11.317511 64.4045887,12.449563 C64.3820887,13.5823396 63.9320887,15.2912887 63.0538629,17.5771349 C62.1103145,20.0303973 61.2785403,21.7502175 60.5578145,22.7358709 C59.8370887,23.7215243 59.0757177,24.214351 58.2744274,24.214351 C57.6415242,24.214351 57.2612016,23.9128571 57.1349113,23.3098691 C57.0078952,22.7068811 57.1501532,21.8705252 57.5609597,20.8008014 L61.0078145,11.8364286 Z M52.7916855,23.3649497 C52.9716855,23.3127681 53.1132177,23.2729071 53.2162823,23.2468163 C53.3193468,23.2207254 53.3962823,23.20768 53.4463629,23.20768 C53.6488629,23.20768 54.0016048,23.4642398 54.5045887,23.9780841 C54.5132984,23.9780841 54.5191048,23.9838821 54.5241855,23.9940285 C55.0859597,24.5288904 55.5918468,24.9035837 56.041121,25.1181082 C56.4896694,25.3333576 56.9716048,25.4406198 57.4862016,25.4406198 C59.2157984,25.4406198 61.0201532,24.512946 62.8978145,22.6568737 C64.7754758,20.8008014 66.2612016,18.4526271 67.3535403,15.6109013 C68.2477339,13.2830199 68.5939435,11.4457909 68.3899919,10.0984897 C68.1867661,8.75118844 67.4689435,8.07717545 66.23725,8.07717545 C65.5448306,8.07717545 64.8132177,8.27358138 64.0424113,8.667118 C63.270879,9.05992988 62.4325726,9.66581682 61.5274919,10.4833294 L65.17975,0.984094627 L64.5591855,0.984094627 C63.833379,1.68637268 63.068379,2.27124202 62.2649113,2.7379779 C61.4614435,3.20398903 60.6267661,3.54244502 59.7616048,3.75189637 L59.5010403,4.4280836 C59.8414435,4.57520686 60.0178145,4.83466563 60.030879,5.20718464 C60.0439435,5.5789789 59.8291048,6.34213555 59.3856371,7.49520509 L54.2824919,20.7696373 C54.0974113,21.2523176 53.88475,21.6560006 53.6459597,21.9806865 C53.4071694,22.3060971 53.1146694,22.5887477 52.7691855,22.8300878 L52.7916855,23.3649497 Z M78.5628952,10.7978688 C78.5055565,11.815411 77.9103952,13.7968642 76.7774113,16.743678 C75.6487823,19.6796206 74.71975,21.6639728 73.9895887,22.6960099 C73.2587016,23.7294965 72.4719274,24.2455151 71.6278145,24.2455151 C70.8098306,24.2455151 70.4360403,23.7186254 70.5078952,22.6648459 C70.57975,21.6110664 71.1720081,19.6375854 72.2846694,16.743678 C73.3929758,13.859917 74.3154758,11.8936834 75.0514435,10.8457019 C75.7881371,9.7969957 76.5654758,9.27228021 77.3841855,9.27228021 C78.2275726,9.27228021 78.6209597,9.7810513 78.5628952,10.7978688 L78.5628952,10.7978688 Z M67.6852339,20.3449367 C67.6213629,21.4987309 67.7723306,22.5206216 68.1388629,23.4120582 C68.4291855,24.0831722 68.8254758,24.5890443 69.3270081,24.9296745 C69.8292661,25.2703047 70.4425726,25.4406198 71.168379,25.4406198 C71.8854758,25.4406198 72.6330565,25.2703047 73.4089435,24.9296745 C74.1855565,24.5890443 74.9810403,24.0831722 75.796121,23.4120582 C76.83475,22.5314928 77.7681371,21.5139506 78.5955565,20.3608811 C79.4229758,19.2078115 80.078379,18.0018356 80.5624919,16.743678 C81.53725,14.2063452 81.7840242,12.1219782 81.3013629,10.4913016 C80.8179758,8.8613497 79.7328952,8.04601141 78.0453952,8.04601141 C76.3157984,8.04601141 74.5281371,8.88236731 72.6831371,10.5543544 C70.8374113,12.2270662 69.451121,14.2686733 68.5242661,16.6806252 C68.0285403,17.9699468 67.748379,19.1918671 67.6852339,20.3449367 L67.6852339,20.3449367 Z M92.0679758,10.7978688 C92.0106371,11.815411 91.4154758,13.7968642 90.2824919,16.743678 C89.1538629,19.6796206 88.2241048,21.6639728 87.4939435,22.6960099 C86.7637823,23.7294965 85.9770081,24.2455151 85.1328952,24.2455151 C84.3141855,24.2455151 83.941121,23.7186254 84.0129758,22.6648459 C84.0848306,21.6110664 84.6770887,19.6375854 85.78975,16.743678 C86.8980565,13.859917 87.8205565,11.8936834 88.5565242,10.8457019 C89.2932177,9.7969957 90.0705565,9.27228021 90.8892661,9.27228021 C91.7326532,9.27228021 92.1260403,9.7810513 92.0679758,10.7978688 L92.0679758,10.7978688 Z M81.1903145,20.3449367 C81.1264435,21.4987309 81.2774113,22.5206216 81.6439435,23.4120582 C81.9342661,24.0831722 82.3305565,24.5890443 82.8320887,24.9296745 C83.3343468,25.2703047 83.9476532,25.4406198 84.6734597,25.4406198 C85.3905565,25.4406198 86.1374113,25.2703047 86.9140242,24.9296745 C87.6906371,24.5890443 88.486121,24.0831722 89.3012016,23.4120582 C90.3398306,22.5314928 91.2732177,21.5139506 92.1006371,20.3608811 C92.9280565,19.2078115 93.5834597,18.0018356 94.0668468,16.743678 C95.0423306,14.2063452 95.2891048,12.1219782 94.8064435,10.4913016 C94.3230565,8.8613497 93.2379758,8.04601141 91.5504758,8.04601141 C89.820879,8.04601141 88.0332177,8.88236731 86.1874919,10.5543544 C84.3424919,12.2270662 82.9562016,14.2686733 82.0293468,16.6806252 C81.533621,17.9699468 81.2534597,19.1918671 81.1903145,20.3449367 L81.1903145,20.3449367 Z M97.4549113,24.9847551 L97.6907984,24.3716207 C97.3859597,24.3085679 97.2320887,24.1223084 97.2284597,23.8128422 C97.2248306,23.5041008 97.4592661,22.7358709 97.9310403,21.5088774 L98.9587823,18.8352925 L100.782008,17.1205455 L100.841524,21.5088774 C100.847331,22.0647569 100.837169,22.5256948 100.809589,22.8931406 C100.782734,23.2598617 100.737008,23.5272926 100.672411,23.6954335 C100.60346,23.8737208 100.499669,24.0172204 100.360315,24.1273816 C100.22096,24.2375429 100.048218,24.3187143 99.8428145,24.3716207 L99.6069274,24.9847551 L105.074427,24.9847551 L105.310315,24.3716207 C105.066444,24.1933334 104.887169,23.9469201 104.771766,23.6323807 C104.656363,23.3178413 104.584508,22.8250146 104.555476,22.1539006 L104.27096,14.0693684 L107.815798,10.90803 C108.675153,10.1426991 109.281927,9.64987243 109.636847,9.4295499 C109.991766,9.20995212 110.308218,9.09979086 110.586202,9.09979086 L110.713218,9.09979086 L110.949105,8.48593171 L106.126847,8.48593171 L105.89096,9.09979086 C106.094185,9.14182608 106.229185,9.26213377 106.29596,9.46143869 C106.362734,9.66074361 106.339508,9.90715696 106.227008,10.2006787 C106.113782,10.4942005 105.856847,10.8667195 105.456202,11.317511 C105.054831,11.7683025 104.358056,12.449563 103.366605,13.3620171 L99.810879,16.6175723 L105.821282,0.984094627 L105.200718,0.984094627 C104.483621,1.68637268 103.718621,2.27124202 102.906444,2.7379779 C102.094266,3.20398903 101.251605,3.54244502 100.377734,3.75189637 L100.117895,4.4280836 C100.474266,4.57520686 100.657169,4.83973885 100.666605,5.22240429 C100.675315,5.60579447 100.462653,6.36315316 100.027169,7.49520509 L94.6402339,21.5088774 C94.1684597,22.7358709 93.8120887,23.5041008 93.5703952,23.8128422 C93.3294274,24.1223084 93.0362016,24.3085679 92.6914435,24.3716207 L92.4555565,24.9847551 L97.4549113,24.9847551 Z"/>
</svg>
