<svg xmlns="http://www.w3.org/2000/svg" xmlns:xlink="http://www.w3.org/1999/xlink" width="85" height="23" viewBox="0 0 85 23">
  <defs>
    <path id="heart-to-a" d="M4.60219974,21.7534 L0,21.7534 L0.217555698,21.1975667 C0.534921895,21.1400667 0.804722151,20.9721667 1.0261767,20.6915667 C1.24841101,20.4109667 1.57669398,19.7148333 2.01102561,18.6031667 L6.96958003,5.9018 C7.37038156,4.87523333 7.56688348,4.18906667 7.55830602,3.84176667 C7.54972855,3.49523333 7.38129834,3.25526667 7.05301536,3.12186667 L7.29240461,2.50853333 C8.09634699,2.31916667 8.87299744,2.0125 9.62001665,1.5893 C10.3678156,1.16686667 11.0719475,0.6371 11.7324123,0 L12.3032036,0 L8.75759155,9.0804 C10.1806709,8.10213333 11.2895032,7.4152 12.0848681,7.02036667 C12.8794533,6.6263 13.5329001,6.42926667 14.0459885,6.42926667 C14.7602574,6.42926667 15.1930294,6.7022 15.3450845,7.24883333 C15.4971396,7.79546667 15.3645787,8.60046667 14.9489616,9.6646 L11.3596825,18.8592333 C10.9814942,19.8290667 10.7943496,20.447 10.7990282,20.7130333 C10.8037068,20.9790667 10.9425058,21.1400667 11.2154251,21.1975667 L10.9986492,21.7534 L6.40814597,21.7534 L6.62570166,21.1975667 C6.94306786,21.1400667 7.20740973,20.9790667 7.42028681,20.7130333 C7.63316389,20.447 7.92869654,19.8290667 8.30688476,18.8592333 L8.40747503,18.6031667 L10.8731063,12.2881333 C11.2957414,11.2048333 11.4961421,10.4228333 11.4735288,9.9429 C11.4516953,9.46296667 11.2029488,9.223 10.7296287,9.223 C10.5198707,9.223 10.2383739,9.2828 9.88513828,9.40163333 C9.53190269,9.52046667 9.03362996,9.7267 8.3903201,10.0211 L5.04043022,18.6031667 C4.60609859,19.7148333 4.39010243,20.4109667 4.39400128,20.6915667 C4.39634059,20.9721667 4.53903841,21.1400667 4.81975544,21.1975667 L4.60219974,21.7534 Z M22.0838528,19.0095 C22.7287222,18.7005333 23.4180384,18.2229 24.1518015,17.5766 L24.4340781,18.0182 C23.2316735,19.3867 22.0690371,20.4201667 20.9453892,21.1193667 C19.8225211,21.8178 18.7596953,22.1666333 17.7576914,22.1666333 C16.0952228,22.1666333 15.0308374,21.4421333 14.5637554,19.9931333 C14.0966735,18.5441333 14.3196876,16.6497 15.2320179,14.3121333 C16.111598,12.0596667 17.3623483,10.1828667 18.9858284,8.68173333 C20.6093086,7.17983333 22.1821037,6.42926667 23.7042138,6.42926667 C25.1873355,6.42926667 26.1246184,7.09703333 26.5168425,8.4318 C26.907507,9.76733333 26.6829334,11.5513667 25.8423419,13.7846667 L18.7581357,13.7846667 C18.0773969,15.6285 17.8590615,17.0376333 18.1046889,18.0113 C18.3495365,18.9857333 19.0427516,19.4725667 20.1843342,19.4725667 C20.8058105,19.4725667 21.4389834,19.3184667 22.0838528,19.0095 Z M36.2990512,19.5584333 L36.5251844,20.1426333 C35.7836236,20.7889333 35.0779321,21.2880333 34.4088899,21.6391667 C33.7398476,21.9910667 33.1643777,22.1666333 32.6824802,22.1666333 C32.1623739,22.1666333 31.8333111,21.9788 31.6968515,21.6039 C31.559612,21.2282333 31.6102971,20.6463333 31.8481268,19.8574333 C30.7665864,20.6179667 29.8238451,21.1929667 29.0191229,21.5824333 C28.2151805,21.9719 27.5601741,22.1666333 27.0556633,22.1666333 C26.2626376,22.1666333 25.7401921,21.8247 25.486767,21.1400667 C25.2333419,20.4562 25.30742,19.6006 25.7082215,18.5748 C26.0201293,17.7759333 26.4973483,17.0207667 27.1406581,16.3077667 C27.783968,15.5947667 28.5458028,14.9776 29.4253828,14.4547333 C29.9938348,14.1128 30.9085045,13.6704333 32.168612,13.1291667 C33.4287196,12.5871333 34.3589846,12.1739 34.9594072,11.8887 L35.6884917,10.0211 C36.0487452,9.09956667 36.1969014,8.45096667 36.1337401,8.0753 C36.0705787,7.7004 35.7945403,7.51256667 35.3048451,7.51256667 C34.9321152,7.51256667 34.601493,7.6383 34.3129782,7.89053333 C34.0236837,8.142 33.6766863,8.6296 33.2704264,9.35103333 C32.6684443,10.4159333 32.1764097,11.1235667 31.7943227,11.4754667 C31.4122356,11.8273667 31.0044161,12.0029333 30.5693047,12.0029333 C30.1497887,12.0029333 29.8604942,11.8227667 29.7029808,11.4609 C29.5446876,11.0998 29.5680807,10.6582 29.7716005,10.1353333 C30.1575864,9.1471 30.9443739,8.2823 32.1304033,7.54093333 C33.3172125,6.79956667 34.5391114,6.42926667 35.7976594,6.42926667 C37.2963764,6.42926667 38.2547132,6.7804 38.6718899,7.4842 C39.0882868,8.18723333 38.9978335,9.30426667 38.4005301,10.8337667 L35.6066159,17.9898333 C35.3469526,18.6553 35.2128323,19.1283333 35.2042548,19.4081667 C35.1956773,19.6887667 35.311863,19.8290667 35.5528118,19.8290667 C35.6845928,19.8290667 35.809356,19.8076 35.9271012,19.7646667 C36.0448464,19.7217333 36.1688297,19.6535 36.2990512,19.5584333 Z M41.6170794,21.7534 L36.8753009,21.7534 L37.0920768,21.1975667 C37.4172407,21.1400667 37.6893803,20.9721667 37.9077157,20.6915667 C38.1252714,20.4109667 38.4519949,19.7148333 38.8855467,18.6031667 L41.3402612,12.3165 C41.7371639,11.2999 41.9313265,10.6175667 41.9235288,10.2710333 C41.9149513,9.92373333 41.7465211,9.68376667 41.4182382,9.55113333 L41.6576274,8.9378 C42.4615698,8.74766667 43.2382202,8.4387 43.9883585,8.01166667 C44.737717,7.58386667 45.4402894,7.0564 46.0968553,6.42926667 L46.8430948,6.42926667 L45.7241255,9.2943 C46.72379,8.32523333 47.5737388,7.60533333 48.2739718,7.1346 C48.9742049,6.66463333 49.5457759,6.42926667 49.988685,6.42926667 C50.4931959,6.42926667 50.837854,6.6355 51.0218796,7.0495 C51.2059052,7.46273333 51.1801729,7.97333333 50.9423431,8.5813 C50.678781,9.25673333 50.2959142,9.81026667 49.7929629,10.2426667 C49.2900115,10.6750667 48.7823816,10.8912667 48.270073,10.8912667 C48.0447196,10.8912667 47.7772586,10.7647667 47.4676901,10.5133 C47.1581216,10.2618333 46.8867618,10.1353333 46.6543905,10.1353333 C46.1880883,10.1353333 45.7818284,10.3400333 45.4363905,10.7486667 C45.0901729,11.1573 44.6737759,11.9837667 44.1879795,13.2288333 L41.9898092,18.8592333 C41.6108412,19.8290667 41.4244763,20.447 41.4291549,20.7130333 C41.4338335,20.9790667 41.5687337,21.1400667 41.8338553,21.1975667 L41.6170794,21.7534 Z M49.1402958,18.6882667 L52.8909872,9.0804 L51.2955787,9.0804 L51.6956005,8.05383333 C52.671872,7.50336667 53.703507,6.66233333 54.789726,5.53073333 C55.8759449,4.3999 57.0378015,2.9555 58.2760755,1.19753333 L59.161114,1.19753333 L56.6627324,7.59766667 L59.2609245,7.59766667 L58.6815557,9.0804 L56.0833636,9.0804 L52.5494481,18.1324333 C52.2968028,18.7787333 52.1884149,19.2372 52.2219449,19.5078333 C52.2562548,19.7792333 52.4285839,19.9141667 52.7389321,19.9141667 C52.9097017,19.9141667 53.1069834,19.8528333 53.3299974,19.7294 C53.5530115,19.6059667 53.8345083,19.3966667 54.1752676,19.1022667 L54.4980922,19.5584333 C53.771347,20.4040667 53.0547388,21.0503667 52.3490474,21.4965667 C51.6425762,21.9435333 50.9860102,22.1666333 50.3801293,22.1666333 C49.5021088,22.1666333 48.9625083,21.8791333 48.7597682,21.3041333 C48.5570282,20.7291333 48.6833508,19.8574333 49.1402958,18.6882667 Z M64.053388,18.6882667 L67.8040794,9.0804 L66.2086709,9.0804 L66.6086927,8.05383333 C67.5849641,7.50336667 68.6165992,6.66233333 69.7028182,5.53073333 C70.7890371,4.3999 71.9508937,2.9555 73.1891677,1.19753333 L74.0742061,1.19753333 L71.5758246,7.59766667 L74.1740166,7.59766667 L73.5946479,9.0804 L70.9964558,9.0804 L67.4625403,18.1324333 C67.209895,18.7787333 67.101507,19.2372 67.1350371,19.5078333 C67.169347,19.7792333 67.3416761,19.9141667 67.6520243,19.9141667 C67.8227939,19.9141667 68.0200755,19.8528333 68.2430896,19.7294 C68.4661037,19.6059667 68.7476005,19.3966667 69.0883598,19.1022667 L69.4111844,19.5584333 C68.6844392,20.4040667 67.967831,21.0503667 67.2621396,21.4965667 C66.5556684,21.9435333 65.8991024,22.1666333 65.2932215,22.1666333 C64.415201,22.1666333 63.8756005,21.8791333 63.6728604,21.3041333 C63.4701204,20.7291333 63.596443,19.8574333 64.053388,18.6882667 Z M71.8152138,17.5482333 C71.8736965,16.5025 72.1310205,15.3954333 72.5879654,14.2262667 C73.4410333,12.0412667 74.7167362,10.1905333 76.415854,8.67406667 C78.1141921,7.15836667 79.7595058,6.4009 81.3517951,6.4009 C82.9058758,6.4009 83.9039808,7.1392 84.3492292,8.61733333 C84.7929181,10.0954667 84.5667849,11.9837667 83.6684904,14.2837667 C83.223242,15.4238 82.6197004,16.5170667 81.8586453,17.5620333 C81.0968105,18.6077667 80.2375045,19.5293 79.281507,20.3281667 C78.5313688,20.9361333 77.7991652,21.3946 77.0841165,21.7035667 C76.3698476,22.0125333 75.6820909,22.1666333 75.0216261,22.1666333 C74.3533636,22.1666333 73.7888105,22.0125333 73.3271869,21.7035667 C72.8647836,21.3946 72.4998515,20.9361333 72.2331703,20.3281667 C71.8955301,19.5201 71.7567311,18.5939667 71.8152138,17.5482333 Z M21.2261063,8.717 C20.5633022,9.53886667 19.907516,10.7816333 19.2587478,12.4445333 L21.4023342,12.4445333 C22.3107657,12.4445333 22.9065096,12.3471667 23.1880064,12.1524333 C23.4695032,11.9577 23.7369641,11.5375667 23.9896095,10.8912667 C24.4052266,9.82636667 24.5455851,8.993 24.4130243,8.38886667 C24.2796837,7.7855 23.8905787,7.4842 23.2457093,7.4842 C22.5618515,7.4842 21.8889104,7.89513333 21.2261063,8.717 Z M32.3822689,18.4889333 L34.5141588,13.0295 C32.9702151,13.7417333 31.7912036,14.4432333 30.9786837,15.1317 C30.1661639,15.8209333 29.5945928,16.5883667 29.2639706,17.434 C29.012105,18.0803 28.9637593,18.5955 29.120493,18.9811333 C29.2772266,19.366 29.6039501,19.5584333 30.1006633,19.5584333 C30.4273867,19.5584333 30.7876402,19.4656667 31.1822036,19.2801333 C31.576767,19.0946 31.9767887,18.8308667 32.3822689,18.4889333 Z M81.8282343,8.89486667 C81.8812586,7.97333333 81.5194456,7.51256667 80.7435749,7.51256667 C79.9895378,7.51256667 79.2737093,7.9879 78.5960896,8.9378 C77.9184699,9.88846667 77.0693009,11.6702 76.0493624,14.2837667 C75.0247452,16.9065333 74.4796863,18.6959333 74.4134059,19.6504333 C74.3479052,20.6057 74.6910038,21.0833333 75.445041,21.0833333 C76.2216914,21.0833333 76.9460973,20.6156667 77.6182586,19.6795667 C78.29042,18.7434667 79.1458271,16.9448667 80.1852599,14.2837667 C81.2278118,11.6134667 81.77521,9.81716667 81.8282343,8.89486667 Z"/>
  </defs>
  <g fill="none" fill-rule="evenodd">
    <use fill="#FFF" xlink:href="#heart-to-a"/>
    <path stroke="#000" stroke-width=".4" d="M4.46570659,21.5534 L0.29305498,21.5534 L0.364949094,21.3697176 C0.684261434,21.2863253 0.958571637,21.1000578 1.18317278,20.8154708 C1.42208065,20.5138187 1.75542901,19.8069441 2.19731215,18.6759494 L7.15588599,5.97453298 C7.5671425,4.92118816 7.76770261,4.21976357 7.75824505,3.83682866 C7.74935935,3.47784264 7.59371303,3.20114766 7.3054306,3.0252227 L7.44080039,2.67839508 C8.22702042,2.48310824 8.98709979,2.1777235 9.71859961,1.76331552 C10.4590819,1.34501558 11.1572457,0.823757357 11.8127564,0.2 L12.0104039,0.2 L8.57129021,9.00765516 L8.33457315,9.61389341 L8.87088942,9.24521381 C10.2891428,8.27026468 11.3898633,7.5886668 12.1737971,7.19950805 C12.9432873,6.81788699 13.5690197,6.62926667 14.0459885,6.62926667 C14.6766638,6.62926667 15.0265428,6.84997793 15.1524003,7.30243163 C15.2900711,7.7973542 15.1643138,8.56347386 14.7626666,9.591839 L11.1733747,18.786505 C10.7839459,19.7851637 10.593736,20.413873 10.5990591,20.7165501 C10.6039787,20.9962885 10.7289382,21.203126 10.9539552,21.3175608 L10.8619775,21.5534 L6.70120095,21.5534 L6.77301876,21.3699126 C7.08994098,21.2881376 7.35903106,21.1096949 7.57644614,20.8379904 C7.80632372,20.5507115 8.10762986,19.9207063 8.49321872,18.9318946 L8.59362715,18.6762925 L11.0594095,12.3608733 C11.4918319,11.2524865 11.6975957,10.4489741 11.6733072,9.93348692 C11.6466665,9.34788061 11.3106911,9.023 10.7296287,9.023 C10.4948109,9.023 10.1941256,9.08667159 9.82136743,9.21207258 C9.45904542,9.33396271 8.95399531,9.54319545 8.30709439,9.83923884 L8.20401039,9.94837661 L4.85412051,18.5304433 C4.40756424,19.6733987 4.18961262,20.3771045 4.19402058,20.6943453 C4.19645145,20.9862162 4.32451204,21.2016361 4.55762818,21.3185494 L4.46570659,21.5534 Z M24.1079198,17.879295 L24.184308,17.9987985 C23.0295096,19.2975919 21.9144111,20.2808246 20.8397244,20.9495581 C19.7470901,21.6291858 18.7197075,21.9666333 17.7576914,21.9666333 C16.1796796,21.9666333 15.1937574,21.2956642 14.7541101,19.9317729 C14.3034632,18.5337584 14.5211371,16.6836323 15.4183305,14.3848494 C16.2874065,12.1592819 17.5214145,10.3081815 19.1216083,8.82857963 C20.7108774,7.35832866 22.2382199,6.62926667 23.7042138,6.62926667 C25.1002276,6.62926667 25.9582503,7.24026184 26.3249556,8.48818638 C26.6939187,9.74953107 26.4901918,11.4494553 25.7034116,13.5846667 L18.7581357,13.5846667 L18.6187798,13.5846667 L18.5705144,13.7153973 C17.876753,15.5945035 17.653244,17.0394107 17.9107644,18.0602214 C18.178946,19.1275184 18.9547495,19.6725667 20.1843342,19.6725667 C20.8372514,19.6725667 21.4997237,19.5111353 22.1702692,19.1898668 C22.7808527,18.8973271 23.4263855,18.4603389 24.1079198,17.879295 Z M36.200764,19.8585593 L36.2878038,20.0834207 C35.5960439,20.6758089 34.9383126,21.1354385 34.3159467,21.4620747 C33.6735193,21.7999759 33.1278475,21.9666333 32.6824802,21.9666333 C32.2402013,21.9666333 31.9896549,21.8235946 31.8847888,21.5354928 C31.7658967,21.2100479 31.8130174,20.6668014 32.0396144,19.9151611 L32.2067522,19.3607518 L31.7330838,19.6938329 C30.6590974,20.4490543 29.7254062,21.0184167 28.9319953,21.4024089 C28.1530609,21.7797606 27.5248686,21.9666333 27.0556633,21.9666333 C26.3441773,21.9666333 25.8978934,21.6746009 25.6743295,21.0706382 C25.4402254,20.4389092 25.5099521,19.6318042 25.8945069,18.6475856 C26.1973278,17.8719927 26.6615216,17.1373646 27.2891501,16.4417447 C27.9178648,15.7449211 28.6637037,15.1401827 29.5275796,14.6266514 C30.088702,14.2891301 30.9977666,13.8497616 32.2475462,13.3129312 C33.5165633,12.7670655 34.4451832,12.3543716 35.0452184,12.0693556 L35.1457137,11.9614314 L35.8747982,10.0938314 C36.2473057,9.14095234 36.4020023,8.46460967 36.3309718,8.04213917 C36.2498897,7.56086849 35.8843566,7.31256667 35.3048451,7.31256667 C34.8831097,7.31256667 34.5058631,7.45624958 34.1813415,7.73996187 C33.8720696,8.00879266 33.514277,8.51040541 33.0961581,9.25289785 C32.5044849,10.299561 32.0219194,10.9939521 31.6588322,11.3283534 C31.3120623,11.6477264 30.9515848,11.8029333 30.5693047,11.8029333 C30.2272473,11.8029333 30.011222,11.667929 29.8863614,11.381078 C29.7517357,11.0739669 29.7719456,10.6858221 29.9579794,10.2078792 C30.326774,9.26366094 31.0841273,8.43080082 32.2364132,7.71052668 C33.3921203,6.98858867 34.5775592,6.62926667 35.7976594,6.62926667 C37.2337688,6.62926667 38.1268457,6.95691275 38.4998434,7.58618038 C38.8771796,8.22326475 38.7913126,9.28329773 38.2142321,10.7610132 L35.4203118,17.9170954 C35.1528625,18.6025163 35.0138315,19.0926706 35.0043487,19.4020391 C34.9925202,19.7889919 35.1913317,20.0290667 35.5528118,20.0290667 C35.7076699,20.0290667 35.8556251,20.0036096 35.9956145,19.9525654 C36.0632824,19.9278917 36.1316537,19.896539 36.200764,19.8585593 Z M41.4804078,21.5534 L37.1679732,21.5534 L37.2393767,21.3703148 C37.5658173,21.2871765 37.8429924,21.1004276 38.0655614,20.8143867 C38.3001632,20.5118013 38.6325048,19.8024278 39.0718775,18.675836 L41.5265629,12.389244 C41.9326596,11.3490951 42.1320921,10.6493384 42.1234782,10.2665341 C42.1145899,9.90663067 41.958991,9.62973829 41.6707527,9.45423504 L41.8060679,9.10754728 C42.591578,8.91157771 43.3519357,8.60410148 44.0873037,8.18547647 C44.8286191,7.76226837 45.5248575,7.2435698 46.176637,6.62926667 L46.55027,6.62926667 L45.5378299,9.2215403 L45.2035177,10.0775206 L45.8633321,9.43790197 C46.8551808,8.47641187 47.6966298,7.76371109 48.3855529,7.30058092 C49.0560758,6.85055447 49.5938954,6.62926667 49.988685,6.62926667 C50.4172295,6.62926667 50.6885575,6.79201522 50.8391215,7.13073713 C50.9991834,7.49015952 50.9756251,7.94723195 50.7560873,8.50843881 C50.5040587,9.15431483 50.1400211,9.68053994 49.662579,10.091009 C49.1937242,10.4940953 48.7307729,10.6912667 48.270073,10.6912667 C48.0996491,10.6912667 47.8716092,10.5837383 47.5937912,10.358063 C47.2514566,10.07998 46.9404502,9.93533333 46.6543905,9.93533333 C46.12682,9.93533333 45.6657595,10.1675393 45.2836527,10.6195498 C44.918892,11.0500689 44.494538,11.8929188 44.0016598,13.1561356 L41.8035042,18.7864978 C41.4146846,19.781543 41.2238472,20.4129848 41.2291859,20.7165501 C41.2340662,20.9940533 41.3548237,21.2004043 41.5731889,21.3155007 L41.4804078,21.5534 Z M51.5881605,8.8804 L51.8561993,8.19253809 C52.832764,7.6311502 53.8584526,6.78972593 54.9340109,5.66923193 C56.0096715,4.54939063 57.1577019,3.12590447 58.3797218,1.39753333 L58.8683429,1.39753333 L56.4764244,7.52493875 L56.3699613,7.79766667 L56.6627324,7.79766667 L58.9680498,7.79766667 L58.5449785,8.8804 L56.0833636,8.8804 L55.9467427,8.8804 L55.897058,9.00766624 L52.3631425,18.0596996 C52.0998495,18.7332377 51.9845479,19.2183307 52.0234625,19.5324243 C52.0710958,19.9092215 52.3320985,20.1141667 52.7389321,20.1141667 C52.9479749,20.1141667 53.1769981,20.042672 53.4268481,19.9043856 C53.6244625,19.7950104 53.8604109,19.6259722 54.1380354,19.3958757 L54.2441478,19.5458175 C53.5647757,20.3196206 52.8968552,20.9135693 52.2421631,21.327523 C51.5658955,21.7553806 50.9449133,21.9666333 50.3801293,21.9666333 C49.5792218,21.9666333 49.1190402,21.7216249 48.948387,21.237628 C48.7652607,20.7182554 48.8857953,19.8888734 49.3265743,18.7610698 L49.3266029,18.7609967 L53.0772943,9.15313004 L53.1837619,8.8804 L52.8909872,8.8804 L51.5881605,8.8804 Z M66.5012527,8.8804 L66.7692915,8.19253809 C67.7458562,7.6311502 68.7715448,6.78972593 69.8471031,5.66923193 C70.9227637,4.54939063 72.0707941,3.12590447 73.292814,1.39753333 L73.781435,1.39753333 L71.3895166,7.52493875 L71.2830535,7.79766667 L71.5758246,7.79766667 L73.881142,7.79766667 L73.4580707,8.8804 L70.9964558,8.8804 L70.8598349,8.8804 L70.8101502,9.00766624 L67.2762347,18.0596996 C67.0129417,18.7332377 66.8976401,19.2183307 66.9365547,19.5324243 C66.984188,19.9092215 67.2451907,20.1141667 67.6520243,20.1141667 C67.8610671,20.1141667 68.0900903,20.042672 68.3399403,19.9043856 C68.5375547,19.7950104 68.7735031,19.6259722 69.0511276,19.3958757 L69.15724,19.5458175 C68.4778679,20.3196206 67.8099474,20.9135693 67.1552553,21.327523 C66.4789877,21.7553806 65.8580055,21.9666333 65.2932215,21.9666333 C64.4923139,21.9666333 64.0321324,21.7216249 63.8614792,21.237628 C63.6783529,20.7182554 63.7988875,19.8888734 64.2396665,18.7610698 L64.2396951,18.7609967 L67.9903865,9.15313004 L68.0968541,8.8804 L67.8040794,8.8804 L66.5012527,8.8804 Z M72.0149018,17.5594009 C72.0721686,16.5354094 72.32487,15.4488651 72.774244,14.2990698 C73.6161072,12.1427688 74.8738311,10.3183975 76.5490277,8.8232805 C78.2133004,7.33798247 79.813932,6.6009 81.3517951,6.6009 C82.8176973,6.6009 83.7379481,7.28143288 84.1577285,8.67501782 C84.5868058,10.1044735 84.365272,11.9499695 83.482195,14.2110066 C83.0432594,15.3348764 82.4480279,16.4130601 81.6969776,17.4442898 C80.9457032,18.4755273 80.0978479,19.3853654 79.1532616,20.1746964 C78.4186013,20.7700896 77.7017686,21.2188124 77.004787,21.5199725 C76.3151305,21.8182927 75.654088,21.9666333 75.0216261,21.9666333 C74.3909565,21.9666333 73.8651907,21.8229918 73.4384303,21.5373592 C73.0090013,21.2504251 72.6682053,20.822052 72.4163247,20.247827 C72.0925817,19.4729401 71.9579908,18.5770298 72.0149018,17.5594009 Z M21.0704244,8.59144855 C20.39288,9.43159296 19.7281461,10.6911221 19.0724258,12.3718412 L18.966037,12.6445333 L19.2587478,12.6445333 L21.4023342,12.6445333 C22.3498578,12.6445333 22.9762937,12.5420834 23.3017895,12.3169125 C23.6237111,12.0942142 23.9102783,11.6435345 24.1758829,10.9640829 C24.6041513,9.86676777 24.7511806,8.99681644 24.6083768,8.34600181 C24.4544304,7.64939268 23.9831129,7.2842 23.2457093,7.2842 C22.4926063,7.2842 21.7678588,7.72664091 21.0704244,8.59144855 Z M32.5685685,18.5616827 L34.7004583,13.1022493 L34.8809487,12.6400421 L34.4303817,12.8478922 C32.8726483,13.5664868 31.6782724,14.2767809 30.8493914,14.9791107 C30.0124777,15.6890365 29.4209335,16.4832872 29.0777012,17.3611732 C28.8086415,18.0515941 28.7561555,18.6158819 28.9352114,19.0564377 C29.1246054,19.5215034 29.5268775,19.7584333 30.1006633,19.7584333 C30.4591813,19.7584333 30.8476552,19.6584539 31.2673091,19.4611224 C31.6784926,19.2677739 32.0929862,18.9944993 32.5112011,18.641827 L32.5685685,18.5616827 Z M82.0279041,8.90635551 C82.0870965,7.87762427 81.6436289,7.31256667 80.7435749,7.31256667 C79.9153163,7.31256667 79.1450849,7.82381916 78.4332716,8.82165229 C77.7430272,9.7900307 76.8879588,11.5847473 75.8630471,14.2110575 C74.8318631,16.8506337 74.2820814,18.6545066 74.2138863,19.6365787 C74.1411063,20.6980073 74.5622806,21.2833333 75.445041,21.2833333 C76.2948993,21.2833333 77.0743901,20.7798983 77.780716,19.7962183 C78.4650623,18.8431487 79.325932,17.0334755 80.3715528,14.3565332 C81.4214104,11.6675209 81.9732296,9.85735799 82.0279046,8.90634599 L82.0279041,8.90635551 Z"/>
  </g>
</svg>
