<svg width="120" height="31" viewBox="0 0 120 31" xmlns="http://www.w3.org/2000/svg">
  <path fill="#140D00" fill-rule="evenodd" d="M7.67570161,23.6348384 L7.91158871,23.021704 C7.52908871,22.8745808 7.31352419,22.6339654 7.26562097,22.2976836 C7.21771774,21.9628514 7.34037903,21.412045 7.63505645,20.6467142 L14.3763468,3.11005567 C14.6746532,2.33385361 14.9758629,1.78087306 15.2799758,1.45038927 C15.5840887,1.12063022 15.9832823,0.882189067 16.4790081,0.7350658 L16.7025565,0.153095442 L9.91844355,0.153095442 L9.69489516,0.7350658 C9.90683065,0.819136238 10.0686855,0.926398521 10.1782823,1.05757739 C10.287879,1.18875627 10.3532016,1.3482002 10.3735242,1.53735869 C10.393121,1.70477482 10.3771532,1.9019055 10.3241694,2.12730124 C10.2711855,2.35269698 10.1623145,2.68028179 9.99683065,3.11005567 L3.25554032,20.6467142 C2.96521774,21.4011739 2.66400806,21.9498059 2.35118548,22.2904362 C2.03908871,22.6310664 1.63118548,22.8745808 1.12747581,23.021704 L0.89158871,23.6348384 L7.67570161,23.6348384 Z M14.5040887,23.6348384 L14.7399758,23.021704 C14.4351371,22.9586512 14.2805403,22.7723917 14.2776371,22.4629255 C14.2740081,22.1541841 14.5084435,21.3859542 14.9794919,20.1589607 L18.47425,11.0684822 C19.2472339,10.6590012 19.8837661,10.3604062 20.3823952,10.1719724 C20.8810242,9.98281396 21.2860242,9.88859709 21.5988468,9.88859709 C22.0118306,9.88859709 22.2302984,10.0516648 22.2527984,10.3763506 C22.2752984,10.7010364 22.0713468,11.4250568 21.6402177,12.5469623 L18.7137661,20.1589607 C18.2419919,21.3859542 17.885621,22.1541841 17.6446532,22.4629255 C17.4029597,22.7723917 17.1097339,22.9586512 16.7649758,23.021704 L16.5290887,23.6348384 L21.5037661,23.6348384 L21.7396532,23.021704 C21.4427984,22.9586512 21.2918306,22.7803639 21.28675,22.4868421 C21.2809435,22.1933203 21.4841694,21.5113351 21.8957016,20.442336 L25.0761855,12.1693701 C25.9507823,9.89439505 26.3615887,8.41301596 26.3093306,7.72595755 C26.2570726,7.03962389 25.812879,6.69609469 24.9774758,6.69609469 C24.4120726,6.69609469 23.6477984,6.93960906 22.6839274,7.42736255 C21.7200565,7.91511604 20.4861855,8.68841912 18.9823145,9.74727179 L20.1436048,6.72725873 L19.5230403,6.72725873 C18.8095726,7.41939035 18.0460242,8.00136071 17.2316694,8.47316981 C16.4173145,8.9449789 15.5732016,9.28560912 14.7000565,9.49578522 L14.4394919,10.1719724 C14.7965887,10.3190957 14.9794919,10.5836277 14.9889274,10.9662931 C14.9976371,11.3489586 14.7864274,12.101244 14.3552984,13.2231495 L11.6886855,20.1589607 C11.2176371,21.3859542 10.8605403,22.1541841 10.6195726,22.4629255 C10.3786048,22.7723917 10.085379,22.9586512 9.74062097,23.021704 L9.50473387,23.6348384 L14.5040887,23.6348384 Z M26.0277177,23.6036744 C26.7970726,23.9283602 27.5657016,24.0907031 28.3343306,24.0907031 C29.7685242,24.0907031 31.1598952,23.5717856 32.5084435,22.5339505 C33.8562661,21.4961155 34.8332016,20.1901247 35.4377984,18.6174277 C36.1425565,16.7830977 35.2621532,14.8270106 32.7944113,12.7513404 C32.7174758,12.6882876 32.6659435,12.6462524 32.6405403,12.6252348 C32.6144113,12.6042172 32.5824758,12.5781264 32.5440081,12.5469623 C31.4727177,11.6243617 31.0844113,10.7800336 31.3783629,10.0147027 C31.6200565,9.38562396 31.9684435,8.88482505 32.42425,8.51230605 C32.8793306,8.14051178 33.3641694,7.95425228 33.8794919,7.95425228 C34.6045726,7.95425228 35.1293306,8.31372587 35.4523145,9.03122358 C35.7752984,9.75017077 35.8573145,10.7430716 35.6983629,12.0121004 L36.2223952,12.263587 L38.518121,8.66160355 C38.0383629,8.02237832 37.4940081,7.54042279 36.8843306,7.21501222 C36.275379,6.89032639 35.6040081,6.72725873 34.8694919,6.72725873 C33.4019113,6.72725873 32.01925,7.21283798 30.7222339,8.182547 C29.4252177,9.15225602 28.4911048,10.3814238 27.9184435,11.8700503 C27.2173145,13.6949586 27.8785242,15.4198521 29.9035242,17.0447307 C30.267879,17.3491237 30.5502177,17.5795927 30.7512661,17.7368624 C31.3079597,18.2195426 31.640379,18.6674351 31.7470726,19.0812646 C31.8530403,19.4958189 31.7957016,19.9915445 31.5743306,20.5677169 C31.3239274,21.2178133 30.9370726,21.7686197 30.4137661,22.2194111 C29.8904597,22.6702026 29.3758629,22.8955984 28.86925,22.8955984 C28.0171532,22.8955984 27.40675,22.4629255 27.0394919,21.5983045 C26.6715081,20.7329588 26.6047339,19.5559727 26.8398952,18.0673462 L26.2955403,17.7056983 L23.5323952,22.0621414 C24.4265887,22.7644195 25.2583629,23.2782638 26.0277177,23.6036744 L26.0277177,23.6036744 Z M37.5361048,20.2531775 C37.040379,21.5432239 36.9024758,22.5049607 37.123121,23.1391127 C37.3430403,23.7739895 37.9302177,24.0907031 38.8839274,24.0907031 C39.5415081,24.0907031 40.25425,23.8442898 41.0221532,23.3514631 C41.7893306,22.8593611 42.5673952,22.1462119 43.3570726,21.2127401 L43.0057823,20.709767 C42.6363468,21.0344528 42.3307823,21.2656465 42.0883629,21.4011739 C41.8459435,21.5381507 41.6318306,21.6062767 41.44675,21.6062767 C41.1085242,21.6062767 40.9212661,21.4562545 40.8849758,21.1576595 C40.8479597,20.8590645 40.9662661,20.3531924 41.2398952,19.6400431 L45.0794113,9.65305492 L47.9020726,9.65305492 L48.530621,8.01730511 L45.7086855,8.01730511 L48.4232016,0.955388327 L47.4615081,0.955388327 C46.1165887,2.8955311 44.8536855,4.48852095 43.67425,5.73653211 C42.4940887,6.98454326 41.3734435,7.91221706 40.3130403,8.52027824 L39.8775565,9.65305492 L41.6115081,9.65305492 L37.5361048,20.2531775 Z M52.1959435,20.032855 C51.755379,20.4104472 51.320621,20.7017948 50.8916694,20.9061729 C50.4627177,21.1105511 50.0715081,21.2127401 49.7173145,21.2127401 C49.1773145,21.2127401 48.8216694,21.0003898 48.6518306,20.5756891 C48.4819919,20.1509885 48.53425,19.5827883 48.807879,18.869639 C49.1664274,17.9361673 49.7877177,17.0896649 50.6702984,16.3294073 C51.5536048,15.5691496 52.8339274,14.7958465 54.5112661,14.009498 L52.1959435,20.032855 Z M56.450621,21.2127401 C56.3090887,21.3178282 56.1740887,21.3939264 56.0463468,21.4410348 C55.9186048,21.4881433 55.782879,21.5113351 55.6398952,21.5113351 C55.377879,21.5113351 55.2515887,21.3569644 55.2610242,21.0474982 C55.2704597,20.7387568 55.415621,20.2169403 55.6979597,19.4827734 L58.7332823,11.5873997 C59.3821532,9.89946827 59.4801371,8.66740151 59.0279597,7.89119945 C58.5750565,7.11572213 57.53425,6.72725873 55.9055403,6.72725873 C54.5388468,6.72725873 53.210621,7.136015 51.9223145,7.95425228 C50.6332823,8.77176481 49.7790081,9.72625418 49.3594919,10.8162709 C49.138121,11.393168 49.1127177,11.8809215 49.2847339,12.2795314 C49.4560242,12.6781412 49.7702984,12.8767214 50.225379,12.8767214 C50.697879,12.8767214 51.1420726,12.6832144 51.5565081,12.294751 C51.9716694,11.9070123 52.5058629,11.1257371 53.1605403,9.95164992 C53.6011048,9.155155 53.9785242,8.61739409 54.2927984,8.3398167 C54.6063468,8.06151456 54.965621,7.92236349 55.370621,7.92236349 C55.9019113,7.92236349 56.2023952,8.1296406 56.270621,8.54419483 C56.3395726,8.95802431 56.1784435,9.67407253 55.7872339,10.69089 L54.995379,12.7513404 C54.342879,13.0658798 53.3318306,13.5217445 51.9629597,14.1196593 C50.5940887,14.7168493 49.6004597,15.2046028 48.9835242,15.582195 C48.0276371,16.1590922 47.2002177,16.8403526 46.5012661,17.6267011 C45.8023145,18.4130496 45.2833629,19.2465065 44.9451371,20.1277966 C44.5096532,21.2598486 44.4298145,22.2034667 44.7048952,22.9586512 C44.9799758,23.7138356 45.5475565,24.0907031 46.4083629,24.0907031 C46.9570726,24.0907031 47.6683629,23.8761786 48.5422339,23.4464047 C49.4161048,23.0166308 50.4402177,22.3817541 51.6152984,21.5432239 C51.3569113,22.4136428 51.30175,23.055767 51.4505403,23.4695965 C51.5993306,23.883426 51.9564274,24.0907031 52.5218306,24.0907031 C53.0444113,24.0907031 53.6700565,23.8964714 54.3973145,23.5087328 C55.1238468,23.1209941 55.8902984,22.5709125 56.6966694,21.8577633 L56.450621,21.2127401 Z M61.5682823,24.6096207 C64.4954597,25.5119284 65.7997339,26.3765493 65.4811048,27.2049331 C65.2394113,27.8340118 64.7095726,28.3790202 63.8908629,28.8406829 C63.0721532,29.3023455 62.1902984,29.5328145 61.2452984,29.5328145 C60.080379,29.5328145 59.2609435,29.2784289 58.7855403,28.7696578 C58.3101371,28.2616115 58.2361048,27.5825253 58.5619919,26.733124 C58.7398145,26.2714613 58.9996532,25.8366142 59.3422339,25.4278579 C59.6855403,25.0191017 60.0985242,24.6465827 60.5819113,24.3110257 C60.8148952,24.3842249 61.1436855,24.4842397 61.5682823,24.6096207 L61.5682823,24.6096207 Z M64.4069113,16.1721376 C64.4141694,15.2966454 64.7705403,13.941372 65.4760242,12.1063173 C66.0044113,10.7329252 66.5669113,9.69219116 67.1635242,8.98411514 C67.7608629,8.27676387 68.3669113,7.92236349 68.983121,7.92236349 C69.6748145,7.92236349 70.0261048,8.34706415 70.0377177,9.19646547 C70.0486048,10.0458668 69.7176371,11.3460596 69.0440887,13.0970439 C68.4598145,14.6175592 67.8762661,15.7293183 67.2941694,16.4315963 C66.7120726,17.1338744 66.0915081,17.4853758 65.4339274,17.4853758 C64.7415081,17.4853758 64.3996532,17.0476297 64.4069113,16.1721376 L64.4069113,16.1721376 Z M59.4612661,20.0487994 C58.7325565,20.6046789 58.2680403,21.1446141 58.0662661,21.6686048 C57.8644919,22.1933203 57.9065887,22.6441118 58.1918306,23.021704 C58.4770726,23.3985715 58.9989274,23.6870201 59.758121,23.886325 C58.4647339,24.4632221 57.4936048,25.0031573 56.8440081,25.5061304 C56.1951371,26.0098283 55.7618306,26.5446902 55.5440887,27.1107162 C55.152879,28.1275336 55.4250565,28.9849071 56.3591694,29.682112 C57.2932823,30.3793168 58.6969919,30.7279192 60.5702984,30.7279192 C62.4777177,30.7279192 64.2138468,30.2720545 65.7794113,29.3596004 C67.3457016,28.447871 68.3901371,27.3100211 68.9141694,25.9467755 C69.1885242,25.2336262 69.2894113,24.591502 69.2182823,24.0204028 C69.1464274,23.4485789 68.9047339,22.953578 68.4924758,22.5339505 C68.105621,22.1563583 66.9537661,21.6744028 65.0361855,21.0866345 C64.7480403,21.0032888 64.53175,20.9402359 64.3873145,20.8982007 C64.1833629,20.8351479 63.9104597,20.7568754 63.5664274,20.6619338 C62.6127177,20.4003008 62.1961048,20.1118522 62.3173145,19.7973128 C62.3775565,19.6400431 62.510379,19.4646548 62.7157823,19.2704231 C62.9211855,19.0761914 63.2427177,18.8276038 63.680379,18.5232109 C63.8371532,18.5761173 64.0120726,18.6152535 64.2044113,18.6413443 C64.39675,18.6674351 64.6362661,18.6804806 64.9236855,18.6804806 C66.492879,18.6804806 68.0047339,18.1275 69.4599758,17.0215389 C70.9144919,15.914853 71.960379,14.5334888 72.5969113,12.8767214 C72.8872339,12.1222617 73.0621532,11.43013 73.123121,10.8010512 C73.1833629,10.1719724 73.1289274,9.60522174 72.9598145,9.1022486 C73.1427177,8.95585008 73.2965887,8.84568882 73.4221532,8.77176481 C73.5469919,8.69856555 73.647879,8.66160355 73.7240887,8.66160355 C73.7908629,8.66160355 73.917879,8.84786305 74.1036855,9.22038206 C74.2902177,9.59290107 74.5558629,9.77843583 74.9020726,9.77843583 C75.2141694,9.77843583 75.5335242,9.63493629 75.8594113,9.34576297 C76.1852984,9.05803915 76.430621,8.69856555 76.5961048,8.26879167 C76.7935242,7.75494736 76.8196532,7.31502705 76.6737661,6.94758126 C76.527879,6.58086021 76.2564274,6.39677494 75.8601371,6.39677494 C75.4718306,6.39677494 75.0211048,6.53882499 74.5072339,6.8214756 C73.9933629,7.10485096 73.3604597,7.56651362 72.6077984,8.20573885 C72.3290887,7.72378332 71.9429597,7.35633753 71.4494113,7.10485096 C70.9551371,6.85336439 70.3795726,6.72725873 69.7212661,6.72725873 C68.1346532,6.72725873 66.5748952,7.30705485 65.0405403,8.46519761 C63.5069113,9.62406511 62.4174758,11.0423914 61.7722339,12.7194517 C61.3207823,13.8942636 61.17925,14.948043 61.3483629,15.88079 C61.51675,16.8142618 61.985621,17.5535018 62.7549758,18.0985102 C61.2873952,18.8435482 60.18925,19.4929199 59.4612661,20.0487994 L59.4612661,20.0487994 Z M76.340621,23.6348384 L76.5765081,23.021704 C76.2883629,22.9586512 76.14175,22.7803639 76.1366694,22.4868421 C76.1308629,22.1933203 76.3340887,21.5113351 76.7448952,20.442336 L79.1335242,14.2298206 C79.6611855,12.8564285 80.1133629,11.9439743 80.4893306,11.4931829 C80.8652984,11.0423914 81.3058629,10.8162709 81.8124758,10.8162709 C82.0657823,10.8162709 82.3604597,10.955422 82.6965081,11.2337241 C83.0325565,11.5113015 83.322879,11.6504526 83.5674758,11.6504526 C84.1248952,11.6504526 84.6757823,11.4120114 85.2223145,10.9344043 C85.768121,10.457522 86.1847339,9.84656187 86.4707016,9.1022486 C86.7290887,8.43113459 86.758121,7.8680076 86.5577984,7.41141816 C86.3574758,6.95555346 85.9829597,6.72725873 85.4349758,6.72725873 C84.9537661,6.72725873 84.3332016,6.9867175 83.5725565,7.50563503 C82.8119113,8.0252773 81.8879597,8.81887325 80.8021532,9.88859709 L82.0171532,6.72725873 L81.2071532,6.72725873 C80.4936855,7.41939035 79.7301371,8.00136071 78.9165081,8.47316981 C78.1021532,8.9449789 77.2580403,9.28560912 76.3841694,9.49578522 L76.1243306,10.1719724 C76.4807016,10.3190957 76.6643306,10.5836277 76.6730403,10.9662931 C76.68175,11.3489586 76.4712661,12.101244 76.0394113,13.2231495 L73.3735242,20.1589607 C72.90175,21.3859542 72.5475565,22.1541841 72.3102177,22.4629255 C72.072879,22.7723917 71.7782016,22.9586512 71.4247339,23.021704 L71.1888468,23.6348384 L76.340621,23.6348384 Z M90.4640887,20.032855 C90.0235242,20.4104472 89.5894919,20.7017948 89.1605403,20.9061729 C88.7315887,21.1105511 88.340379,21.2127401 87.9861855,21.2127401 C87.4454597,21.2127401 87.0905403,21.0003898 86.9207016,20.5756891 C86.7508629,20.1509885 86.8023952,19.5827883 87.07675,18.869639 C87.4352984,17.9361673 88.0558629,17.0896649 88.9391694,16.3294073 C89.82175,15.5691496 91.1020726,14.7958465 92.7801371,14.009498 L90.4640887,20.032855 Z M94.7194919,21.2127401 C94.5779597,21.3178282 94.4429597,21.3939264 94.3152177,21.4410348 C94.1874758,21.4881433 94.05175,21.5113351 93.9080403,21.5113351 C93.64675,21.5113351 93.5204597,21.3569644 93.5298952,21.0474982 C93.5386048,20.7387568 93.6844919,20.2169403 93.9668306,19.4827734 L97.0021532,11.5873997 C97.6510242,9.89946827 97.7490081,8.66740151 97.2961048,7.89119945 C96.8439274,7.11572213 95.803121,6.72725873 94.1744113,6.72725873 C92.8077177,6.72725873 91.4794919,7.136015 90.1904597,7.95425228 C88.9014274,8.77176481 88.047879,9.72625418 87.6283629,10.8162709 C87.4069919,11.393168 87.3815887,11.8809215 87.5536048,12.2795314 C87.7248952,12.6781412 88.0384435,12.8767214 88.49425,12.8767214 C88.96675,12.8767214 89.4109435,12.6832144 89.825379,12.294751 C90.2405403,11.9070123 90.7747339,11.1257371 91.4286855,9.95164992 C91.8699758,9.155155 92.2473952,8.61739409 92.5609435,8.3398167 C92.8744919,8.06151456 93.2337661,7.92236349 93.6394919,7.92236349 C94.1707823,7.92236349 94.4705403,8.1296406 94.5394919,8.54419483 C94.6077177,8.95802431 94.4465887,9.67407253 94.0561048,10.69089 L93.2635242,12.7513404 C92.6110242,13.0658798 91.6007016,13.5217445 90.2318306,14.1196593 C88.8629597,14.7168493 87.8693306,15.2046028 87.2516694,15.582195 C86.2957823,16.1590922 85.4683629,16.8403526 84.7701371,17.6267011 C84.0711855,18.4130496 83.5522339,19.2465065 83.2140081,20.1277966 C82.7785242,21.2598486 82.6979597,22.2034667 82.9730403,22.9586512 C83.248121,23.7138356 83.8164274,24.0907031 84.6772339,24.0907031 C85.2252177,24.0907031 85.9365081,23.8761786 86.8111048,23.4464047 C87.6849758,23.0166308 88.7090887,22.3817541 89.8841694,21.5432239 C89.6250565,22.4136428 89.570621,23.055767 89.7194113,23.4695965 C89.8682016,23.883426 90.2252984,24.0907031 90.7907016,24.0907031 C91.3132823,24.0907031 91.9389274,23.8964714 92.6661855,23.5087328 C93.3927177,23.1209941 94.1591694,22.5709125 94.9648145,21.8577633 L94.7194919,21.2127401 Z M99.9583629,23.6348384 L100.19425,23.021704 C99.898121,22.9586512 99.747879,22.7723917 99.74425,22.4629255 C99.7413468,22.1541841 99.9750565,21.3859542 100.446831,20.1589607 L103.89296,11.1938631 C104.662315,10.795978 105.314089,10.4995573 105.848282,10.3053256 C106.383202,10.1118186 106.806347,10.0147027 107.118444,10.0147027 C107.590944,10.0147027 107.859492,10.161826 107.924089,10.4546231 C107.98796,10.7488696 107.824653,11.4040392 107.434169,12.4208567 L104.459089,20.1589607 L104.350218,20.442336 C103.939411,21.5113351 103.617879,22.1933203 103.387073,22.4868421 C103.15554,22.7803639 102.872476,22.9586512 102.535702,23.021704 L102.299815,23.6348384 L107.097395,23.6348384 L107.333282,23.021704 C107.036427,22.9586512 106.88546,22.7803639 106.880379,22.4868421 C106.874573,22.1933203 107.077798,21.5113351 107.489331,20.442336 L111.056669,11.1626991 C112.072073,10.6488548 112.822556,10.3002523 113.306669,10.1168918 C113.790056,9.93353129 114.188524,9.84148866 114.500621,9.84148866 C114.838121,9.84148866 115.037718,10.0147027 115.098685,10.3604062 C115.159653,10.7068344 115.071105,11.1887899 114.833766,11.8077223 L111.622798,20.1589607 C111.151024,21.3859542 110.794653,22.1541841 110.553685,22.4629255 C110.311992,22.7723917 110.015137,22.9586512 109.661669,23.021704 L109.425782,23.6348384 L114.24804,23.6348384 L114.483927,23.021704 C114.179089,22.9586512 114.025218,22.7723917 114.021589,22.4629255 C114.01796,22.1541841 114.252395,21.3859542 114.724169,20.1589607 L118.689976,9.84148866 C119.081185,8.82467121 119.205298,8.05136813 119.06304,7.52157942 C118.920782,6.99251546 118.515782,6.72725873 117.849492,6.72725873 C117.292798,6.72725873 116.547395,6.97149785 115.613282,7.45852659 C114.678444,7.94628008 113.298685,8.81887325 111.473282,10.0777556 L111.733847,9.4008436 C112.076427,8.51013181 112.168605,7.84191678 112.011105,7.39547376 C111.852879,6.95048024 111.444976,6.72725873 110.786669,6.72725873 C110.229976,6.72725873 109.443927,6.98961648 108.427798,7.51360722 C107.411669,8.03832271 106.043524,8.89279725 104.322637,10.0777556 L105.610218,6.72725873 L104.990379,6.72725873 C104.377073,7.37735513 103.68175,7.93613365 102.90296,8.40214478 C102.124895,8.86888066 101.271347,9.23342747 100.343766,9.49578522 L100.083927,10.1719724 C100.441024,10.3190957 100.623927,10.5836277 100.633363,10.9662931 C100.642073,11.3489586 100.430863,12.101244 99.9997339,13.2231495 L97.333121,20.1589607 C96.8613468,21.3859542 96.5049758,22.1541841 96.2640081,22.4629255 C96.0223145,22.7723917 95.7298145,22.9586512 95.3850565,23.021704 L95.1491694,23.6348384 L99.9583629,23.6348384 Z"/>
</svg>
