<svg width="190" height="14" viewBox="0 0 190 14" xmlns="http://www.w3.org/2000/svg">
  <path fill="#140D00" fill-rule="evenodd" d="M6.15581357,2.6219076 C6.73379776,1.97036673 7.39122439,1.64498644 8.1272828,1.64498644 C8.92494963,1.64498644 9.35945107,2.03825183 9.43078713,2.82400231 C9.50212319,3.61053308 9.21596832,4.81061673 8.57232252,6.42503356 C7.91975972,8.06129846 7.27692457,9.24109462 6.64462769,9.96364173 C6.01152018,10.6861888 5.31599362,11.0466821 4.55561609,11.0466821 C3.77659392,11.0466821 3.3688435,10.6456138 3.33317547,9.84347731 C3.2966968,9.04134077 3.63473244,7.74606192 4.34809302,5.95842106 C4.97471543,4.38535952 5.57782938,3.27344846 6.15581357,2.6219076 L6.15581357,2.6219076 Z M11.7370494,3.95542058 C11.6778729,3.23365375 11.4265755,2.57743115 10.983157,1.98753308 C10.7610425,1.68556144 10.4294919,1.44601288 9.98769476,1.26732683 C9.54589758,1.08942106 9.06113665,0.999687885 8.53422258,0.999687885 C7.82167264,0.999687885 7.1220929,1.12453404 6.43629398,1.37344606 C5.75049506,1.62313837 5.08982589,1.98987394 4.4550971,2.47443308 C3.77821519,2.99098404 3.19212463,3.57776096 2.69520413,4.23320327 C2.19828364,4.88942587 1.79296513,5.61119269 1.48005924,6.39694317 C1.13472787,7.26150279 0.975843017,8.05037442 1.00259404,8.76355808 C1.02934506,9.47674173 1.24335323,10.0869273 1.64380792,10.5941148 C1.92185642,10.9468052 2.2850218,11.2175653 2.73411471,11.4071754 C3.18320762,11.5967855 3.69066639,11.6919807 4.2556804,11.6919807 C4.81664121,11.6919807 5.39138286,11.5991263 5.98071597,11.414198 C6.56923845,11.2284893 7.12290353,10.9647518 7.63927931,10.6214249 C8.51152475,10.0549355 9.25893208,9.4041749 9.88150131,8.67070375 C10.5040705,7.9372326 10.9872102,7.14055808 11.3301097,6.28068019 C11.6600389,5.45357442 11.7954153,4.67796769 11.7370494,3.95542058 L11.7370494,3.95542058 Z M12.9270646,9.99095183 C12.7025181,10.5535398 12.6660395,10.9725547 12.816818,11.2495571 C12.9675964,11.5257792 13.3113065,11.6638903 13.8479482,11.6638903 C14.2184094,11.6638903 14.6091364,11.5569908 15.02094,11.3416312 C15.4311223,11.1270518 15.8396834,10.816497 16.2441913,10.4091864 L16.0253193,10.1899254 C15.8307664,10.3311576 15.668639,10.4318148 15.5381264,10.4911167 C15.4068032,10.5511989 15.2892609,10.5808499 15.1854993,10.5808499 C14.9949996,10.5808499 14.8831317,10.5153057 14.8498956,10.3849975 C14.8166595,10.2546893 14.8612445,10.034648 14.985272,9.72331288 L16.7224671,5.36852298 L18.3113157,5.36852298 L18.5958493,4.65533933 L17.0070007,4.65533933 L18.2343052,1.57632106 L17.6927996,1.57632106 C17.0183496,2.42215375 16.3755145,3.11661048 15.7642942,3.66125183 C15.1530738,4.20511288 14.5621195,4.60930231 13.9906204,4.87460038 L13.7936356,5.36852298 L14.7704532,5.36852298 L12.9270646,9.99095183 Z M20.8299649,11.4649167 L20.936969,11.1980581 C20.762682,11.170748 20.6678375,11.089598 20.6524354,10.9546081 C20.6370333,10.8196182 20.7367416,10.4848744 20.9499392,9.94959654 L22.596343,5.82109029 C22.9757211,5.67985808 23.270793,5.57998115 23.4815586,5.5230201 C23.6915136,5.46605904 23.8609367,5.43718837 23.9890174,5.43718837 C24.2792254,5.43718837 24.4421634,5.55267106 24.4778315,5.78363644 C24.5143101,6.01460183 24.4283826,6.39070087 24.2208595,6.91193356 L23.0089572,9.94959654 L22.9595083,10.0728821 C22.7738725,10.5394946 22.6222833,10.8367845 22.504741,10.9647518 C22.3871986,11.0927191 22.2323669,11.170748 22.0410566,11.1980581 L21.9340525,11.4649167 L24.7412885,11.4649167 L24.8482926,11.1980581 C24.6788695,11.170748 24.5856462,11.0927191 24.5702441,10.9647518 C24.554842,10.8367845 24.6407695,10.5394946 24.8264054,10.0728821 L26.5903516,5.64942683 C26.7946321,5.1375576 26.8375958,4.75053452 26.7192428,4.48757731 C26.6008898,4.2246201 26.3228413,4.09275135 25.885908,4.09275135 C25.5721915,4.09275135 25.182275,4.18794654 24.7145375,4.37755663 C24.2467999,4.56716673 23.6007222,4.89800904 22.777115,5.36852298 L24.519174,0.999687885 L24.1697894,0.999687885 C23.7960857,1.30634125 23.3899566,1.56149558 22.9530232,1.76437058 C22.5152793,1.96802587 22.0556481,2.11550038 21.5725084,2.20679413 L21.454966,2.50174317 C21.6616785,2.56572683 21.7759783,2.68120952 21.7978655,2.84819125 C21.8189421,3.01517298 21.7313933,3.345235 21.5344085,3.8391576 L19.0976336,9.94959654 C18.884436,10.4848744 18.7158235,10.8196182 18.5934174,10.9546081 C18.4710112,11.089598 18.3137476,11.170748 18.1224372,11.1980581 L18.0154332,11.4649167 L20.8299649,11.4649167 Z M31.8440901,5.19373837 C32.210498,4.79813212 32.6028463,4.60071913 33.021135,4.60071913 C33.4151046,4.60071913 33.6672127,4.74585279 33.7766487,5.0361201 C33.8868954,5.3263874 33.8398784,5.72745567 33.6355979,6.2393249 C33.5115704,6.55066 33.367277,6.75275471 33.204339,6.84638933 C33.0414009,6.94002394 32.6814781,6.98684125 32.1261918,6.98684125 L30.8153917,6.98684125 C31.133972,6.18704558 31.4768715,5.58934462 31.8440901,5.19373837 L31.8440901,5.19373837 Z M32.8509013,10.1454489 C32.4707125,10.2937037 32.0913344,10.3678312 31.7111456,10.3678312 C31.0131871,10.3678312 30.5657155,10.1337446 30.370352,9.66479125 C30.1749884,9.19661817 30.2422713,8.5185475 30.5722006,7.63135952 L34.9042448,7.63135952 C35.3136165,6.5576826 35.3671186,5.698585 35.0655616,5.0564076 C34.763194,4.41423019 34.1584588,4.09275135 33.2513559,4.09275135 C32.3207446,4.09275135 31.3941865,4.4540249 30.4716816,5.17657202 C29.5499873,5.89911913 28.8722948,6.80191288 28.4402252,7.88573356 C27.991943,9.01012923 27.9441154,9.92150615 28.2983638,10.6183037 C28.6518015,11.3158816 29.3367898,11.6638903 30.3533286,11.6638903 C30.9661702,11.6638903 31.5992777,11.4961283 32.2534618,11.1598239 C32.9076458,10.8242999 33.5699363,10.3272562 34.2411437,9.66869269 L34.0482121,9.45567394 C33.6299234,9.76700904 33.2302794,9.99641385 32.8509013,10.1454489 L32.8509013,10.1454489 Z M38.9598618,11.4649167 L39.0660553,11.1980581 C38.901496,11.170748 38.8115153,11.0927191 38.7961131,10.9647518 C38.780711,10.8367845 38.8658279,10.5394946 39.0514638,10.0728821 L40.132043,7.36450087 C40.3711809,6.76523933 40.5868103,6.36729221 40.7789313,6.17065952 C40.9710523,5.97402683 41.2101902,5.87571048 41.4947238,5.87571048 C41.6373959,5.87571048 41.8092509,5.93657298 42.0102889,6.05751769 C42.2113269,6.17924269 42.38075,6.2393249 42.5185583,6.2393249 C42.8322749,6.2393249 43.1322106,6.13554654 43.4191761,5.92720952 C43.7069522,5.71965279 43.9152859,5.45357442 44.0441772,5.12819413 C44.1609089,4.83558596 44.1536132,4.5897951 44.0214794,4.39160183 C43.8893455,4.19262827 43.6688523,4.09275135 43.3599996,4.09275135 C43.0892468,4.09275135 42.7512112,4.20589317 42.345082,4.43217683 C41.9389529,4.65846048 41.4525707,5.00490856 40.886746,5.47152106 L41.4363579,4.09275135 L40.9807799,4.09275135 C40.6086975,4.39472298 40.203379,4.64831673 39.7648244,4.85431288 C39.3270804,5.06030904 38.8658279,5.20856385 38.3834989,5.2998576 L38.2659565,5.59480663 C38.472669,5.65879029 38.5869688,5.77427298 38.6080454,5.94125471 C38.6299326,6.10823644 38.5423838,6.4359576 38.3478309,6.92519846 L37.141603,9.94959654 C36.9284055,10.4848744 36.7614142,10.8196182 36.64144,10.9546081 C36.520655,11.089598 36.3625808,11.170748 36.1664067,11.1980581 L36.0602132,11.4649167 L38.9598618,11.4649167 Z M51.4039507,11.4649167 L51.5101442,11.1980581 C51.3188338,11.1886946 51.2085872,11.1169081 51.1794043,10.9819182 C51.1502213,10.8469283 51.1996702,10.6198643 51.3269402,10.2991658 L52.9628057,6.19796962 C53.4718857,5.97012538 53.8999021,5.79846192 54.2468547,5.68375952 C54.594618,5.5698374 54.860507,5.51287635 55.0461428,5.51287635 C55.2925765,5.51287635 55.4384912,5.57920087 55.4830762,5.71106962 C55.5276612,5.84371865 55.4774017,6.0910701 55.333919,6.45234365 L53.7993831,10.2991658 C53.6721131,10.6198643 53.5391686,10.8469283 53.4029816,10.9819182 C53.2659839,11.1169081 53.0981821,11.1886946 52.899576,11.1980581 L52.7933826,11.4649167 L55.1231534,11.4649167 L55.2293468,11.1980581 C55.0380365,11.1886946 54.9294111,11.1169081 54.9026601,10.9819182 C54.8750984,10.8469283 54.9253579,10.6198643 55.0534386,10.2991658 L56.827923,5.84840038 C56.990861,5.4418701 57.0240972,5.12195183 56.9300633,4.88864558 C56.8352187,4.65533933 56.6236425,4.53907635 56.2961451,4.53907635 C55.8827202,4.53907635 54.9358962,4.90659221 53.4548624,5.64318452 L53.118448,5.80782538 L54.9837238,1.12999606 L54.7559348,1.12999606 C54.4478927,1.35471913 54.1293124,1.54276865 53.8001937,1.69570519 C53.4702645,1.84942202 53.1354714,1.96490471 52.7958145,2.04215327 L52.7115082,2.25517202 C52.91741,2.27311865 53.0381949,2.34334462 53.0730523,2.46428933 C53.1079097,2.58523404 53.0641353,2.79903308 52.9417291,3.10568644 L50.0728847,10.2991658 C49.9488573,10.6105009 49.8175341,10.8352239 49.6789151,10.9748956 C49.5402962,11.1145672 49.3741156,11.1886946 49.1803734,11.1980581 L49.0741799,11.4649167 L51.4039507,11.4649167 Z M59.9018586,11.4649167 L60.0015669,11.1980581 C59.8134991,11.1933763 59.7048738,11.1223701 59.6765015,10.9850393 C59.6481292,10.8477086 59.6975781,10.6198643 59.8256587,10.2991658 L62.2291975,4.2714374 L61.9657404,4.2714374 C61.6398644,4.50474365 61.3156095,4.69669462 60.9913547,4.84729029 C60.6679106,4.99788596 60.3412238,5.11258837 60.0104839,5.19061721 L59.9286096,5.39583308 C60.1280263,5.41924173 60.2463793,5.49180856 60.282858,5.61509413 C60.3193366,5.73916 60.2755622,5.95608019 60.1515348,6.266635 L58.5432309,10.2991658 C58.4192035,10.6105009 58.2846377,10.8367845 58.1403443,10.9780167 C57.9960509,11.1200292 57.830681,11.1933763 57.6434238,11.1980581 L57.5364198,11.4649167 L59.9018586,11.4649167 Z M62.7374669,2.88954654 C62.9749835,2.72256481 63.1395428,2.52515183 63.2311448,2.29652731 C63.3276106,2.0538576 63.3243681,1.85254317 63.2222278,1.69258404 C63.1200875,1.5326249 62.94499,1.45225519 62.6977457,1.45225519 C62.4561758,1.45225519 62.2162273,1.53574606 61.9787106,1.70272779 C61.741194,1.86970952 61.5766347,2.06790279 61.4850327,2.29652731 C61.3958626,2.5204701 61.403969,2.71710279 61.5101624,2.8856451 C61.6163559,3.05496769 61.7874003,3.14001913 62.0249169,3.14001913 C62.2624336,3.14001913 62.4999502,3.05652827 62.7374669,2.88954654 L62.7374669,2.88954654 Z M64.6246299,11.4649167 L64.7308233,11.1980581 C64.539513,11.1886946 64.4292663,11.1169081 64.4000834,10.9819182 C64.3709005,10.8469283 64.4203493,10.6198643 64.5476193,10.2991658 L66.1834848,6.19796962 C66.6925649,5.97012538 67.1205812,5.79846192 67.4675339,5.68375952 C67.8152972,5.5698374 68.0811861,5.51287635 68.266822,5.51287635 C68.5132556,5.51287635 68.6591703,5.57920087 68.7037553,5.71106962 C68.7483404,5.84371865 68.6980809,6.0910701 68.5545981,6.45234365 L67.0200622,10.2991658 C66.8927922,10.6198643 66.7598478,10.8469283 66.6236607,10.9819182 C66.4866631,11.1169081 66.3188612,11.1886946 66.1202552,11.1980581 L66.0132511,11.4649167 L68.3438325,11.4649167 L68.4500259,11.1980581 C68.2587156,11.1886946 68.1500903,11.1169081 68.1233392,10.9819182 C68.0957776,10.8469283 68.1460371,10.6198643 68.2741177,10.2991658 L70.0486022,5.84840038 C70.2115402,5.4418701 70.2447763,5.12195183 70.1507424,4.88864558 C70.0558979,4.65533933 69.8443216,4.53907635 69.5168243,4.53907635 C69.1033994,4.53907635 68.1565753,4.90659221 66.6755415,5.64318452 L66.3391272,5.80782538 L68.2044029,1.12999606 L67.9766139,1.12999606 C67.6685719,1.35471913 67.3499915,1.54276865 67.0208729,1.69570519 C66.6909436,1.84942202 66.3561505,1.96490471 66.0164936,2.04215327 L65.9321874,2.25517202 C66.1380892,2.27311865 66.2588741,2.34334462 66.2937315,2.46428933 C66.3285889,2.58523404 66.2848145,2.79903308 66.1624083,3.10568644 L63.2935639,10.2991658 C63.1695364,10.6105009 63.0382132,10.8352239 62.8995943,10.9748956 C62.7609753,11.1145672 62.5947948,11.1886946 62.4010525,11.1980581 L62.2948591,11.4649167 L64.6246299,11.4649167 Z M73.1225377,11.4649167 L73.2222461,11.1980581 C73.0341783,11.1933763 72.9255529,11.1223701 72.8971806,10.9850393 C72.8688083,10.8477086 72.9182572,10.6198643 73.0463378,10.2991658 L75.4498766,4.2714374 L75.1864196,4.2714374 C74.8605435,4.50474365 74.5362887,4.69669462 74.2120339,4.84729029 C73.8885897,4.99788596 73.5610924,5.11258837 73.2311631,5.19061721 L73.1492888,5.39583308 C73.3487055,5.41924173 73.4670585,5.49180856 73.5035371,5.61509413 C73.5400158,5.73916 73.4954308,5.95608019 73.3722139,6.266635 L71.7639101,10.2991658 C71.6398826,10.6105009 71.5053169,10.8367845 71.3610235,10.9780167 C71.2167301,11.1200292 71.0513601,11.1933763 70.864103,11.1980581 L70.7570989,11.4649167 L73.1225377,11.4649167 Z M75.958146,2.88954654 C76.1956627,2.72256481 76.360222,2.52515183 76.451824,2.29652731 C76.5482898,2.0538576 76.5450472,1.85254317 76.442907,1.69258404 C76.3407667,1.5326249 76.1656691,1.45225519 75.9184248,1.45225519 C75.676855,1.45225519 75.4369064,1.53574606 75.1993898,1.70272779 C74.9618731,1.86970952 74.7973138,2.06790279 74.7057118,2.29652731 C74.6165418,2.5204701 74.6246481,2.71710279 74.7308416,2.8856451 C74.837035,3.05496769 75.0080794,3.14001913 75.2455961,3.14001913 C75.4831127,3.14001913 75.7206294,3.05652827 75.958146,2.88954654 L75.958146,2.88954654 Z M77.8736813,11.4649167 L77.9798747,11.1980581 C77.789375,11.1886946 77.6799391,11.1169081 77.653188,10.9819182 C77.6256264,10.8469283 77.6766965,10.6198643 77.8039665,10.2991658 L81.4607501,1.12999606 L81.1972931,1.12999606 C80.889251,1.35471913 80.5706707,1.54276865 80.2407414,1.69570519 C79.9116228,1.84942202 79.5768297,1.96490471 79.2371728,2.04215327 L79.1528665,2.25517202 C79.3587683,2.27311865 79.4795532,2.34334462 79.5144106,2.46428933 C79.549268,2.58523404 79.5054936,2.79903308 79.3830874,3.10568644 L76.514243,10.2991658 C76.3902156,10.6105009 76.2588924,10.8352239 76.1202734,10.9748956 C75.9816545,11.1145672 75.8154739,11.1886946 75.6217317,11.1980581 L75.5155382,11.4649167 L77.8736813,11.4649167 Z M84.5200942,10.7041355 C84.1755735,10.8820412 83.8569931,10.9717744 83.5619213,10.9717744 C83.0114987,10.9717744 82.693729,10.68931 82.6102334,10.1243812 C82.5267378,9.5602326 82.6872439,8.76980038 83.0917518,7.75542538 C83.4605916,6.83156385 83.8764484,6.12384221 84.3409434,5.63226048 C84.8054384,5.14145904 85.2893888,4.89566817 85.7927943,4.89566817 C86.3440275,4.89566817 86.686927,5.11336865 86.8214927,5.55033019 C86.9560585,5.98729173 86.8652671,6.60059846 86.5499293,7.39181096 L85.5301479,9.94959654 C85.2010293,10.2741965 84.864615,10.5254494 84.5200942,10.7041355 L84.5200942,10.7041355 Z M84.9254127,11.4649167 L86.7063823,11.4649167 L86.8060906,11.1980581 C86.6180228,11.1933763 86.5093975,11.1223701 86.4810252,10.9850393 C86.4526529,10.8477086 86.5029124,10.6198643 86.6301824,10.2991658 L90.286966,1.12999606 L90.0518812,1.12999606 C89.7438392,1.35471913 89.4252588,1.54276865 89.0961402,1.69570519 C88.7662109,1.84942202 88.4338497,1.96490471 88.0990567,2.04215327 L88.0139398,2.25517202 C88.2206522,2.27311865 88.3430584,2.3441249 88.381969,2.46741048 C88.4208796,2.59069606 88.3795371,2.80371481 88.2595628,3.10568644 L87.3621876,5.35447779 C87.2713963,5.09386144 87.1084582,4.89332731 86.8725628,4.75131481 C86.6374781,4.60930231 86.3391637,4.53907635 85.9776196,4.53907635 C85.1183443,4.53907635 84.279335,4.89644846 83.4622129,5.61197298 C82.6450908,6.3274975 82.0022556,7.27242683 81.5337074,8.44754125 C81.1429804,9.42602298 81.0554316,10.2070917 81.2694398,10.7899672 C81.4834479,11.3728427 81.9609131,11.6638903 82.7018354,11.6638903 C83.1103964,11.6638903 83.5351702,11.5694754 83.9761568,11.3798653 C84.417954,11.1902552 84.8556979,10.9140331 85.2893888,10.5535398 L84.9254127,11.4649167 Z M95.1840242,11.4649167 L95.2829219,11.1980581 C95.0535116,11.1660662 94.9221884,11.0638485 94.8881417,10.8929653 C94.8549056,10.7213018 94.9213778,10.4255725 95.0891797,10.0042167 L97.3759867,4.2714374 L97.1481977,4.2714374 C96.7809791,4.50006192 96.4388903,4.68733115 96.1219312,4.8332451 C95.8049722,4.97993933 95.5001726,5.09230087 95.2075327,5.16954942 L95.1191732,5.40987827 C95.3056198,5.455135 95.40776,5.55501192 95.4280259,5.70794846 C95.4474812,5.860885 95.3818196,6.12774365 95.2302305,6.50696385 L93.8464731,9.97690663 C93.3965696,10.1875845 92.9977362,10.3475437 92.6507835,10.4575643 C92.3030202,10.5668047 92.0217292,10.6214249 91.8085317,10.6214249 C91.5612874,10.6214249 91.4121302,10.5558807 91.3602494,10.4232316 C91.3083686,10.2905826 91.3497111,10.0572763 91.4826556,9.72331288 L93.6567841,4.2714374 L93.4216993,4.2714374 C93.1071722,4.50006192 92.7853493,4.69045231 92.4562306,4.84416913 C92.1263014,4.99710567 91.7963721,5.11258837 91.4664428,5.19061721 L91.3845685,5.39583308 C91.588849,5.41924173 91.7096339,5.49414942 91.7461126,5.62211673 C91.7834019,5.75008404 91.7412488,5.96544365 91.6212745,6.266635 L89.9967579,10.3405211 C89.8321986,10.7517331 89.7973412,11.0755528 89.8913751,11.3111999 C89.9845984,11.5460667 90.195364,11.6638903 90.5228613,11.6638903 C90.7749695,11.6638903 91.1040881,11.5850812 91.5118385,11.4274629 C91.9187783,11.2698446 92.6434878,10.9210557 93.6851564,10.3818763 L93.2530868,11.4649167 L95.1840242,11.4649167 Z M99.8273531,11.4649167 L99.9270614,11.1980581 C99.7389936,11.1933763 99.6303683,11.1223701 99.601996,10.9850393 C99.5736237,10.8477086 99.6230725,10.6198643 99.7511532,10.2991658 L101.290553,6.43829846 C101.506182,6.25571096 101.700735,6.11838019 101.875022,6.02708644 C102.049309,5.93579269 102.205762,5.88975567 102.34357,5.88975567 C102.476515,5.88975567 102.629725,5.92720952 102.804012,6.0028975 C102.978299,6.07858548 103.120161,6.11603933 103.228786,6.11603933 C103.461439,6.11603933 103.685175,6.04191192 103.898372,5.89287683 C104.11238,5.74462202 104.263159,5.56047394 104.350708,5.34121288 C104.448795,5.09386144 104.461765,4.89878933 104.387997,4.75443596 C104.31504,4.61086288 104.166693,4.53907635 103.943768,4.53907635 C103.696524,4.53907635 103.374701,4.64987731 102.977489,4.87147923 C102.580276,5.09308115 102.08903,5.43718837 101.504561,5.90380087 L102.042824,4.55234125 L101.779367,4.55234125 C101.468893,4.77160231 101.149502,4.95809125 100.822815,5.11102779 C100.495318,5.26474462 100.165389,5.37788644 99.8322169,5.45045327 L99.7471,5.66347202 C99.9473273,5.68610038 100.06568,5.75866721 100.10297,5.87961192 C100.140259,6.00055663 100.098106,6.21435567 99.9756996,6.52100904 L98.4687254,10.2991658 C98.3446979,10.6105009 98.2101322,10.8367845 98.0658388,10.9780167 C97.9215454,11.1200292 97.7561755,11.1933763 97.5689183,11.1980581 L97.4619142,11.4649167 L99.8273531,11.4649167 Z M112.875367,10.2585908 C113.031009,10.5004802 113.336619,10.6214249 113.792197,10.6214249 C114.110777,10.6214249 114.454487,10.5574413 114.823327,10.4294739 C115.192978,10.3015066 115.56506,10.1189191 115.940385,9.88093115 C116.631858,9.43304558 117.243079,8.89152538 117.774857,8.25559029 C118.305824,7.62043548 118.716817,6.93924365 119.006214,6.21201481 C119.57366,4.79032923 119.532318,3.64798692 118.882997,2.78654846 C118.234488,1.92511 117.088247,1.49361048 115.444275,1.49361048 C114.580136,1.49361048 113.715997,1.62157779 112.851047,1.8775124 C111.986908,2.13422731 111.134929,2.51578837 110.29592,3.02297587 C109.264789,3.64486577 108.381195,4.36195087 107.646758,5.17345087 C106.912321,5.98495087 106.360277,6.85419221 105.989816,7.78273548 C105.630703,8.68318837 105.491274,9.50717298 105.570716,10.2546893 C105.650159,11.0022057 105.945231,11.6342393 106.456743,12.1507903 C106.853144,12.5627826 107.381679,12.8725571 108.041538,13.0801138 C108.702207,13.2884509 109.481229,13.3922292 110.378604,13.3922292 C111.233827,13.3922292 112.105261,13.2642619 112.99372,13.0083273 C113.882178,12.7523927 114.7755,12.3731725 115.674496,11.8698864 L115.551279,11.5889826 C114.682276,12.0641783 113.827865,12.4199898 112.988856,12.6548566 C112.149036,12.8905038 111.325429,13.0083273 110.518034,13.0083273 C109.74874,13.0083273 109.063751,12.8959658 108.46469,12.672023 C107.864819,12.4480802 107.390596,12.1258211 107.040401,11.7052456 C106.648864,11.2347316 106.437287,10.6994538 106.404862,10.1001922 C106.373247,9.50171096 106.523215,8.78618644 106.854765,7.95361865 C107.210635,7.06252923 107.688911,6.24400663 108.290404,5.49883115 C108.891086,4.75365567 109.604446,4.09743308 110.428864,3.53094365 C111.215993,2.98630231 112.034736,2.57352971 112.885094,2.29262587 C113.736263,2.01172202 114.589053,1.8712701 115.443465,1.8712701 C116.122778,1.8712701 116.719407,1.965685 117.23254,2.1552951 C117.745674,2.34568548 118.146128,2.61644558 118.433094,2.96835567 C118.764644,3.37488596 118.953523,3.83447587 118.998919,4.3463451 C119.043504,4.85899462 118.945417,5.41924173 118.702225,6.02708644 C118.374728,6.84951048 117.940227,7.5782999 117.400342,8.21111385 C116.860458,8.84470808 116.225729,9.36672106 115.496967,9.77793308 C115.238373,9.92462731 114.97897,10.0432312 114.717134,10.1345249 C114.454487,10.2265989 114.245343,10.2718557 114.088079,10.2718557 C113.883799,10.2718557 113.751665,10.207872 113.690867,10.0799047 C113.63088,9.9519374 113.647093,9.77169077 113.739506,9.53838452 C113.794629,9.40105375 113.908929,9.20442106 114.081594,8.94848644 C114.112399,8.90713115 114.132665,8.87982106 114.143203,8.86577587 L117.042851,4.66938452 L115.916877,4.66938452 L115.077867,5.86244558 C115.154067,5.43250663 115.102997,5.10712635 114.925468,4.88474413 C114.747938,4.66314221 114.44557,4.55234125 114.018365,4.55234125 C113.652767,4.55234125 113.253123,4.63115038 112.819433,4.78876865 C112.386552,4.94638692 111.948808,5.17423115 111.507011,5.47152106 C110.914436,5.8741499 110.402924,6.31969462 109.973286,6.80893548 C109.542838,7.29817635 109.228311,7.79209894 109.029704,8.28992298 C108.748413,8.99452346 108.707071,9.55633115 108.905677,9.97690663 C109.103472,10.3974821 109.508791,10.60816 110.121633,10.60816 C110.56343,10.60816 111.010901,10.4911167 111.464858,10.2585908 C111.918815,10.0252845 112.388984,9.66869269 112.874556,9.18881529 C112.720535,9.65932923 112.720535,10.0159211 112.875367,10.2585908 L112.875367,10.2585908 Z M114.647419,5.26240375 C114.743885,5.52067923 114.708217,5.86010471 114.540415,6.28068019 C114.38153,6.67862731 114.121316,7.13119462 113.759772,7.63838212 C113.398227,8.1463499 113.002637,8.61218212 112.571378,9.03743933 C112.153089,9.4447499 111.767226,9.74750183 111.414599,9.94647538 C111.061972,10.1454489 110.732042,10.2445456 110.42319,10.2445456 C110.128118,10.2445456 109.935186,10.1243812 109.843584,9.8848326 C109.751171,9.64450375 109.784408,9.32770663 109.940861,8.93444125 C110.126496,8.46860904 110.434538,7.94581577 110.864987,7.36762202 C111.295435,6.78942827 111.776143,6.25571096 112.308731,5.7664701 C112.653252,5.45045327 112.958862,5.22338933 113.225562,5.08371769 C113.492261,4.94482635 113.754097,4.87460038 114.011069,4.87460038 C114.338566,4.87460038 114.550953,5.00412827 114.647419,5.26240375 L114.647419,5.26240375 Z M124.16754,12.1507903 C124.48531,12.3294763 124.577723,12.5877518 124.442346,12.926397 C124.280219,13.3329273 123.945426,13.6450427 123.438778,13.8619629 C122.931319,14.0796634 122.281188,14.1881235 121.488385,14.1881235 C120.885271,14.1881235 120.454012,14.0656182 120.195419,13.8213879 C119.936826,13.5763773 119.888187,13.250997 120.051125,12.8436864 C120.163804,12.5604417 120.334038,12.3099691 120.560205,12.0930489 C120.787184,11.8753485 121.067664,11.6935413 121.401647,11.5476273 C122.927266,11.7715701 123.84896,11.9728845 124.16754,12.1507903 L124.16754,12.1507903 Z M123.969745,5.35837923 C124.3321,5.00881 124.748767,4.8332451 125.218936,4.8332451 C125.65587,4.8332451 125.914463,5.01193115 125.995527,5.36852298 C126.07659,5.72511481 125.976882,6.25571096 125.696402,6.95953115 C125.436998,7.60873115 125.120849,8.10499462 124.746335,8.44754125 C124.371821,8.79086817 123.959206,8.96175135 123.508492,8.96175135 C123.066695,8.96175135 122.802427,8.79867106 122.717311,8.47173019 C122.631383,8.14478933 122.722174,7.64540471 122.990495,6.97357635 C123.280703,6.2463475 123.606579,5.70794846 123.969745,5.35837923 L123.969745,5.35837923 Z M119.574471,12.2436446 C119.24211,12.4972384 119.018374,12.7703393 118.901642,13.0629475 C118.713574,13.5342417 118.846519,13.9009773 119.299665,14.1639345 C119.752811,14.4268917 120.485627,14.5579802 121.497302,14.5579802 C122.523568,14.5579802 123.40392,14.3847562 124.138357,14.0367475 C124.872794,13.6895191 125.355934,13.2252475 125.587776,12.6447129 C125.711804,12.3341581 125.749093,12.0641783 125.700455,11.8355537 C125.651006,11.6069292 125.509955,11.4032739 125.277302,11.2253682 C125.081128,11.0747725 124.292378,10.8781398 122.911863,10.6354701 C122.615981,10.5808499 122.384949,10.5394946 122.22039,10.5121845 C121.802912,10.4388374 121.530538,10.3600283 121.402457,10.2757571 C121.275187,10.1907057 121.239519,10.0775638 121.296264,9.93633163 C121.348955,9.8036826 121.460823,9.67415471 121.631868,9.54852827 C121.803723,9.42290183 122.065558,9.27542731 122.417375,9.10610471 C122.549509,9.15682346 122.686506,9.19427731 122.828368,9.21924654 C122.970229,9.24421577 123.120197,9.25670038 123.27665,9.25670038 C124.079181,9.25670038 124.839558,9.02495471 125.556161,8.56068308 C126.273575,8.09719173 126.771306,7.51509654 127.050165,6.81595808 C127.143389,6.58265183 127.198512,6.36261048 127.216346,6.15739462 C127.234991,5.95139846 127.215535,5.76412923 127.159601,5.59480663 C127.313622,5.49414942 127.427922,5.42470375 127.503312,5.38568933 C127.57789,5.3466749 127.633824,5.32716769 127.671924,5.32716769 L127.686515,5.32716769 C127.801626,5.43250663 127.903766,5.50819462 127.995368,5.55345135 C128.08616,5.59948837 128.184247,5.62211673 128.288819,5.62211673 C128.46878,5.62211673 128.639014,5.57217827 128.797899,5.47152106 C128.955973,5.37086385 129.06703,5.24289654 129.128639,5.08761913 C129.188626,4.93624317 129.178898,4.80047298 129.099456,4.67952827 C129.019203,4.55858356 128.898418,4.49772106 128.737101,4.49772106 C128.584701,4.49772106 128.377178,4.56014413 128.112911,4.68655087 C127.849454,4.81217731 127.478992,5.02597635 127.002338,5.32716769 C126.861287,5.0626499 126.665923,4.86445663 126.416247,4.73414846 C126.166571,4.60384029 125.853665,4.53907635 125.479151,4.53907635 C124.680673,4.53907635 123.917053,4.77784462 123.18748,5.25538115 C122.457907,5.73291769 121.956122,6.31501288 121.682938,7.00088644 C121.515136,7.42146192 121.470551,7.80068212 121.549183,8.13932731 C121.627814,8.47719221 121.827231,8.75887635 122.146622,8.98281913 C121.570259,9.22470856 121.125219,9.45957538 120.811503,9.68585904 C120.497786,9.91214269 120.291885,10.1485701 120.193798,10.3951412 C120.097332,10.637811 120.119219,10.8508297 120.26027,11.0334172 C120.40051,11.2160047 120.649376,11.3603581 121.006866,11.4649167 C120.383487,11.7302148 119.906021,11.9900509 119.574471,12.2436446 L119.574471,12.2436446 Z M130.58049,11.4649167 L130.687494,11.1980581 C130.496183,11.1886946 130.385937,11.1169081 130.356754,10.9819182 C130.327571,10.8469283 130.37702,10.6198643 130.50429,10.2991658 L132.140155,6.19796962 C132.649235,5.97012538 133.077252,5.79846192 133.424204,5.68375952 C133.771157,5.5698374 134.037857,5.51287635 134.222682,5.51287635 C134.469926,5.51287635 134.615841,5.57920087 134.660426,5.71106962 C134.705011,5.84371865 134.654751,6.0910701 134.511269,6.45234365 L132.976733,10.2991658 C132.848652,10.6198643 132.716518,10.8469283 132.579521,10.9819182 C132.442523,11.1169081 132.275532,11.1886946 132.076926,11.1980581 L131.969922,11.4649167 L134.299692,11.4649167 L134.406696,11.1980581 C134.215386,11.1886946 134.106761,11.1169081 134.079199,10.9819182 C134.052448,10.8469283 134.102708,10.6198643 134.230788,10.2991658 L135.865843,6.19796962 C136.366006,5.97012538 136.789159,5.79846192 137.136111,5.68375952 C137.483875,5.5698374 137.749763,5.51287635 137.935399,5.51287635 C138.181833,5.51287635 138.328558,5.57998115 138.374765,5.71497106 C138.42016,5.84996096 138.372333,6.09575183 138.229661,6.45234365 L136.695935,10.2991658 C136.567855,10.6198643 136.435721,10.8469283 136.298723,10.9819182 C136.161726,11.1169081 135.993113,11.1910355 135.792886,11.2050807 L135.689124,11.4649167 L138.011599,11.4649167 L138.111308,11.1980581 C137.92324,11.1933763 137.814614,11.1223701 137.786242,10.9850393 C137.75787,10.8477086 137.808129,10.6198643 137.935399,10.2991658 L139.710694,5.84840038 C139.874443,5.43718837 139.910922,5.11570952 139.82013,4.88474413 C139.729339,4.65455904 139.520195,4.53907635 139.192697,4.53907635 C138.779272,4.53907635 137.832448,4.90659221 136.351415,5.64318452 L136.022296,5.80782538 L136.100928,5.60885183 C136.237925,5.2655249 136.251706,5.0017874 136.143081,4.81685904 C136.033645,4.63115038 135.81072,4.53907635 135.473495,4.53907635 C135.06007,4.53907635 134.113246,4.90659221 132.632212,5.64318452 L132.295798,5.80782538 L132.801635,4.53907635 L132.573846,4.53907635 C132.265804,4.76301913 131.946413,4.95262923 131.616484,5.10790663 C131.285744,5.26318404 130.951761,5.37788644 130.613726,5.45045327 L130.52942,5.66347202 C130.7337,5.68610038 130.853674,5.75866721 130.888532,5.87961192 C130.923389,6.00055663 130.879615,6.21435567 130.757209,6.52100904 L129.250234,10.2991658 C129.126207,10.6105009 128.994884,10.8352239 128.856265,10.9748956 C128.717646,11.1145672 128.551465,11.1886946 128.357723,11.1980581 L128.250719,11.4649167 L130.58049,11.4649167 Z M144.61667,10.0869273 C144.265664,10.370172 143.927628,10.5909937 143.600941,10.7486119 C143.274255,10.9062302 142.997017,10.9850393 142.769228,10.9850393 C142.460375,10.9850393 142.252041,10.8718975 142.145848,10.6456138 C142.038844,10.4193302 142.057489,10.1259417 142.200971,9.76466817 C142.376069,9.32536577 142.712483,8.94068356 143.211025,8.60906096 C143.708756,8.27743837 144.516151,7.92006625 145.634019,7.53538404 L144.61667,10.0869273 Z M146.267127,10.8071336 C146.177957,10.8984273 146.095272,10.9655321 146.019072,11.0092283 C145.942061,11.0529244 145.863429,11.0747725 145.783176,11.0747725 C145.67374,11.0747725 145.612132,11.0256143 145.599162,10.927298 C145.586192,10.8289816 145.62267,10.6721437 145.708598,10.4575643 L147.316091,6.42503356 C147.584412,5.7524249 147.610352,5.27020663 147.394723,4.97759846 C147.179093,4.68499029 146.693522,4.53907635 145.938008,4.53907635 C145.216541,4.53907635 144.555061,4.68030856 143.95519,4.96355327 C143.355318,5.24757827 142.978372,5.5838826 142.823541,5.97168596 C142.748151,6.15973548 142.749773,6.31579317 142.828404,6.4421999 C142.906226,6.56782635 143.038359,6.63024942 143.223185,6.63024942 C143.403957,6.63024942 143.592024,6.57016721 143.787388,6.44844221 C143.982751,6.3274975 144.148121,6.16831865 144.283498,5.97168596 C144.603699,5.51521721 144.865535,5.22104846 145.069816,5.09074029 C145.274096,4.96043212 145.510802,4.89566817 145.781555,4.89566817 C146.08068,4.89566817 146.265505,4.99788596 146.33522,5.20388212 C146.405746,5.40987827 146.356297,5.72277394 146.189305,6.14334942 L145.787229,7.15148212 C144.020041,7.74606192 142.7976,8.25481 142.118286,8.67772635 C141.438973,9.10064269 140.986637,9.59534558 140.760469,10.1626153 C140.578076,10.6198643 140.571591,10.984259 140.741014,11.2557994 C140.910437,11.5281201 141.23226,11.6638903 141.707293,11.6638903 C142.063974,11.6638903 142.470103,11.5757177 142.927302,11.4001528 C143.385312,11.2245879 143.874937,10.9694336 144.397798,10.6354701 L144.380774,10.6768254 C144.249451,11.0061071 144.227564,11.2526783 144.313491,11.4173191 C144.40023,11.58196 144.597214,11.6638903 144.906067,11.6638903 C145.134667,11.6638903 145.375426,11.6045884 145.629155,11.4859845 C145.883695,11.3673807 146.14472,11.1910355 146.413852,10.9577292 L146.267127,10.8071336 Z M150.691583,11.4649167 L150.790481,11.1980581 C150.602413,11.1933763 150.493788,11.1223701 150.466226,10.9850393 C150.437043,10.8477086 150.487303,10.6198643 150.614573,10.2991658 L153.018922,4.2714374 L152.754655,4.2714374 C152.429589,4.50474365 152.104524,4.69669462 151.78108,4.84729029 C151.456825,4.99788596 151.130138,5.11258837 150.799398,5.19061721 L150.717524,5.39583308 C150.917751,5.41924173 151.035294,5.49180856 151.071772,5.61509413 C151.108251,5.73916 151.064476,5.95608019 150.940449,6.266635 L149.332145,10.2991658 C149.208118,10.6105009 149.073552,10.8367845 148.929259,10.9780167 C148.784965,11.1200292 148.619595,11.1933763 148.432338,11.1980581 L148.326145,11.4649167 L150.691583,11.4649167 Z M153.527192,2.88954654 C153.764708,2.72256481 153.928457,2.52515183 154.020059,2.29652731 C154.116525,2.0538576 154.114093,1.85254317 154.011142,1.69258404 C153.909002,1.5326249 153.733904,1.45225519 153.487471,1.45225519 C153.24509,1.45225519 153.005142,1.53574606 152.767625,1.70272779 C152.530108,1.86970952 152.365549,2.06790279 152.274758,2.29652731 C152.184777,2.5204701 152.193694,2.71710279 152.299077,2.8856451 C152.40527,3.05496769 152.577125,3.14001913 152.814642,3.14001913 C153.052158,3.14001913 153.289675,3.05652827 153.527192,2.88954654 L153.527192,2.88954654 Z M155.441916,11.4649167 L155.54892,11.1980581 C155.35761,11.1886946 155.248174,11.1169081 155.221423,10.9819182 C155.194672,10.8469283 155.244932,10.6198643 155.372202,10.2991658 L159.028985,1.12999606 L158.765528,1.12999606 C158.457486,1.35471913 158.138906,1.54276865 157.809787,1.69570519 C157.479858,1.84942202 157.145875,1.96490471 156.806218,2.04215327 L156.721102,2.25517202 C156.927814,2.27311865 157.047788,2.34334462 157.082646,2.46428933 C157.117503,2.58523404 157.073729,2.79903308 156.952133,3.10568644 L154.083289,10.2991658 C153.959261,10.6105009 153.827127,10.8352239 153.688509,10.9748956 C153.54989,11.1145672 153.383709,11.1886946 153.189967,11.1980581 L153.083773,11.4649167 L155.441916,11.4649167 Z M158.839296,11.4102965 C158.947922,11.5796191 159.118155,11.6638903 159.350808,11.6638903 C159.588325,11.6638903 159.827463,11.5803994 160.067411,11.414198 C160.30736,11.2472162 160.47273,11.049023 160.563521,10.8203985 C160.658366,10.5831908 160.654312,10.3826566 160.550551,10.2203566 C160.445979,10.0580566 160.270881,9.97690663 160.023637,9.97690663 C159.781256,9.97690663 159.542118,10.0596172 159.305412,10.2242581 C159.068706,10.3888989 158.904147,10.5870922 158.810924,10.8203985 C158.721754,11.0443412 158.731481,11.2409739 158.839296,11.4102965 L158.839296,11.4102965 Z M167.98166,10.6456138 C167.626601,10.7899672 167.283702,10.8617537 166.951341,10.8617537 C166.300399,10.8617537 165.89427,10.5707062 165.732143,9.98705038 C165.570826,9.4041749 165.685126,8.62388644 166.075042,7.64540471 C166.423616,6.77226192 166.828935,6.10043356 167.292619,5.62913933 C167.755493,5.15862538 168.241064,4.92297827 168.749334,4.92297827 C169.010359,4.92297827 169.195184,4.99242394 169.303809,5.13209558 C169.412435,5.27176721 169.445671,5.48322538 169.403518,5.7664701 C169.401086,5.78441673 169.397033,5.81874942 169.391358,5.86946817 C169.313537,6.4086475 169.46999,6.67862731 169.859096,6.67862731 C170.044732,6.67862731 170.219019,6.61776481 170.384389,6.4968201 C170.548948,6.37587538 170.669733,6.2190374 170.745933,6.02708644 C170.899143,5.64318452 170.824564,5.29907731 170.523818,4.99476481 C170.222261,4.69045231 169.78857,4.53907635 169.223556,4.53907635 C168.287271,4.53907635 167.387464,4.88396385 166.523324,5.57451913 C165.659185,6.26507442 165.007433,7.16084558 164.568068,8.26261288 C164.157886,9.29103308 164.08736,10.115798 164.358113,10.7345667 C164.628866,11.3541158 165.192258,11.6638903 166.04667,11.6638903 C166.507922,11.6638903 167.012949,11.5335821 167.563372,11.2729658 C168.113794,11.0123494 168.663406,10.6424927 169.210586,10.1626153 L169.052512,10.0042167 C168.692589,10.2882417 168.335909,10.5020408 167.98166,10.6456138 L167.98166,10.6456138 Z M173.086242,10.4981393 C173.027065,9.96832346 173.215944,9.15682346 173.651256,8.06363933 C174.072787,7.00790904 174.525122,6.21513596 175.008262,5.68766096 C175.492212,5.15940567 176.006967,4.89566817 176.553336,4.89566817 C177.104569,4.89566817 177.408558,5.16018596 177.465303,5.69078212 C177.522048,6.22137827 177.330737,7.03756 176.891372,8.13932731 C176.470651,9.1950576 176.019937,9.98548981 175.540851,10.5082831 C175.060954,11.0318566 174.54782,11.2940336 174.002262,11.2940336 C173.451028,11.2940336 173.145418,11.0287355 173.086242,10.4981393 L173.086242,10.4981393 Z M176.46903,10.6627802 C177.319388,9.99563356 177.953306,9.13809654 178.371595,8.09094942 C178.786641,7.04848404 178.83609,6.19640904 178.51832,5.53316385 C178.201361,4.86991865 177.593384,4.53907635 176.696008,4.53907635 C175.792959,4.53907635 174.919092,4.86991865 174.072787,5.53316385 C173.226482,6.19640904 172.595806,7.04848404 172.17995,8.09094942 C171.762472,9.13809654 171.712212,9.99563356 172.030792,10.6627802 C172.348562,11.3307071 172.95654,11.6638903 173.853915,11.6638903 C174.747237,11.6638903 175.618672,11.3307071 176.46903,10.6627802 L176.46903,10.6627802 Z M181.719526,11.4649167 L181.825719,11.1980581 C181.63522,11.1886946 181.524973,11.1169081 181.49579,10.9819182 C181.465797,10.8469283 181.515245,10.6198643 181.642515,10.2991658 L183.278381,6.19796962 C183.787461,5.97012538 184.215477,5.79846192 184.563241,5.68375952 C184.910193,5.5698374 185.176082,5.51287635 185.361718,5.51287635 C185.608152,5.51287635 185.754066,5.57920087 185.798651,5.71106962 C185.843237,5.84371865 185.793788,6.0910701 185.649494,6.45234365 L184.114958,10.2991658 C183.987688,10.6198643 183.855555,10.8469283 183.718557,10.9819182 C183.581559,11.1169081 183.413757,11.1886946 183.215151,11.1980581 L183.108958,11.4649167 L185.438729,11.4649167 L185.544922,11.1980581 C185.353612,11.1886946 185.244986,11.1169081 185.218235,10.9819182 C185.190674,10.8469283 185.241744,10.6198643 185.369014,10.2991658 L187.004879,6.19796962 C187.504232,5.97012538 187.927384,5.79846192 188.275148,5.68375952 C188.6221,5.5698374 188.887989,5.51287635 189.073625,5.51287635 C189.320059,5.51287635 189.466784,5.57998115 189.51299,5.71497106 C189.559197,5.84996096 189.510558,6.09575183 189.368697,6.45234365 L187.834161,10.2991658 C187.706891,10.6198643 187.573947,10.8469283 187.43776,10.9819182 C187.300762,11.1169081 187.132149,11.1910355 186.931922,11.2050807 L186.828161,11.4649167 L189.150636,11.4649167 L189.250344,11.1980581 C189.061465,11.1933763 188.953651,11.1223701 188.925278,10.9850393 C188.896906,10.8477086 188.946355,10.6198643 189.073625,10.2991658 L190.84892,5.84840038 C191.012669,5.43718837 191.049958,5.11570952 190.959167,4.88474413 C190.868375,4.65455904 190.659231,4.53907635 190.330923,4.53907635 C189.917498,4.53907635 188.970674,4.90659221 187.48964,5.64318452 L187.160522,5.80782538 L187.239964,5.60885183 C187.376962,5.2655249 187.390743,5.0017874 187.281307,4.81685904 C187.172681,4.63115038 186.948945,4.53907635 186.61172,4.53907635 C186.199106,4.53907635 185.251472,4.90659221 183.770438,5.64318452 L183.434023,5.80782538 L183.939861,4.53907635 L183.712072,4.53907635 C183.40403,4.76301913 183.085449,4.95262923 182.754709,5.10790663 C182.42478,5.26318404 182.089987,5.37788644 181.752762,5.45045327 L181.667645,5.66347202 C181.872736,5.68610038 181.9919,5.75866721 182.026757,5.87961192 C182.061615,6.00055663 182.01784,6.21435567 181.896245,6.52100904 L180.389271,10.2991658 C180.265243,10.6105009 180.133109,10.8352239 179.99449,10.9748956 C179.855872,11.1145672 179.689691,11.1886946 179.495949,11.1980581 L179.389755,11.4649167 L181.719526,11.4649167 Z" transform="translate(-1 -1)"/>
</svg>
