<svg width="136" height="33" viewBox="0 0 136 33" xmlns="http://www.w3.org/2000/svg">
  <path fill="#140D00" fill-rule="evenodd" d="M3.37382258,23.9493973 C4.34858065,24.5523853 5.49027419,24.8538793 6.79817742,24.8538793 C8.89067742,24.8538793 10.8663226,24.1537755 12.7251129,22.7542926 C14.5831774,21.3540849 15.9397097,19.5429468 16.7947097,17.3201534 C17.1133387,16.4917697 17.2868065,15.700348 17.3151129,14.9451635 C17.3441452,14.1899791 17.2258387,13.487701 16.9609194,12.8376046 C16.6110806,11.9251505 15.5470484,10.8191894 13.7688226,9.51899657 C13.5975323,9.39289092 13.4676129,9.29360083 13.3776129,9.22040157 C12.2918065,8.44419951 11.6305968,7.74482044 11.3939839,7.12081486 C11.1566452,6.49680928 11.2052742,5.74959703 11.539871,4.8791781 C11.8824516,3.98846631 12.4260806,3.25429947 13.1714839,2.67740232 C13.9161613,2.10122993 14.7022097,1.81205661 15.5289032,1.81205661 C16.5334194,1.81205661 17.2149516,2.28459045 17.5735,3.22820864 C17.9320484,4.17182683 17.914629,5.45100203 17.5219677,7.06573423 L17.9755968,7.3012764 L20.9804355,3.00788611 C20.3315645,2.12732075 19.5985,1.46127995 18.7805161,1.01048847 C17.9618065,0.559696984 17.0676129,0.334301241 16.0972097,0.334301241 C14.1905161,0.334301241 12.4072097,0.98947086 10.7472903,2.2998101 C9.08737097,3.61087408 7.85204839,5.31982315 7.04204839,7.42738206 C6.7401129,8.21373055 6.55866129,8.93702622 6.49914516,9.5979938 C6.43890323,10.2582366 6.50422581,10.8452802 6.6951129,11.3591245 C6.96583871,12.1041625 7.88616129,13.1101088 9.45753226,14.3791376 C9.766,14.6306241 9.99898387,14.8248558 10.1579355,14.9611079 C11.3693065,15.9358902 12.0689839,16.7222387 12.2569677,17.3201534 C12.4449516,17.9180682 12.3738226,18.646437 12.0435806,19.5059848 C11.6001129,20.6597791 10.9643065,21.5932508 10.1376129,22.3056753 C9.31091935,23.0188246 8.44648387,23.3753992 7.54358065,23.3753992 C6.27777419,23.3753992 5.39301613,22.7912546 4.88858065,21.6215159 C4.38487097,20.452502 4.34059677,18.8667596 4.75575806,16.8642887 L4.22519355,16.564969 L0.999709677,21.2678403 C1.60793548,22.4527986 2.39906452,23.3464094 3.37382258,23.9493973 L3.37382258,23.9493973 Z M28.8764839,10.1480754 C28.8184194,11.1656176 28.2239839,13.1470708 27.091,16.0931599 C25.962371,19.0291025 25.0326129,21.0134547 24.3024516,22.0462166 C23.5722903,23.0789784 22.7847903,23.5957217 21.9414032,23.5957217 C21.1226935,23.5957217 20.749629,23.068832 20.8214839,22.0150525 C20.8933387,20.9612731 21.4855968,18.9870673 22.5975323,16.0931599 C23.7065645,13.2101236 24.6283387,11.24389 25.3650323,10.1951838 C26.101,9.14720231 26.8790645,8.62248682 27.6970484,8.62248682 C28.5411613,8.62248682 28.9338226,9.13125792 28.8764839,10.1480754 L28.8764839,10.1480754 Z M17.9980968,19.6951433 C17.9349516,20.8482128 18.0859194,21.8708282 18.4524516,22.7622648 C18.7427742,23.4333788 19.1383387,23.9392509 19.6405968,24.2798811 C20.1428548,24.6205113 20.7561613,24.7908265 21.4819677,24.7908265 C22.1990645,24.7908265 22.9459194,24.6205113 23.7225323,24.2798811 C24.4991452,23.9392509 25.294629,23.4333788 26.1097097,22.7622648 C27.1483387,21.8809747 28.0817258,20.8641572 28.9091452,19.7110877 C29.7358387,18.5572934 30.3919677,17.3513175 30.8753548,16.0931599 C31.8508387,13.5558271 32.0968871,11.4721848 31.6142258,9.84150817 C31.1315645,8.21155632 30.0464839,7.39549327 28.3589839,7.39549327 C26.6286613,7.39549327 24.8417258,8.23184918 22.996,9.904561 C21.151,11.5772728 19.7647097,13.6188799 18.8378548,16.030107 C18.3414032,17.3201534 18.0619677,18.541349 17.9980968,19.6951433 L17.9980968,19.6951433 Z M40.9872903,24.3349618 L41.2231774,23.7211026 C40.9350323,23.6587745 40.7884194,23.4804872 40.7833387,23.1862407 C40.7775323,22.8934436 40.9807581,22.2114585 41.3922903,21.1417346 L46.9004355,6.81352292 L46.2544677,6.81352292 C45.5163226,7.52667215 44.7426129,8.11951368 43.9326129,8.59132278 C43.1226129,9.06313187 42.2930161,9.40376209 41.4445484,9.61321344 L41.1970484,10.2582366 C41.532371,10.3944887 41.7080161,10.6517732 41.7232581,11.0286407 C41.7385,11.406233 41.5200323,12.182435 41.0685806,13.3565222 L38.2872903,20.591653 C37.8133387,20.9692453 37.3415645,21.2576938 36.8726935,21.456274 C36.4038226,21.6555789 35.9712419,21.7555938 35.5742258,21.7555938 C35.1612419,21.7555938 34.9224516,21.5802054 34.8593065,21.228704 C34.7961613,20.8772026 34.9057581,20.3343685 35.1880968,19.6009264 L40.1032581,6.81352292 L39.4834194,6.81352292 C38.7576129,7.51652571 37.984629,8.10646827 37.1637419,8.58335058 C36.3435806,9.06023289 35.5045484,9.40376209 34.6480968,9.61321344 L34.399871,10.2582366 C34.7482581,10.4053599 34.9282581,10.6727909 34.939871,11.0605295 C34.9507581,11.4482682 34.7366452,12.2135991 34.2975323,13.3565222 L31.0568065,21.7867578 C30.6612419,22.8144464 30.5494677,23.5718051 30.7207581,24.0595586 C30.8920484,24.5473121 31.3529355,24.7908265 32.1041452,24.7908265 C32.6942258,24.7908265 33.4635806,24.5415141 34.4100323,24.0436142 C35.3564839,23.5457143 36.496,22.7934288 37.8278548,21.7867578 L36.8487419,24.3349618 L40.9872903,24.3349618 Z M47.5217258,24.3349618 L47.7568871,23.7211026 C47.4520484,23.6587745 47.2981774,23.472515 47.2945484,23.1630488 C47.2909194,22.8535827 47.5253548,22.0853528 47.997129,20.859084 L51.4918871,11.7678808 C52.264871,11.3591245 52.9006774,11.0605295 53.3993065,10.871371 C53.8979355,10.6829373 54.3036613,10.5887204 54.6157581,10.5887204 C55.0287419,10.5887204 55.2472097,10.7510633 55.2697097,11.0764739 C55.2922097,11.4011597 55.0882581,12.1244554 54.657129,13.2463609 L51.7306774,20.859084 C51.2589032,22.0853528 50.9025323,22.8535827 50.6615645,23.1630488 C50.419871,23.472515 50.127371,23.6587745 49.7826129,23.7211026 L49.5467258,24.3349618 L54.5206774,24.3349618 L54.7565645,23.7211026 C54.4597097,23.6587745 54.3087419,23.4804872 54.3036613,23.1862407 C54.2985806,22.8934436 54.5018065,22.2114585 54.9126129,21.1417346 L58.0930968,12.8687687 C58.9676935,10.5937936 59.3785,9.11313929 59.3262419,8.42608088 C59.2739839,7.73902248 58.8297903,7.39549327 57.9951129,7.39549327 C57.4297097,7.39549327 56.6647097,7.63973239 55.7008387,8.12748588 C54.7369677,8.61451462 53.5030968,9.3878177 51.9992258,10.4466704 L53.1605161,7.42738206 L52.5399516,7.42738206 C51.8264839,8.11951368 51.0629355,8.70148404 50.2493065,9.17329314 C49.4349516,9.64510223 48.5908387,9.98573245 47.7169677,10.1951838 L47.457129,10.871371 C47.8135,11.0184943 47.997129,11.2830263 48.0058387,11.6656917 C48.0145484,12.0490819 47.8040645,12.8013674 47.3722097,13.9225481 L44.7063226,20.859084 C44.2345484,22.0853528 43.8781774,22.8535827 43.6364839,23.1630488 C43.3955161,23.472515 43.1022903,23.6587745 42.7575323,23.7211026 L42.5216452,24.3349618 L47.5217258,24.3349618 Z M64.1477742,21.6215159 C63.7776129,21.8157476 63.4161613,21.9128634 63.0619677,21.9128634 C62.1924516,21.9128634 61.7475323,21.3359663 61.7272097,20.1828968 C61.7061613,19.0291025 62.1111613,17.3723351 62.9414839,15.2125945 C63.7834194,13.0209652 64.5752742,11.3960865 65.3155968,10.3372339 C66.0559194,9.27765644 66.7766452,8.74859248 67.4770484,8.74859248 C68.2442258,8.74859248 68.6826129,9.16242196 68.7900323,9.99080567 C68.8974516,10.8191894 68.6637419,11.9831301 68.0867258,13.4826278 L65.299629,20.7329783 C64.9018871,21.1315882 64.5179355,21.4280089 64.1477742,21.6215159 L64.1477742,21.6215159 Z M68.041,24.3349618 L68.2768871,23.7211026 C67.9807581,23.6587745 67.8297903,23.4804872 67.8247097,23.1862407 C67.8189032,22.8934436 68.022129,22.2114585 68.4336613,21.1417346 L76.4327742,0.334301241 L75.8122097,0.334301241 C75.0951129,1.03657929 74.3301129,1.62144863 73.5179355,2.08745977 C72.7057581,2.55419565 71.862371,2.89265163 70.9892258,3.10210298 L70.7293871,3.77829021 C71.0857581,3.92541348 71.2686613,4.18994546 71.2780968,4.5726109 C71.2868065,4.95527634 71.0741452,5.71263503 70.6386613,6.8454117 L69.7858387,9.06313187 C69.5644677,8.49710591 69.2770484,8.08255168 68.922129,7.82019393 C68.5672097,7.55856093 68.1237419,7.42738206 67.5924516,7.42738206 C66.2003548,7.42738206 64.6587419,8.34201044 62.9676129,10.171992 C61.2772097,12.0019735 59.9061613,14.2849207 58.8537419,17.0215584 C57.934871,19.4117679 57.5806774,21.3048023 57.7911613,22.6992119 C58.002371,24.0936216 58.7405161,24.7908265 60.0063226,24.7908265 C60.5630161,24.7908265 61.2191452,24.5806504 61.9754355,24.1617477 C62.7317258,23.7421202 63.6542258,23.0818774 64.7436613,22.1802944 L63.9147903,24.3349618 L68.041,24.3349618 Z M78.9730968,21.4722184 C78.4004355,21.8077754 77.8531774,21.9751915 77.329871,21.9751915 C76.1990645,21.9751915 75.5915645,21.3279941 75.507371,20.0328745 C75.4231774,18.7384797 75.8688226,16.8222535 76.8443065,14.2849207 C77.5897097,12.3447779 78.2719677,10.9213784 78.8903548,10.0147223 C79.5094677,9.10734133 80.101,8.65437561 80.6664032,8.65437561 C81.0968065,8.65437561 81.3769677,8.80874632 81.5068871,9.1182125 C81.6368065,9.42767868 81.6469677,10.0226945 81.5359194,10.9032598 C81.4263226,11.846878 81.4451935,12.4679846 81.5918065,12.7665796 C81.7384194,13.0658994 82.039629,13.2151969 82.4954355,13.2151969 C82.8750323,13.2151969 83.2618871,13.0477807 83.6567258,12.711499 C84.0515645,12.3766667 84.3455161,11.9570393 84.5393065,11.4533414 C84.9588226,10.3633247 84.897129,9.41970649 84.3556774,8.62248682 C83.8135,7.8259919 82.9309194,7.42738206 81.7079355,7.42738206 C79.9609194,7.42738206 78.2335,8.2659122 76.5256774,9.94369723 C74.8178548,11.6214823 73.4235806,13.8652933 72.3428548,16.6751302 C71.3876935,19.1602814 71.1264032,21.1337624 71.5604355,22.5970229 C71.9937419,24.0595586 73.0497903,24.7908265 74.7293065,24.7908265 C75.8172903,24.7908265 76.9118065,24.4132342 78.012129,23.6587745 C79.1124516,22.9035901 80.2076935,21.7766114 81.2993065,20.2771136 L80.8558387,19.883577 C80.172129,20.6068727 79.5450323,21.1366614 78.9730968,21.4722184 L78.9730968,21.4722184 Z M86.5265645,24.3349618 L86.7624516,23.7211026 C86.4743065,23.6587745 86.3276935,23.4804872 86.3226129,23.1862407 C86.3168065,22.8934436 86.5200323,22.2114585 86.9308387,21.1417346 L94.9299516,0.334301241 L94.0945484,0.334301241 C93.3774516,1.03657929 92.614629,1.62144863 91.8068065,2.08745977 C90.9989839,2.55419565 90.162129,2.89265163 89.2969677,3.10210298 L89.037129,3.77829021 C89.3855161,3.92541348 89.5640645,4.18487224 89.5727742,4.55666651 C89.5814839,4.92918552 89.3644677,5.69234216 88.921,6.8454117 L83.5340645,20.859084 L83.4251935,21.1417346 C83.0136613,22.2114585 82.6928548,22.8934436 82.4620484,23.1862407 C82.2305161,23.4804872 81.9474516,23.6587745 81.6106774,23.7211026 L81.3747903,24.3349618 L86.5265645,24.3349618 Z M101.406323,10.1480754 C101.348258,11.1656176 100.753097,13.1470708 99.6208387,16.0931599 C98.4922097,19.0291025 97.5624516,21.0134547 96.8322903,22.0462166 C96.1014032,23.0789784 95.314629,23.5957217 94.4712419,23.5957217 C93.6525323,23.5957217 93.2794677,23.068832 93.3513226,22.0150525 C93.4224516,20.9612731 94.0147097,18.9870673 95.127371,16.0931599 C96.2356774,13.2101236 97.1581774,11.24389 97.894871,10.1951838 C98.6308387,9.14720231 99.4081774,8.62248682 100.226887,8.62248682 C101.071,8.62248682 101.463661,9.13125792 101.406323,10.1480754 L101.406323,10.1480754 Z M90.5279355,19.6951433 C90.4640645,20.8482128 90.6157581,21.8708282 90.9815645,22.7622648 C91.2718871,23.4333788 91.6681774,23.9392509 92.1704355,24.2798811 C92.6719677,24.6205113 93.286,24.7908265 94.0118065,24.7908265 C94.7289032,24.7908265 95.4757581,24.6205113 96.252371,24.2798811 C97.0282581,23.9392509 97.8244677,23.4333788 98.6395484,22.7622648 C99.6781774,21.8809747 100.610839,20.8641572 101.438258,19.7110877 C102.265677,18.5572934 102.921081,17.3513175 103.405194,16.0931599 C104.380677,13.5558271 104.626726,11.4721848 104.144065,9.84150817 C103.661403,8.21155632 102.576323,7.39549327 100.888823,7.39549327 C99.1585,7.39549327 97.3708387,8.23184918 95.5258387,9.904561 C93.6801129,11.5772728 92.2945484,13.6188799 91.3669677,16.030107 C90.8712419,17.3201534 90.5918065,18.541349 90.5279355,19.6951433 L90.5279355,19.6951433 Z M113.517129,24.3349618 L113.753016,23.7211026 C113.464871,23.6587745 113.318258,23.4804872 113.313177,23.1862407 C113.307371,22.8934436 113.510597,22.2114585 113.921403,21.1417346 L119.429548,6.81352292 L118.784306,6.81352292 C118.046161,7.52667215 117.271726,8.11951368 116.461726,8.59132278 C115.651726,9.06313187 114.822855,9.40376209 113.974387,9.61321344 L113.726161,10.2582366 C114.06221,10.3944887 114.237855,10.6517732 114.253097,11.0286407 C114.267613,11.406233 114.049871,12.182435 113.598419,13.3565222 L110.817129,20.591653 C110.343177,20.9692453 109.871403,21.2576938 109.402532,21.456274 C108.933661,21.6555789 108.501081,21.7555938 108.104065,21.7555938 C107.690355,21.7555938 107.45229,21.5802054 107.389145,21.228704 C107.326,20.8772026 107.435597,20.3343685 107.71721,19.6009264 L112.633097,6.81352292 L112.012532,6.81352292 C111.287452,7.51652571 110.513742,8.10646827 109.693581,8.58335058 C108.872694,9.06023289 108.034387,9.40376209 107.17721,9.61321344 L106.92971,10.2582366 C107.278097,10.4053599 107.458097,10.6727909 107.468984,11.0605295 C107.480597,11.4482682 107.266484,12.2135991 106.826645,13.3565222 L103.585919,21.7867578 C103.191081,22.8144464 103.079306,23.5718051 103.250597,24.0595586 C103.421887,24.5473121 103.882774,24.7908265 104.633984,24.7908265 C105.224065,24.7908265 105.992694,24.5415141 106.939871,24.0436142 C107.886323,23.5457143 109.025839,22.7934288 110.357694,21.7867578 L109.378581,24.3349618 L113.517129,24.3349618 Z M123.15729,21.6215159 C122.787129,21.8157476 122.424952,21.9128634 122.070758,21.9128634 C121.201242,21.9128634 120.756323,21.3359663 120.736,20.1828968 C120.714952,19.0291025 121.119952,17.3723351 121.950274,15.2125945 C122.792935,13.0209652 123.584065,11.3960865 124.324387,10.3372339 C125.06471,9.27765644 125.785435,8.74859248 126.485839,8.74859248 C127.253742,8.74859248 127.691403,9.16242196 127.798823,9.99080567 C127.906968,10.8191894 127.672532,11.9831301 127.096242,13.4826278 L124.308419,20.7329783 C123.910677,21.1315882 123.526726,21.4280089 123.15729,21.6215159 L123.15729,21.6215159 Z M127.050516,24.3349618 L127.286403,23.7211026 C126.989548,23.6587745 126.838581,23.4804872 126.8335,23.1862407 C126.828419,22.8934436 127.030919,22.2114585 127.442452,21.1417346 L135.441565,0.334301241 L134.821,0.334301241 C134.103903,1.03657929 133.338903,1.62144863 132.526726,2.08745977 C131.714548,2.55419565 130.871887,2.89265163 129.998016,3.10210298 L129.738177,3.77829021 C130.094548,3.92541348 130.278177,4.18994546 130.286887,4.5726109 C130.295597,4.95527634 130.082935,5.71263503 129.647452,6.8454117 L128.795355,9.06313187 C128.573984,8.49710591 128.285839,8.08255168 127.930919,7.82019393 C127.576,7.55856093 127.133258,7.42738206 126.601242,7.42738206 C125.209145,7.42738206 123.667532,8.34201044 121.977129,10.171992 C120.286,12.0019735 118.914952,14.2849207 117.863258,17.0215584 C116.943661,19.4117679 116.589468,21.3048023 116.800677,22.6992119 C117.011161,24.0936216 117.749306,24.7908265 119.015113,24.7908265 C119.571806,24.7908265 120.228661,24.5806504 120.984226,24.1617477 C121.740516,23.7421202 122.663016,23.0818774 123.752452,22.1802944 L122.924306,24.3349618 L127.050516,24.3349618 Z"/>
</svg>
