<svg width="85" height="33" viewBox="0 0 85 33" xmlns="http://www.w3.org/2000/svg">
  <path fill="#140D00" fill-rule="evenodd" d="M2.60912097,24.5495855 C3.58387903,25.1525735 4.72557258,25.4540675 6.03347581,25.4540675 C8.12597581,25.4540675 10.101621,24.7539637 11.9604113,23.3544808 C13.8184758,21.9542731 15.1750081,20.143135 16.0300081,17.9203416 C16.3486371,17.0919579 16.5221048,16.3005362 16.5504113,15.5453517 C16.5794435,14.7901673 16.4611371,14.0878892 16.1962177,13.4377928 C15.846379,12.5253387 14.7823468,11.4193776 13.004121,10.1191848 C12.8328306,9.99307911 12.7029113,9.89378902 12.6129113,9.82058976 C11.5271048,9.0443877 10.8658952,8.34500863 10.6292823,7.72100305 C10.3919435,7.09699747 10.4405726,6.34978522 10.7751694,5.47936629 C11.11775,4.5886545 11.661379,3.85448765 12.4067823,3.27759051 C13.1514597,2.70141811 13.9375081,2.41296954 14.7642016,2.41296954 C15.7687177,2.41296954 16.45025,2.88477864 16.8087984,3.82839683 C17.1673468,4.77201502 17.1499274,6.05119022 16.7572661,7.66592242 L17.2108952,7.90146459 L20.2157339,3.6080743 C19.5668629,2.72750894 18.8337984,2.06146814 18.0158145,1.61067666 C17.1971048,1.15988517 16.3029113,0.93448943 15.3325081,0.93448943 C13.4258145,0.93448943 11.6425081,1.58965905 9.98258871,2.89999829 C8.32266935,4.21106227 7.08734677,5.92001134 6.27734677,8.02757025 C5.97541129,8.81391874 5.79395968,9.53721441 5.73444355,10.198182 C5.67420161,10.8584248 5.73952419,11.4454684 5.93041129,11.9593127 C6.2011371,12.7043507 7.12145968,13.710297 8.69283065,14.9793258 C9.00129839,15.2308123 9.23428226,15.425044 9.39323387,15.5612961 C10.6046048,16.5360784 11.3042823,17.3224268 11.4922661,17.9203416 C11.68025,18.5182564 11.609121,19.2466252 11.278879,20.106173 C10.8354113,21.2599673 10.1996048,22.193439 9.37291129,22.9058635 C8.54621774,23.6190127 7.68178226,23.9755874 6.77887903,23.9755874 C5.51307258,23.9755874 4.62831452,23.3914428 4.12387903,22.2217041 C3.62016935,21.0526902 3.57589516,19.4669478 3.99105645,17.4644769 L3.46049194,17.1651571 L0.235008065,21.8680285 C0.843233871,23.0529868 1.6343629,23.9465976 2.60912097,24.5495855 L2.60912097,24.5495855 Z M24.0429113,11.9912015 C24.4421048,11.6556445 24.8362177,11.4034332 25.22525,11.236017 C25.6150081,11.0686009 26.0076694,10.9845305 26.4046855,10.9845305 C27.3068629,10.9845305 27.7503306,11.506347 27.7329113,12.5492553 C27.7154919,13.5928883 27.2154113,15.3931552 26.2319435,17.9515056 C25.4096048,20.0909533 24.6308145,21.6556781 23.8955726,22.6464047 C23.1603306,23.6371314 22.4047661,24.1328571 21.6281532,24.1328571 C20.8268629,24.1328571 20.4276694,23.6711944 20.43275,22.7485938 C20.4371048,21.8259932 20.86025,20.2692406 21.7029113,18.0776113 L24.0429113,11.9912015 Z M17.1753306,32.0282308 L17.4112177,31.4150964 C17.1107339,31.3411724 16.9583145,31.1498396 16.9546855,30.8410982 C16.9510565,30.531632 17.1854919,29.7634022 17.6572661,28.5364086 L19.3258952,24.1959099 C19.5349274,24.5945197 19.821621,24.8931147 20.1837984,25.0924196 C20.5459758,25.2909998 20.9967016,25.3910146 21.5367016,25.3910146 C23.1146048,25.3910146 24.7150081,24.5155225 26.3371855,22.7645382 C27.9600887,21.0135539 29.3412984,18.6545084 30.4822661,15.686677 C31.3808145,13.3486492 31.7422661,11.4875036 31.5651694,10.1032404 C31.3887984,8.71970187 30.7094435,8.02757025 29.5285565,8.02757025 C28.93775,8.02757025 28.2271855,8.23484736 27.3968629,8.64867685 C26.5672661,9.06323107 25.6317016,9.67853971 24.5923468,10.496777 L25.5409758,8.02757025 L24.9211371,8.02757025 C24.1953306,8.7298483 23.4303306,9.31471764 22.6268629,9.78145352 C21.8226694,10.2474647 20.9887177,10.5859206 20.1228306,10.795372 L19.8629919,11.4715592 C20.2070242,11.6085361 20.3855726,11.8629216 20.3986371,12.2347159 C20.4117016,12.6072349 20.1968629,13.3696668 19.7533952,14.5227363 L14.3664597,28.5364086 L14.2510565,28.8357284 C13.8446048,29.894581 13.5259758,30.5678693 13.2973468,30.8563178 C13.0679919,31.1447664 12.7776694,31.3310259 12.4242016,31.4150964 L12.1883145,32.0282308 L17.1753306,32.0282308 Z M41.7025081,10.7482636 C41.6444435,11.7658058 41.0492823,13.747259 39.9170242,16.6933481 C38.7883952,19.6292907 37.8586371,21.6136429 37.1284758,22.6464047 C36.3983145,23.6791666 35.6108145,24.1959099 34.7674274,24.1959099 C33.9487177,24.1959099 33.5756532,23.6690202 33.6475081,22.6152407 C33.7186371,21.5614613 34.3108952,19.5872555 35.4235565,16.6933481 C36.5318629,13.8103118 37.4543629,11.8440782 38.1910565,10.795372 C38.9270242,9.7473905 39.7050887,9.22267501 40.5230726,9.22267501 C41.3671855,9.22267501 41.7598468,9.73144611 41.7025081,10.7482636 L41.7025081,10.7482636 Z M30.824121,20.2953315 C30.76025,21.448401 30.9119435,22.4710164 31.27775,23.362453 C31.5680726,24.033567 31.9643629,24.5394391 32.466621,24.8800693 C32.9681532,25.2206995 33.5821855,25.3910146 34.3079919,25.3910146 C35.0250887,25.3910146 35.7719435,25.2206995 36.5485565,24.8800693 C37.3251694,24.5394391 38.1206532,24.033567 38.9357339,23.362453 C39.9743629,22.4811629 40.9070242,21.4643454 41.7351694,20.3112759 C42.5618629,19.1574816 43.2179919,17.9515056 43.701379,16.6933481 C44.6768629,14.1560153 44.9229113,12.072373 44.44025,10.4416964 C43.9575887,8.81174451 42.8725081,7.99568146 41.1850081,7.99568146 C39.4546855,7.99568146 37.66775,8.83203737 35.8220242,10.5047492 C33.9770242,12.177461 32.5907339,14.2190681 31.6631532,16.6302952 C31.1674274,17.9203416 30.8879919,19.1422619 30.824121,20.2953315 L30.824121,20.2953315 Z M44.6050081,21.5534891 C44.1092823,22.8428107 43.971379,23.8052722 44.1912984,24.4394243 C44.4119435,25.0735763 44.9983952,25.3910146 45.9521048,25.3910146 C46.6104113,25.3910146 47.3231532,25.1446013 48.0903306,24.6517746 C48.8582339,24.1589479 49.6362984,23.4465234 50.42525,22.5130516 L50.0746855,22.0093538 C49.7045242,22.3347643 49.3989597,22.5652333 49.1565403,22.7014854 C48.9148468,22.8377375 48.7007339,22.9058635 48.5149274,22.9058635 C48.1774274,22.9058635 47.9901694,22.756566 47.9531532,22.457971 C47.9161371,22.1586513 48.0344435,21.6535039 48.3087984,20.9403547 L52.1483145,10.9526417 L54.9709758,10.9526417 L55.5995242,9.31689188 L52.7768629,9.31689188 L55.491379,2.2549751 L54.5296855,2.2549751 C53.1847661,4.19511788 51.9225887,5.78883247 50.7424274,7.03684362 C49.5622661,8.28485478 48.4423468,9.21252858 47.3812177,9.82058976 L46.9464597,10.9526417 L48.6804113,10.9526417 L44.6050081,21.5534891 Z M62.5759758,5.24382411 C63.1704113,4.74012623 63.6008145,4.14293623 63.8664597,3.4508046 C64.1364597,2.74852655 64.169121,2.15278603 63.9644435,1.66575729 C63.7597661,1.1780038 63.3700081,0.93448943 62.796621,0.93448943 C62.2392016,0.93448943 61.6679919,1.18090278 61.0822661,1.67372949 C60.4958145,2.16655619 60.0697661,2.75867298 59.804121,3.4508046 C59.5421048,4.13206505 59.5130726,4.72708082 59.7184758,5.23585192 C59.923879,5.74462302 60.3005726,5.99828382 60.8492823,5.99828382 C61.4067016,5.99828382 61.9822661,5.74679725 62.5759758,5.24382411 L62.5759758,5.24382411 Z M61.2296048,7.41443585 C60.5117823,8.1167139 59.7431532,8.70665646 58.9229919,9.18353877 C58.1021048,9.66042108 57.2594435,10.0039503 56.3942823,10.2134016 L56.1460565,10.8584248 C56.5031532,11.0055481 56.6846048,11.272979 56.6918629,11.6607177 C56.699121,12.0484564 56.4828306,12.8137872 56.0437177,13.9567104 L53.1593629,21.4592722 C52.6875887,22.685541 52.3333952,23.4537708 52.0967823,23.763237 C51.8594435,24.0727032 51.5640403,24.2589627 51.2112984,24.3212908 L50.9754113,24.9351499 L56.1264597,24.9351499 L56.3623468,24.3212908 C56.0742016,24.2589627 55.9275887,24.0806754 55.9225081,23.7864289 C55.9167016,23.4936318 56.1199274,22.8116466 56.5314597,21.7419228 L62.0396048,7.41443585 L61.2296048,7.41443585 Z M63.3917823,24.9351499 L63.6276694,24.3212908 C63.3308145,24.2589627 63.1798468,24.0806754 63.1747661,23.7864289 C63.1696855,23.4936318 63.3729113,22.8116466 63.7837177,21.7419228 L68.264121,10.0880207 L70.7318629,10.0880207 L71.3669435,8.43632652 L68.8483952,8.43632652 C68.8447661,8.26891039 68.8425887,8.02249703 68.8411371,7.69708646 C68.83025,4.96044876 68.8926694,3.4138426 69.0298468,3.05726799 C69.1183952,2.82679903 69.2533952,2.63546631 69.434121,2.48326982 C69.6148468,2.33179809 69.7984758,2.2549751 69.9842823,2.2549751 C70.228879,2.2549751 70.3210565,2.6064765 70.2622661,3.30875455 C70.2622661,3.33049691 70.2608145,3.34571656 70.2571855,3.35658773 C70.1947661,4.11104744 70.2259758,4.64373513 70.3522661,4.95247656 C70.4778306,5.26194274 70.7180726,5.41631346 71.0722661,5.41631346 C71.3930726,5.41631346 71.7392823,5.26194274 72.1108952,4.95247656 C72.4832339,4.64373513 72.7437984,4.29513271 72.8933145,3.90666931 C73.1996048,3.11017438 73.1669435,2.41514378 72.7953306,1.82302699 C72.4237177,1.23018545 71.8292823,0.93448943 71.0105726,0.93448943 C70.0147661,0.93448943 69.0980726,1.27801863 68.2604919,1.96435229 C67.4229113,2.6514107 66.7762177,3.58705669 66.3204113,4.77201502 C66.1389597,5.24382411 65.9734758,5.77868604 65.8239597,6.37587604 C65.6744435,6.9737908 65.5350887,7.6608492 65.4051694,8.43632652 L63.3801694,8.43632652 L62.7458145,10.0880207 L64.7962177,10.0880207 L60.4246855,21.4592722 C59.9529113,22.685541 59.5965403,23.4537708 59.3555726,23.763237 C59.113879,24.0727032 58.8170242,24.2589627 58.4635565,24.3212908 L58.2276694,24.9351499 L63.3917823,24.9351499 Z M69.59525,27.8290573 C69.1096855,28.521189 68.7206532,29.0161899 68.428879,29.3147849 C68.136379,29.6141047 67.8975887,29.7634022 67.7117823,29.7634022 C67.6021855,29.7634022 67.544121,29.6952761 67.5375887,29.559024 C67.5310565,29.4227719 67.5782339,29.223467 67.6783952,28.9611093 C67.6987177,28.9089276 67.7248468,28.850948 67.7575081,28.7878952 C67.7901694,28.7255671 67.8090403,28.6886051 67.8126694,28.6784587 C68.0100887,28.1646143 68.0383952,27.7348405 67.8975887,27.3884123 C67.7560565,27.0427088 67.4867823,26.8694948 67.0904919,26.8694948 C66.5504919,26.8694948 66.0184758,27.0898173 65.4951694,27.5297376 C64.9711371,27.9703826 64.5828306,28.521189 64.3287984,29.1814318 C64.0137984,29.9989443 64.0043629,30.6780305 64.2983145,31.2179657 C64.5929919,31.7579008 65.1286371,32.0282308 65.9045242,32.0282308 C66.8836371,32.0282308 67.8968629,31.5274319 68.9442016,30.5258341 C69.9915403,29.524961 71.3560565,27.7130981 73.0392016,25.0924196 L80.8815403,12.8246584 C81.5746855,11.7447881 82.1996048,10.8924878 82.7562984,10.2684823 C83.3122661,9.64520143 83.8123468,9.2386194 84.2565403,9.04946092 L84.4924274,8.43632652 L80.391621,8.43632652 L80.1557339,9.04946092 C80.3749274,9.26978344 80.4954113,9.54808558 80.5186371,9.88364259 C80.5411371,10.2191996 80.4642016,10.6170847 80.2871048,11.0787473 C80.1419435,11.4563396 79.9808145,11.8259596 79.8037177,12.1876074 C79.626621,12.5492553 79.4393629,12.8877113 79.2426694,13.2022506 L74.8174274,20.1692258 L75.8785565,11.2200727 C75.8996048,11.0106213 75.9308145,10.8142154 75.9721855,10.6301301 C76.0128306,10.4467696 76.0636371,10.2764545 76.1246048,10.1191848 C76.2211371,9.8676982 76.348879,9.66042108 76.5085565,9.49807817 C76.6682339,9.33573525 76.8925081,9.18643775 77.181379,9.04946092 L77.4172661,8.43632652 L72.1261371,8.43632652 L71.89025,9.04946092 C72.156621,9.0813497 72.3286371,9.3589271 72.4055726,9.88364259 C72.4825081,10.4076333 72.4672661,11.2041283 72.3598468,12.2738521 L70.9829919,25.8316597 L69.59525,27.8290573 Z"/>
</svg>
