<svg xmlns:xlink="http://www.w3.org/1999/xlink" width="90" height="23" viewBox="0 0 90 23" xmlns="http://www.w3.org/2000/svg">
  <defs>
    <path id="to-heart-a" d="M6.7309124,18.6882667 L2.88272762,9.0804 L1.24538939,9.0804 L0.834255115,8.05383333 C1.3941656,7.50336667 1.77890409,6.66233333 1.98687084,5.53073333 C2.19563747,4.3999 2.23003197,2.9555 2.09165409,1.19753333 L3.00030882,1.19753333 L5.56389898,7.59766667 L8.22907289,7.59766667 L8.82257801,9.0804 L6.15740409,9.0804 L9.78242455,18.1324333 C10.0415831,18.7787333 10.2967423,19.2372 10.548702,19.5078333 C10.8006618,19.7792333 11.0862161,19.9141667 11.4045652,19.9141667 C11.5797372,19.9141667 11.7325128,19.8528333 11.8620921,19.7294 C11.9916714,19.6059667 12.1132519,19.3966667 12.2268338,19.1022667 L12.9227225,19.5584333 C12.8555332,20.4040667 12.637968,21.0503667 12.2716266,21.4965667 C11.9044853,21.9435333 11.4101643,22.1666333 10.7886637,22.1666333 C9.88800767,22.1666333 9.10413299,21.8791333 8.4354399,21.3041333 C7.7667468,20.7291333 7.1988376,19.8574333 6.7309124,18.6882667 Z M13.7793855,17.5482333 C13.0019098,16.5025 12.3796093,15.3954333 11.9108843,14.2262667 C11.0358242,12.0412667 10.8622519,10.1905333 11.3901675,8.67406667 C11.918883,7.15836667 12.9995102,6.4009 14.6328491,6.4009 C16.2261944,6.4009 17.8427359,7.1392 19.4824738,8.61733333 C21.1222116,10.0954667 22.4028069,11.9837667 23.3234597,14.2837667 C23.7801867,15.4238 24.0369457,16.5170667 24.0929367,17.5620333 C24.1489277,18.6077667 24.0065505,19.5293 23.6650051,20.3281667 C23.3826503,20.9361333 22.9987116,21.3946 22.5123894,21.7035667 C22.026867,22.0125333 21.44536,22.1666333 20.7678683,22.1666333 C20.0823779,22.1666333 19.3792903,22.0125333 18.6586055,21.7035667 C17.9371208,21.3946 17.1956394,20.9361333 16.4341611,20.3281667 C15.4415198,19.5201 14.5568613,18.5939667 13.7793855,17.5482333 Z M39.5808606,21.7534 L34.8600153,21.7534 L34.6376509,21.1975667 C34.9176061,21.1400667 35.0591835,20.9721667 35.062383,20.6915667 C35.0655825,20.4109667 34.8448178,19.7148333 34.399289,18.6031667 L29.3121023,5.9018 C28.9017679,4.87523333 28.5530237,4.18906667 28.2666694,3.84176667 C27.9803152,3.49523333 27.6147737,3.25526667 27.1716445,3.12186667 L26.9260838,2.50853333 C27.5987762,2.31916667 28.1490882,2.0125 28.5770198,1.5893 C29.0057513,1.16686667 29.3033037,0.6371 29.470477,0 L30.0559834,0 L33.6930019,9.0804 C34.3688939,8.10213333 34.956,7.4152 35.4551202,7.02036667 C35.9550403,6.6263 36.4669584,6.42926667 36.9932743,6.42926667 C37.7259572,6.42926667 38.3890512,6.7022 38.9825563,7.24883333 C39.5760614,7.79546667 40.0855799,8.60046667 40.5119118,9.6646 L44.194523,18.8592333 C44.582461,19.8290667 44.8856125,20.447 45.1039776,20.7130333 C45.3223427,20.9790667 45.5934994,21.1400667 45.9198472,21.1975667 L46.1422116,21.7534 L41.4333645,21.7534 L41.211,21.1975667 C41.4901554,21.1400667 41.6333325,20.9790667 41.6381317,20.7130333 C41.6429309,20.447 41.4517615,19.8290667 41.0630237,18.8592333 L40.96064,18.6031667 L38.4314444,12.2881333 C37.9971138,11.2048333 37.5771809,10.4228333 37.1692462,9.9429 C36.7621113,9.46296667 36.3157826,9.223 35.8294604,9.223 C35.6142948,9.223 35.3735332,9.2828 35.106376,9.40163333 C34.8392187,9.52046667 34.4936739,9.7267 34.0697417,10.0211 L37.5067922,18.6031667 C37.9515211,19.7148333 38.2882673,20.4109667 38.5162308,20.6915667 C38.7441944,20.9721667 39.0249495,21.1400667 39.3584962,21.1975667 L39.5808606,21.7534 Z M55.3151451,19.0095 C55.7294789,18.7005333 56.054227,18.2229 56.2893894,17.5766 L56.9324866,18.0182 C56.7949086,19.3867 56.4301669,20.4201667 55.8374616,21.1193667 C55.2447564,21.8178 54.4344859,22.1666333 53.4066503,22.1666333 C51.7013229,22.1666333 50.0287903,21.4421333 48.3890524,19.9931333 C46.7493146,18.5441333 45.4607206,16.6497 44.5240703,14.3121333 C43.6226145,12.0596667 43.4026496,10.1828667 43.8649757,8.68173333 C44.3273018,7.17983333 45.33914,6.42926667 46.9004904,6.42926667 C48.4226471,6.42926667 49.9192078,7.09703333 51.3901726,8.4318 C52.8603376,9.76733333 54.0593459,11.5513667 54.9855978,13.7846667 L47.7195595,13.7846667 C48.497835,15.6285 49.4024904,17.0376333 50.4343254,18.0113 C51.4653606,18.9857333 52.5667845,19.4725667 53.7377973,19.4725667 C54.3752954,19.4725667 54.9008114,19.3184667 55.3151451,19.0095 Z M70.3367436,19.5584333 L71.0366317,20.1426333 C70.7934706,20.7889333 70.4695224,21.2880333 70.0647871,21.6391667 C69.6592519,21.9910667 69.2105237,22.1666333 68.7162027,22.1666333 C68.182688,22.1666333 67.694766,21.9788 67.2540364,21.6039 C66.812507,21.2282333 66.3981733,20.6463333 66.0110352,19.8574333 C65.5103152,20.6179667 65.0039962,21.1929667 64.4904783,21.5824333 C63.9769604,21.9719 63.4618427,22.1666333 62.9435256,22.1666333 C62.1308555,22.1666333 61.320585,21.8247 60.5127142,21.1400667 C59.7048434,20.4562 59.0953408,19.6006 58.6850064,18.5748 C58.3650575,17.7759333 58.2490761,17.0207667 58.3386618,16.3077667 C58.4274476,15.5947667 58.7138018,14.9776 59.1977244,14.4547333 C59.5072749,14.1128 60.0911816,13.6704333 60.9494444,13.1291667 C61.808507,12.5871333 62.4316074,12.1739 62.8195454,11.8887 L62.071665,10.0211 C61.702124,9.09956667 61.3349827,8.45096667 60.9694412,8.0753 C60.6038996,7.7004 60.1703689,7.51256667 59.6680492,7.51256667 C59.2857104,7.51256667 59.0473485,7.6383 58.9529636,7.89053333 C58.8585786,8.142 58.8921733,8.6296 59.0545473,9.35103333 C59.2897097,10.4159333 59.3520997,11.1235667 59.2417174,11.4754667 C59.131335,11.8273667 58.8529795,12.0029333 58.4074508,12.0029333 C57.9771196,12.0029333 57.53639,11.8227667 57.0844623,11.4609 C56.6333344,11.0998 56.3029872,10.6582 56.0934207,10.1353333 C55.697484,9.1471 55.8118657,8.2823 56.4349661,7.54093333 C57.0580665,6.79956667 58.0155134,6.42926667 59.306507,6.42926667 C60.8438613,6.42926667 62.1076592,6.7804 63.0987008,7.4842 C64.0897423,8.18723333 64.8912142,9.30426667 65.5039162,10.8337667 L68.3698581,17.9898333 C68.6362155,18.6553 68.8777769,19.1283333 69.0937423,19.4081667 C69.3089079,19.6887667 69.5408708,19.8290667 69.7880313,19.8290667 C69.9232097,19.8290667 70.0343919,19.8076 70.1207781,19.7646667 C70.2071643,19.7217333 70.2791528,19.6535 70.3367436,19.5584333 Z M77.5499904,21.7534 L72.685968,21.7534 L72.4636036,21.1975667 C72.7507577,21.1400667 72.8947347,20.9721667 72.8939348,20.6915667 C72.8931349,20.4109667 72.6699706,19.7148333 72.2252417,18.6031667 L69.7072442,12.3165 C69.3001093,11.2999 68.9529648,10.6175667 68.6666106,10.2710333 C68.3802564,9.92373333 68.0155147,9.68376667 67.5715857,9.55113333 L67.3260249,8.9378 C67.9987174,8.74766667 68.5490294,8.4387 68.9753613,8.01166667 C69.4016931,7.58386667 69.7000454,7.0564 69.871218,6.42926667 L70.6358958,6.42926667 L71.7837123,9.2943 C72.0324725,8.32523333 72.3276253,7.60533333 72.6691707,7.1346 C73.0107161,6.66463333 73.4082526,6.42926667 73.8625799,6.42926667 C74.3808971,6.42926667 74.8992142,6.6355 75.4199309,7.0495 C75.9398478,7.46273333 76.3213868,7.97333333 76.5653478,8.5813 C76.8357046,9.25673333 76.8860965,9.81026667 76.7165237,10.2426667 C76.5469508,10.6750667 76.1998063,10.8912667 75.6734904,10.8912667 C75.4423274,10.8912667 75.0671873,10.7647667 74.5480703,10.5133 C74.0289533,10.2618333 73.6498139,10.1353333 73.4106522,10.1353333 C72.9331285,10.1353333 72.6803689,10.3400333 72.6523734,10.7486667 C72.6251777,11.1573 72.8603402,11.9837667 73.3594604,13.2288333 L75.6142999,18.8592333 C76.0022379,19.8290667 76.3053894,20.447 76.5237545,20.7130333 C76.7421196,20.9790667 77.0092769,21.1400667 77.327626,21.1975667 L77.5499904,21.7534 Z M82.8123491,18.6882667 L78.9641643,9.0804 L77.3268261,9.0804 L76.9156918,8.05383333 C77.4756023,7.50336667 77.8603408,6.66233333 78.0683075,5.53073333 C78.2770742,4.3999 78.3114687,2.9555 78.1730908,1.19753333 L79.0817455,1.19753333 L81.6453357,7.59766667 L84.3105096,7.59766667 L84.9040147,9.0804 L82.2388408,9.0804 L85.8638613,18.1324333 C86.1230198,18.7787333 86.378179,19.2372 86.6301387,19.5078333 C86.8820985,19.7792333 87.1668529,19.9141667 87.4860019,19.9141667 C87.6611739,19.9141667 87.8139495,19.8528333 87.9435288,19.7294 C88.0731081,19.6059667 88.1946886,19.3966667 88.3074706,19.1022667 L89.0041592,19.5584333 C88.9369699,20.4040667 88.7194047,21.0503667 88.3530633,21.4965667 C87.985922,21.9435333 87.491601,22.1666333 86.8701004,22.1666333 C85.9694444,22.1666333 85.1855697,21.8791333 84.5168766,21.3041333 C83.8481835,20.7291333 83.2802743,19.8574333 82.8123491,18.6882667 Z M19.7504309,14.2837667 C18.6810019,11.6134667 17.8035422,9.81716667 17.1204514,8.89486667 C16.4357609,7.97333333 15.6958792,7.51256667 14.8992065,7.51256667 C14.1265301,7.51256667 13.7729866,7.9879 13.8385761,8.9378 C13.9041656,9.88846667 14.4608766,11.6702 15.5071093,14.2837667 C16.5581413,16.9065333 17.4316017,18.6959333 18.1290902,19.6504333 C18.8265786,20.6057 19.5608613,21.0833333 20.3343376,21.0833333 C21.1310102,21.0833333 21.4989514,20.6156667 21.438961,19.6795667 C21.3789706,18.7434667 20.8158606,16.9448667 19.7504309,14.2837667 Z M47.2756304,7.4842 C46.5741426,7.4842 46.2134003,7.89513333 46.1918037,8.717 C46.1702072,9.53886667 46.4925556,10.7816333 47.1588491,12.4445333 L49.3576976,12.4445333 C50.2903485,12.4445333 50.8222634,12.3471667 50.9558421,12.1524333 C51.0886208,11.9577 51.0262308,11.5375667 50.7670723,10.8912667 C50.3407404,9.82636667 49.817624,8.993 49.1977231,8.38886667 C48.5770224,7.7855 47.9363248,7.4842 47.2756304,7.4842 Z M65.4623229,18.4889333 L63.2762724,13.0295 C62.2628344,13.7417333 61.614938,14.4432333 61.333383,15.1317 C61.051828,15.8209333 61.0798235,16.5883667 61.4189693,17.434 C61.6781279,18.0803 62.0412698,18.5955 62.5107948,18.9811333 C62.9795198,19.366 63.4682417,19.5584333 63.9785601,19.5584333 C64.3129066,19.5584333 64.6088593,19.4656667 64.8648184,19.2801333 C65.1215774,19.0946 65.3207455,18.8308667 65.4623229,18.4889333 Z"/>
  </defs>
  <g fill="none" fill-rule="evenodd">
    <use fill="#FFF" xlink:href="#to-heart-a"/>
    <path stroke="#000" stroke-width=".4" d="M6.45293818,9.2804 L8.82257801,9.2804 L9.11806078,9.2804 L9.00825556,9.00607741 L8.41475044,7.52334408 L8.36444457,7.39766667 L8.22907289,7.39766667 L5.69923612,7.39766667 L3.18596876,1.12316676 L3.13564596,0.997533333 L3.00030882,0.997533333 L2.09165409,0.997533333 L1.8752925,0.997533333 L1.89227083,1.21322773 C2.02954143,2.9571275 1.99516562,4.38414922 1.79019433,5.49442428 C1.58919237,6.58812671 1.22156755,7.39258602 0.694041626,7.91121434 L0.648591451,8.1281906 L1.05972572,9.15475727 L1.11004494,9.2804 L1.24538939,9.2804 L2.74738693,9.2804 L6.54525066,18.7626287 L6.54523123,18.7625802 C7.0242962,19.9595809 7.60947596,20.8576713 8.30504196,21.4557789 C9.01036846,22.0622795 9.84061895,22.3666333 10.7886637,22.3666333 C11.4690077,22.3666333 12.0203337,22.1175917 12.4261735,21.6235125 C12.8217916,21.1416539 13.0519718,20.4568236 13.1220942,19.5742743 L13.032368,19.3911675 L12.3364793,18.9350008 L12.129375,18.7992405 L12.0402393,19.030277 C11.9362406,19.2998378 11.8284483,19.4852315 11.7241467,19.5845861 C11.6318638,19.672492 11.5285149,19.7141667 11.4045652,19.7141667 C11.1437746,19.7141667 10.9104288,19.6035128 10.6952754,19.3717589 C10.4634271,19.1227272 10.2191116,18.6840882 9.96805658,18.0579971 L6.45293818,9.2804 Z M13.6188842,17.6675619 C14.4059137,18.7261455 15.3019785,19.664396 16.3078972,20.4832712 C17.0842222,21.1031031 17.8408791,21.5709529 18.5798735,21.8874179 C19.3241421,22.2064953 20.053871,22.3666333 20.7678683,22.3666333 C21.4822417,22.3666333 22.100897,22.2024851 22.619764,21.8722993 C23.1394467,21.5421383 23.5484022,21.0540529 23.8463973,20.4124097 C24.2030185,19.5785218 24.3502261,18.6266647 24.2926506,17.5513402 C24.2354529,16.4838537 23.9738082,15.3693062 23.509115,14.2093884 C22.5777739,11.8826866 21.2801216,9.96854796 19.6163853,8.46878128 C17.9429842,6.96030237 16.2811009,6.2009 14.6328491,6.2009 C12.9148999,6.2009 11.7582128,7.01173596 11.2013268,8.60819413 C10.6555956,10.1758371 10.8336544,12.0744086 11.72522,14.3006224 C12.2007953,15.4868761 12.8318096,16.6089178 13.6188842,17.6675619 L13.6188842,17.6675619 Z M34.3149583,10.0954422 C34.6688729,9.85592569 34.9607222,9.68531402 35.1876589,9.58437107 C35.431526,9.47589739 35.645359,9.423 35.8294604,9.423 C36.2520852,9.423 36.6451147,9.63421599 37.0167316,10.0722805 C37.4071857,10.531648 37.8177822,11.2949839 38.2458088,12.3625607 L40.774977,18.6775255 L40.8773176,18.9334846 C41.2539816,19.8731961 41.442292,20.4806169 41.4381642,20.7094259 C41.4351101,20.8787247 41.3611499,20.9624404 41.1706514,21.001679 L40.9365166,21.0499057 L41.0253082,21.2718538 L41.2476727,21.8276871 L41.2979649,21.9534 L41.4333645,21.9534 L46.1422116,21.9534 L46.4376336,21.9534 L46.3279034,21.6791129 L46.1055389,21.1232796 L45.9545511,21.0006006 C45.6757141,20.9514716 45.4469084,20.8155948 45.2585691,20.5861418 C45.0576588,20.3413735 44.7605166,19.7356894 44.380218,18.7849544 L40.697574,9.59023905 C40.2608679,8.50021147 39.7356691,7.67056598 39.1180493,7.10172232 C38.4887324,6.52210549 37.7777771,6.22926667 36.9932743,6.22926667 C36.4197887,6.22926667 35.865148,6.44249369 35.3313089,6.86329739 C34.8681833,7.22965651 34.3399919,7.82891288 33.7415675,8.66375549 L30.2416444,-0.0743637648 L30.1913227,-0.2 L30.0559834,-0.2 L29.470477,-0.2 L29.3161858,-0.2 L29.2770259,-0.0507610256 C29.118681,0.552694118 28.8388895,1.05050432 28.4366487,1.44683611 C28.0333132,1.84571157 27.5127828,2.13560081 26.8718891,2.31601597 L26.6577106,2.37630839 L26.7404122,2.58287081 L26.9859729,3.19620414 L27.1139921,3.31337697 C27.520016,3.43560679 27.8517426,3.65361348 28.1124962,3.96916611 C28.3824613,4.29658899 28.7239915,4.96932294 29.1263887,5.97603255 L34.2136272,18.6775285 C34.647016,19.7589041 34.865168,20.4461763 34.862396,20.6892864 C34.8602813,20.8747471 34.7862219,20.9628767 34.5974129,21.0016562 L34.3631165,21.0497783 L34.4519591,21.2718538 L34.6743236,21.8276871 L34.7246158,21.9534 L34.8600153,21.9534 L39.5808606,21.9534 L39.8762826,21.9534 L39.7665524,21.6791129 L39.5441879,21.1232796 L39.3924729,21.0004738 C39.1067075,20.9512108 38.8689367,20.8085298 38.6714601,20.5654561 C38.4606118,20.3059233 38.1289525,19.6198983 37.692484,18.5288796 L34.3149583,10.0954422 Z M48.023491,13.9846667 L54.9855978,13.9846667 L55.2850662,13.9846667 L55.1703389,13.7080461 C54.2337325,11.44978 53.0185012,9.64081049 51.5246531,8.28376286 C50.018888,6.91741803 48.4761994,6.22926667 46.9004904,6.22926667 C45.2510353,6.22926667 44.16189,7.03738485 43.6738272,8.62289256 C43.1962678,10.1734872 43.4212415,12.0947712 44.3383883,14.3864448 C45.2864203,16.7524164 46.5928205,18.6727427 48.2566165,20.1430024 C49.9307618,21.6224075 51.6488322,22.3666333 53.4066503,22.3666333 C54.491598,22.3666333 55.3580362,21.993414 55.9899532,21.2487742 C56.6120882,20.5148567 56.9901535,19.4440271 57.1314835,18.0382056 L57.0457002,17.8533283 L56.402603,17.4117283 L56.189737,17.2655581 L56.1014442,17.5082143 C55.8787802,18.1201647 55.5759871,18.565507 55.1955873,18.8491693 L55.1955873,18.8491693 C54.8180905,19.1306669 54.3345972,19.2725667 53.7377973,19.2725667 C52.6205012,19.2725667 51.5670856,18.8066853 50.5717007,17.8659451 C49.6143664,16.9625792 48.7643279,15.6692294 48.023491,13.9846667 Z M62.575875,11.8182034 C62.1887746,12.0945942 61.6112173,12.4751317 60.8427207,12.9600216 C59.971813,13.5092628 59.3746906,13.9612497 59.0494566,14.3205072 C58.5383532,14.8727242 58.234111,15.5288514 58.1401946,16.2830527 C58.0462906,17.0304205 58.1669638,17.8192545 58.4993433,18.6491587 C58.9216974,19.7050068 59.5504816,20.5875679 60.3834945,21.2927175 C61.2249781,22.0058361 62.0794708,22.3666333 62.9435256,22.3666333 C63.5081208,22.3666333 64.0646516,22.1564075 64.6113361,21.7417863 C65.0780921,21.3877853 65.5357515,20.8902404 65.9868608,20.2486099 C66.3408496,20.9088235 66.7191826,21.4114258 67.1244333,21.7562254 C67.6006142,22.1612816 68.1341498,22.3666333 68.7162027,22.3666333 C69.2597748,22.3666333 69.7547063,22.1730369 70.195866,21.790224 C70.6274234,21.4158208 70.9695273,20.8889511 71.2238214,20.2130608 L71.2738403,20.0801151 L71.1647928,19.9890927 L70.4649047,19.4048927 L70.2862564,19.255774 L70.1656838,19.4548064 C70.1274151,19.5179776 70.0834575,19.5598763 70.0317665,19.5855663 C69.9758787,19.6133422 69.8945834,19.6290667 69.7880313,19.6290667 C69.61024,19.6290667 69.4326563,19.5214718 69.252453,19.2864665 C69.0496636,19.0237043 68.8154229,18.5648126 68.555537,17.9155141 L65.6895801,10.7594099 C65.063223,9.19582253 64.2392068,8.04804894 63.2144188,7.32107632 C62.1876422,6.59189863 60.8836755,6.22926667 59.306507,6.22926667 C57.960167,6.22926667 56.9463353,6.62165882 56.281861,7.41225225 C55.6095959,8.21211527 55.4852907,9.15524085 55.9077671,10.2097157 C56.1301869,10.7646513 56.4814327,11.2343918 56.9594815,11.6170404 C57.4441376,12.0051132 57.9272433,12.2029333 58.4074508,12.2029333 C58.9355806,12.2029333 59.2942207,11.9763191 59.4325494,11.535326 C59.5569975,11.1385844 59.4925142,10.4068127 59.2498421,9.30790628 C59.095734,8.62319112 59.0638823,8.16416703 59.1402086,7.96081345 C59.2014892,7.79704803 59.3614029,7.71256667 59.6680492,7.71256667 C60.1154431,7.71256667 60.4976527,7.87791916 60.8262438,8.21492278 C61.1696048,8.56779466 61.5251132,9.19550179 61.8860341,10.0955392 L62.575875,11.8182034 Z M71.7505295,8.6736861 L70.8215508,6.35488781 L70.7712233,6.22926667 L70.6358958,6.22926667 L69.871218,6.22926667 L69.7184909,6.22926667 L69.6782759,6.37660416 C69.515966,6.97126679 69.2348156,7.46798868 68.833697,7.87048861 C68.4327175,8.27212781 67.9126043,8.56417078 67.271627,8.74533996 L67.0577395,8.80579424 L67.1403533,9.01213748 L67.3859141,9.62547081 L67.5143321,9.74276326 C67.9203252,9.86406242 68.2512594,10.0816676 68.5122993,10.3982654 C68.7819932,10.7246374 69.1216811,11.3923239 69.5215801,12.390856 L72.0395803,18.6775296 C72.4735063,19.762193 72.6932404,20.4482406 72.6939356,20.6921368 C72.6944566,20.874911 72.6199998,20.9622795 72.4243349,21.0014596 L72.1886215,21.0486591 L72.2779118,21.2718538 L72.5002763,21.8276871 L72.5505685,21.9534 L72.685968,21.9534 L77.5499904,21.9534 L77.8454124,21.9534 L77.7356822,21.6791129 L77.5133177,21.1232796 L77.3631746,21.0007513 C77.0923366,20.9518327 76.8670634,20.8160554 76.678346,20.5861418 C76.4774356,20.3413735 76.1802934,19.7356894 75.7999949,18.7849544 L73.5451252,13.154479 C73.058105,11.9395961 72.8274309,11.1300921 72.8519319,10.7619478 C72.8722641,10.4651775 73.0327434,10.3353333 73.4106522,10.3353333 C73.610557,10.3353333 73.9659974,10.4535668 74.4608792,10.6932936 C75.006987,10.957835 75.4038859,11.0912667 75.6734904,11.0912667 C76.2787701,11.0912667 76.7017503,10.8281397 76.9027177,10.3156858 C77.093566,9.82903464 77.0386446,9.22553752 76.7510258,8.50697839 C76.4939208,7.86625595 76.0911267,7.32749342 75.5443735,6.89293037 C74.9905193,6.45258415 74.4296582,6.22926667 73.8625799,6.22926667 C73.3393073,6.22926667 72.8843998,6.49824597 72.5073828,7.01702163 C72.2211156,7.41156794 71.9697076,7.96334948 71.7505295,8.6736861 Z M82.5343749,9.2804 L84.9040147,9.2804 L85.1994975,9.2804 L85.0896923,9.00607741 L84.4961871,7.52334408 L84.4458813,7.39766667 L84.3105096,7.39766667 L81.7806728,7.39766667 L79.2674055,1.12316676 L79.2170827,0.997533333 L79.0817455,0.997533333 L78.1730908,0.997533333 L77.9567292,0.997533333 L77.9737075,1.21322773 C78.1109781,2.9571275 78.0766023,4.38414922 77.871631,5.49442428 C77.6706291,6.58812671 77.3030043,7.39258602 76.7754783,7.91121434 L76.7300282,8.1281906 L77.1411624,9.15475727 L77.1914816,9.2804 L77.3268261,9.2804 L78.8288236,9.2804 L82.6266874,18.7626287 L82.6266679,18.7625802 C83.1057329,19.9595809 83.6909127,20.8576713 84.3864787,21.4557789 C85.0918052,22.0622795 85.9220557,22.3666333 86.8701004,22.3666333 C87.5504444,22.3666333 88.1017704,22.1175917 88.5076102,21.6235125 C88.9032283,21.1416539 89.1334085,20.4568236 89.2035309,19.5742743 L89.1137166,19.3911098 L88.417028,18.9349431 L88.2094618,18.7990362 L88.1207062,19.0307189 C88.0176975,19.2996074 87.9100276,19.4850957 87.8055834,19.5845861 C87.7133005,19.672492 87.6099516,19.7141667 87.4860019,19.7141667 C87.224734,19.7141667 86.9921126,19.603779 86.7767121,19.3717589 C86.5448638,19.1227272 86.3005483,18.6840882 86.0494933,18.0579971 L82.5343749,9.2804 Z M19.5647594,14.3581043 C20.6227242,17.0005595 21.181227,18.7850774 21.2393704,19.6923575 C21.2924356,20.5203949 21.0068522,20.8833333 20.3343376,20.8833333 C19.6343286,20.8833333 18.9541445,20.441251 18.290616,19.5324952 C17.6064614,18.5962424 16.7393129,16.8209665 15.6927576,14.2093711 C14.6532121,11.6125093 14.1017104,9.84598941 14.0381018,8.92403409 C13.9798734,8.08074227 14.2538256,7.71256667 14.8992065,7.71256667 C15.6246096,7.71256667 16.3096521,8.13895135 16.9599129,9.01414527 C17.6306436,9.91975718 18.5027254,11.7062693 19.564767,14.3581233 L19.5647594,14.3581043 Z M47.2945117,12.2445333 C46.671559,10.6682604 46.3715579,9.49008944 46.3917347,8.72225367 C46.4106535,8.00229041 46.6902022,7.6842 47.2756304,7.6842 C47.8801118,7.6842 48.4727811,7.96309111 49.0583184,8.53227632 C49.6568915,9.11562458 50.1651444,9.92587112 50.5813993,10.9656007 C50.8158443,11.5502691 50.8712888,11.9214228 50.790599,12.0397625 C50.7126545,12.15339 50.2141759,12.2445333 49.3576976,12.2445333 L47.2945117,12.2445333 Z M65.2456141,18.4857588 C65.1207947,18.7586636 64.9548799,18.9683045 64.7476803,19.1180264 C64.5263217,19.2784791 64.2715892,19.3584333 63.9785601,19.3584333 C63.5171043,19.3584333 63.0723836,19.1834686 62.6377116,18.8265626 C62.1956013,18.4634456 61.8518829,17.9762443 61.6046013,17.3595638 C61.2840449,16.5602816 61.2576175,15.8460361 61.5185304,15.2073336 C61.7644726,14.6059485 62.319529,13.9813101 63.1856655,13.3412516 L65.2456141,18.4857588 Z"/>
  </g>
</svg>
