<svg width="82" height="33" viewBox="0 0 82 33" xmlns="http://www.w3.org/2000/svg">
  <path fill="#140D00" fill-rule="evenodd" d="M7.13249194,24.2848492 L7.36837903,23.6717148 C6.98587903,23.5245916 6.77031452,23.2839762 6.72241129,22.9476944 C6.67450806,22.6128622 6.79716935,22.0620558 7.09184677,21.296725 L12.7749113,6.51264857 L13.3737016,4.95517124 C13.7845081,3.88544739 14.1343468,3.20708593 14.4224919,2.91863736 C14.7106371,2.63018878 15.0989435,2.4859645 15.5881371,2.4859645 C16.3901532,2.4859645 17.0607984,2.82152151 17.6000726,3.49263552 C18.1393468,4.16374953 18.4681371,5.08127689 18.5857177,6.24521761 L19.2403952,6.02489508 L20.5388629,0.803106252 L5.07192742,0.803106252 L2.12805645,6.02489508 L2.58749194,6.24521761 C3.76983065,5.12331211 4.9456371,4.21593118 6.11418548,3.52379956 C7.28345968,2.83239268 8.18854032,2.4859645 8.82942742,2.4859645 C9.26854032,2.4859645 9.50442742,2.64105996 9.53708871,2.9498014 C9.57047581,3.25926758 9.35128226,4.02749744 8.87950806,5.25449099 L2.71233065,21.296725 C2.41765323,22.0620558 2.11789516,22.6128622 1.81160484,22.9476944 C1.50531452,23.2839762 1.10466935,23.5245916 0.609669355,23.6717148 L0.373782258,24.2848492 L7.13249194,24.2848492 Z M15.1737016,24.5051718 L21.6268468,13.8412716 L20.0968468,24.5051718 L22.0587016,24.5051718 L30.22475,11.5612233 C30.8032177,10.6487692 31.3221694,9.93561993 31.780879,9.42177562 C32.2395887,8.90865605 32.6620081,8.56730108 33.0474113,8.39988495 L33.2832984,7.78602581 L29.6382984,7.78602581 L29.4024113,8.39988495 C29.5620887,8.62020748 29.6499113,8.87459303 29.665879,9.16231686 C29.681121,9.45076543 29.6187016,9.77835024 29.4778952,10.145796 C29.3849919,10.3871362 29.2775726,10.6277516 29.1556371,10.8690917 C29.0329758,11.1104318 28.8899919,11.3568452 28.7259597,11.6083317 L23.898621,19.456597 L25.3284597,10.6328248 C25.3669274,10.4023558 25.4155565,10.1718869 25.4743468,9.94069315 C25.5331371,9.71022419 25.5912016,9.52179045 25.6478145,9.37466719 C25.7443468,9.12318062 25.8626532,8.92677468 26.0012823,8.78472463 C26.1399113,8.64339933 26.328621,8.51511943 26.5666855,8.39988495 L26.8025726,7.78602581 L21.8794274,7.78602581 L21.6435403,8.39988495 C21.9345887,8.65137152 22.1087823,8.9608377 22.166121,9.32755875 C22.2234597,9.69500454 22.173379,10.1929045 22.015879,10.8219833 L21.9157177,11.2147951 L16.9751532,19.456597 L18.4681371,10.2711769 C18.4913629,10.1247784 18.521121,9.97548092 18.5581371,9.82328444 C18.595879,9.67108795 18.6343468,9.54280806 18.6749919,9.43772001 C18.7635403,9.20725105 18.8803952,9.00287292 19.0248306,8.82458561 C19.1692661,8.64629831 19.3245887,8.504973 19.4915242,8.39988495 L19.7274113,7.78602581 L14.7534597,7.78602581 L14.5175726,8.39988495 C14.7215242,8.48395539 14.8507177,8.73544196 14.9044274,9.15434466 C14.9581371,9.5739721 14.9334597,10.1929045 14.8303952,11.010417 L13.1741048,24.5051718 L15.1737016,24.5051718 Z M39.5542661,4.59352341 C40.1487016,4.09055027 40.5791048,3.49263552 40.84475,2.8005039 C41.11475,2.09822584 41.1474113,1.50321007 40.9427339,1.01545658 C40.7373306,0.527703094 40.3482984,0.284188722 39.7741855,0.284188722 C39.2174919,0.284188722 38.6462823,0.530602074 38.0598306,1.02342878 C37.4741048,1.51625548 37.0480565,2.10837227 36.7816855,2.8005039 C36.5196694,3.48248909 36.4913629,4.07750486 36.6967661,4.58555121 C36.9021694,5.09432231 37.2788629,5.34870786 37.8275726,5.34870786 C38.3842661,5.34870786 38.9598306,5.09649654 39.5542661,4.59352341 L39.5542661,4.59352341 Z M38.2071694,6.76413514 C37.4900726,7.4664132 36.7214435,8.05635575 35.9005565,8.53323806 C35.0803952,9.01084512 34.2370081,9.35364958 33.3718468,9.56382567 L33.1243468,10.2081241 C33.4807177,10.3552474 33.6628952,10.6226783 33.6701532,11.010417 C33.6766855,11.3988804 33.461121,12.1642113 33.0212823,13.3071344 L30.1376532,20.8089715 C29.665879,22.035965 29.3116855,22.8041949 29.0743468,23.1129363 C28.8370081,23.4224025 28.5423306,23.608662 28.1888629,23.6717148 L27.9529758,24.2848492 L33.10475,24.2848492 L33.3406371,23.6717148 C33.0524919,23.608662 32.905879,23.4303747 32.9007984,23.1368529 C32.8949919,22.8433311 33.0982177,22.1613459 33.5090242,21.0923468 L39.0171694,6.76413514 L38.2071694,6.76413514 Z M37.3659597,20.9031883 C36.8702339,22.1932347 36.7323306,23.1549715 36.9529758,23.7891235 C37.1728952,24.4240003 37.7600726,24.7407139 38.7137823,24.7407139 C39.3713629,24.7407139 40.0841048,24.4943006 40.8520081,24.0014739 C41.6191855,23.5093719 42.39725,22.7962227 43.1869274,21.8627509 L42.8356371,21.3597778 C42.4662016,21.6844636 42.1606371,21.9156573 41.9182177,22.0511847 C41.6757984,22.1881615 41.4616855,22.2562875 41.2766048,22.2562875 C40.938379,22.2562875 40.751121,22.1062653 40.7148306,21.8076703 C40.6778145,21.5090753 40.796121,21.0032032 41.06975,20.2900539 L44.9092661,10.3030657 L47.7319274,10.3030657 L48.3604758,8.66731592 L45.5385403,8.66731592 L48.2530565,1.60539914 L47.2913629,1.60539914 C45.9464435,3.54554191 44.6835403,5.13853176 43.5041048,6.38654292 C42.3239435,7.63455407 41.2032984,8.56222787 40.1428952,9.17028905 L39.7074113,10.3030657 L41.4413629,10.3030657 L37.3659597,20.9031883 Z M46.0741855,20.9031883 C45.5784597,22.1932347 45.4405565,23.1549715 45.6612016,23.7891235 C45.881121,24.4240003 46.4675726,24.7407139 47.4212823,24.7407139 C48.0795887,24.7407139 48.7923306,24.4943006 49.5602339,24.0014739 C50.3274113,23.5093719 51.1054758,22.7962227 51.8944274,21.8627509 L51.5438629,21.3597778 C51.1744274,21.6844636 50.8681371,21.9156573 50.6264435,22.0511847 C50.3840242,22.1881615 50.1699113,22.2562875 49.9841048,22.2562875 C49.6466048,22.2562875 49.4593468,22.1062653 49.4223306,21.8076703 C49.3853145,21.5090753 49.503621,21.0032032 49.7779758,20.2900539 L53.6174919,10.3030657 L56.4401532,10.3030657 L57.0687016,8.66731592 L54.2460403,8.66731592 L56.9612823,1.60539914 L55.9988629,1.60539914 C54.6539435,3.54554191 53.3917661,5.13853176 52.2116048,6.38654292 C51.0314435,7.63455407 49.9115242,8.56222787 48.8503952,9.17028905 L48.4156371,10.3030657 L50.1495887,10.3030657 L46.0741855,20.9031883 Z M61.8212823,9.90155691 C62.5412823,8.99490072 63.2728952,8.54121026 64.0153952,8.54121026 C64.7157984,8.54121026 65.1382177,8.87459303 65.2826532,9.53990908 C65.4278145,10.2059499 65.2746694,11.1263762 64.8232177,12.3004634 C64.5488629,13.0136126 64.2585403,13.4774495 63.95225,13.6919741 C63.6459597,13.9072234 62.9992661,14.0144857 62.0121694,14.0144857 L59.6837823,14.0144857 C60.3885403,12.1801557 61.1012823,10.8089378 61.8212823,9.90155691 L61.8212823,9.90155691 Z M62.7532177,21.2575887 C62.0520887,21.5982189 61.36475,21.7685341 60.68975,21.7685341 C59.4493468,21.7685341 58.6959597,21.2314979 58.4295887,20.1559761 C58.1639435,19.0819038 58.4005565,17.5273254 59.1401532,15.4929658 L66.835879,15.4929658 C67.7489435,13.0288323 67.9935403,11.0604244 67.5682177,9.58701752 C67.1428952,8.11433536 66.1245887,7.37726954 64.5132984,7.37726954 C62.8591855,7.37726954 61.1506371,8.20565325 59.3876532,9.86242067 C57.6239435,11.5191881 56.2645081,13.589785 55.3093468,16.0749361 C54.3178952,18.6543041 54.0754758,20.7437444 54.5835403,22.3425322 C55.090879,23.94132 56.2478145,24.7407139 58.053621,24.7407139 C59.1416048,24.7407139 60.2963629,24.3558743 61.5164435,23.5847454 C62.7365242,22.8143413 63.9994274,21.6743172 65.305879,20.1639483 L64.9995887,19.6769195 C64.2026532,20.3900688 63.453621,20.9169585 62.7532177,21.2575887 L62.7532177,21.2575887 Z M70.7842661,24.2848492 L71.0201532,23.6717148 C70.7320081,23.608662 70.5853952,23.4303747 70.5803145,23.1368529 C70.5745081,22.8433311 70.7777339,22.1613459 71.1892661,21.0923468 L73.5771694,14.8798314 C74.1055565,13.5064393 74.5570081,12.5939852 74.9329758,12.1431937 C75.3089435,11.6924022 75.7502339,11.4662817 76.256121,11.4662817 C76.5094274,11.4662817 76.8041048,11.6054328 77.1401532,11.8837349 C77.4762016,12.1613123 77.7665242,12.3004634 78.0118468,12.3004634 C78.5685403,12.3004634 79.1201532,12.0620222 79.6666855,11.5844152 C80.2124919,11.1075328 80.628379,10.4965727 80.9150726,9.75225941 C81.1727339,9.0811454 81.2017661,8.51801841 81.0014435,8.06142897 C80.8018468,7.60556427 80.4273306,7.37726954 79.878621,7.37726954 C79.3981371,7.37726954 78.7768468,7.63672831 78.0162016,8.15564584 C77.2555565,8.67528811 76.3323306,9.46888406 75.2457984,10.5386079 L76.4615242,7.37726954 L75.6515242,7.37726954 C74.9380565,8.06940116 74.1745081,8.65137152 73.3601532,9.12318062 C72.5457984,9.59498971 71.7016855,9.93561993 70.8278145,10.145796 L70.5679758,10.8219833 C70.9250726,10.9691065 71.1079758,11.2336385 71.1174113,11.6163039 C71.126121,11.9989694 70.9149113,12.7512549 70.4837823,13.8731604 L67.8171694,20.8089715 C67.3453952,22.035965 66.9912016,22.8041949 66.7545887,23.1129363 C66.51725,23.4224025 66.2218468,23.608662 65.8691048,23.6717148 L65.6332177,24.2848492 L70.7842661,24.2848492 Z"/>
</svg>
