<svg width="88" height="33" viewBox="0 0 88 33" xmlns="http://www.w3.org/2000/svg">
  <path fill="#140D00" fill-rule="evenodd" d="M7.53322581,24.0006605 L7.7691129,23.3875261 C7.3866129,23.2404028 7.17104839,22.9997875 7.12314516,22.6635057 C7.07524194,22.3286734 7.19790323,21.7778671 7.49258065,21.0125362 L9.97120968,14.5637539 L16.2414516,6.02335697 C17.2379839,4.66083608 18.1684677,3.54690278 19.0321774,2.68155707 C19.8966129,1.81621136 20.5970161,1.28932163 21.1333871,1.10088789 L21.3569355,0.51891753 L16.2058871,0.51891753 L15.9823387,1.10088789 C16.2291129,1.22699355 16.3800806,1.47558113 16.4352419,1.84810014 C16.4904032,2.22061915 16.4337903,2.62647644 16.2639516,3.06712149 C16.1108065,3.46573133 15.8698387,3.93971466 15.5395968,4.49052097 C15.2100806,5.04060254 14.7978226,5.65156271 14.3035484,6.32267672 L10.2644355,11.859005 L10.0256452,4.18322903 C10.0082258,3.7012735 10.0118548,3.32368128 10.0365323,3.0511771 C10.0612097,2.77867292 10.1098387,2.54820396 10.1824194,2.35904548 C10.2912903,2.07567012 10.4698387,1.81911034 10.7195161,1.58864138 C10.9677419,1.35817242 11.2457258,1.19510476 11.5520161,1.10088789 L11.7755645,0.51891753 L4.9791129,0.51891753 L4.76137097,1.0849435 C4.96895161,1.1588675 5.14387097,1.4284727 5.28540323,1.89520858 C5.42620968,2.36194446 5.51040323,2.96710666 5.53653226,3.71141993 L5.9683871,14.0448363 L3.29016129,21.0125362 C2.99620968,21.7778671 2.69790323,22.3286734 2.39596774,22.6635057 C2.09403226,22.9997875 1.69120968,23.2404028 1.1875,23.3875261 L0.951612903,24.0006605 L7.53322581,24.0006605 Z M22.7134677,9.81377413 C22.656129,10.8313163 22.0609677,12.8127696 20.9279839,15.7595834 C19.7993548,18.695526 18.8703226,20.6798782 18.1401613,21.7119153 C17.4092742,22.7454019 16.6225,23.2614205 15.7783871,23.2614205 C14.9604032,23.2614205 14.5866129,22.7345307 14.6584677,21.6807513 C14.7303226,20.6269718 15.3225806,18.6534908 16.4352419,15.7595834 C17.5435484,12.8758224 18.4660484,10.9095888 19.2020161,9.86160731 C19.9387097,8.81290107 20.7160484,8.28818558 21.5347581,8.28818558 C22.3781452,8.28818558 22.7715323,8.79695668 22.7134677,9.81377413 L22.7134677,9.81377413 Z M11.8358065,19.360842 C11.7719355,20.5146363 11.9229032,21.536527 12.2894355,22.4279635 C12.5797581,23.0990775 12.9760484,23.6049497 13.4775806,23.9455799 C13.9798387,24.2862101 14.5931452,24.4565252 15.3189516,24.4565252 C16.0360484,24.4565252 16.783629,24.2862101 17.5595161,23.9455799 C18.336129,23.6049497 19.1316129,23.0990775 19.9466935,22.4279635 C20.9860484,21.5473982 21.9187097,20.529856 22.746129,19.3767864 C23.5735484,18.2237169 24.2289516,17.017741 24.7130645,15.7595834 C25.6878226,13.2222506 25.9345968,11.1378835 25.4519355,9.50720693 C24.9685484,7.87725508 23.8834677,7.06191678 22.1959677,7.06191678 C20.466371,7.06191678 18.6787097,7.89827269 16.8337097,9.57025976 C14.9879839,11.2429716 13.6016935,13.2845787 12.6748387,15.6965305 C12.1791129,16.9858522 11.8989516,18.2077725 11.8358065,19.360842 L11.8358065,19.360842 Z M34.8598387,24.0006605 L35.0957258,23.3875261 C34.8075806,23.3244733 34.6609677,23.146186 34.6551613,22.8526642 C34.6500806,22.5591424 34.8533065,21.8771572 35.2641129,20.8081581 L40.7722581,6.47994642 L40.1270161,6.47994642 C39.388871,7.19309565 38.6144355,7.78521244 37.8044355,8.25702154 C36.9944355,8.72883063 36.1648387,9.06946085 35.3170968,9.27963695 L35.068871,9.92393539 C35.4049194,10.0609122 35.5798387,10.317472 35.5950806,10.6950642 C35.6103226,11.0726565 35.3925806,11.8481338 34.941129,13.0229457 L32.1598387,20.2573518 C31.6858871,20.634944 31.2141129,20.9233926 30.7452419,21.1226975 C30.276371,21.3220024 29.8430645,21.4212925 29.4467742,21.4212925 C29.0330645,21.4212925 28.795,21.2459042 28.7318548,20.8944028 C28.6687097,20.5429014 28.7775806,20.000792 29.0599194,19.2666252 L33.9758065,6.47994642 L33.3552419,6.47994642 C32.6294355,7.18222447 31.8564516,7.77216703 31.0362903,8.24904934 C30.2154032,8.7266564 29.3770968,9.06946085 28.5199194,9.27963695 L28.2724194,9.92393539 C28.6208065,10.0710587 28.8008065,10.3384896 28.8116935,10.7262283 C28.8225806,11.1146917 28.6091935,11.8800226 28.1693548,13.0229457 L24.928629,21.4524566 C24.5337903,22.4801452 24.4220161,23.2375039 24.5933065,23.7252574 C24.763871,24.2130108 25.2254839,24.4565252 25.9759677,24.4565252 C26.5667742,24.4565252 27.3354032,24.2079376 28.2825806,23.7100377 C29.2290323,23.2121378 30.3685484,22.4591276 31.7004032,21.4524566 L30.7205645,24.0006605 L34.8598387,24.0006605 Z M38.9439516,20.6189996 C38.4482258,21.909046 38.3103226,22.8707828 38.5309677,23.5049348 C38.7508871,24.1398116 39.3380645,24.4565252 40.2910484,24.4565252 C40.9493548,24.4565252 41.6620968,24.2101119 42.43,23.7172852 C43.1971774,23.2251832 43.9752419,22.512034 44.7649194,21.5785622 L44.413629,21.0755891 C44.0441935,21.4002749 43.7379032,21.6314686 43.4962097,21.7669959 C43.2537903,21.9039728 43.0396774,21.9720988 42.853871,21.9720988 C42.516371,21.9720988 42.3291129,21.8220766 42.2920968,21.5234816 C42.2550806,21.2248866 42.3741129,20.7190145 42.6477419,20.0058652 L46.4872581,10.018877 L49.3099194,10.018877 L49.9384677,8.38312719 L47.1158065,8.38312719 L49.8310484,1.32121042 L48.868629,1.32121042 C47.5237097,3.26135319 46.2615323,4.85434304 45.081371,6.10235419 C43.9012097,7.35036535 42.7812903,8.27803915 41.7208871,8.88610033 L41.2854032,10.018877 L43.0193548,10.018877 L38.9439516,20.6189996 Z M56.8953226,24.0006605 L57.1312097,23.3875261 C56.8430645,23.3244733 56.6964516,23.146186 56.691371,22.8526642 C56.6855645,22.5591424 56.8887903,21.8771572 57.3003226,20.8081581 L62.8084677,6.47994642 L62.1625,6.47994642 C61.4243548,7.19309565 60.6506452,7.78521244 59.8406452,8.25702154 C59.0306452,8.72883063 58.2010484,9.06946085 57.3525806,9.27963695 L57.1050806,9.92393539 C57.4404032,10.0609122 57.6160484,10.317472 57.6312903,10.6950642 C57.6465323,11.0726565 57.4280645,11.8481338 56.9766129,13.0229457 L54.1953226,20.2573518 C53.721371,20.634944 53.2495968,20.9233926 52.7807258,21.1226975 C52.3118548,21.3220024 51.8792742,21.4212925 51.4822581,21.4212925 C51.0692742,21.4212925 50.8304839,21.2459042 50.7673387,20.8944028 C50.7041935,20.5429014 50.8137903,20.000792 51.096129,19.2666252 L56.0112903,6.47994642 L55.3914516,6.47994642 C54.6656452,7.18222447 53.8926613,7.77216703 53.0717742,8.24904934 C52.2516129,8.7266564 51.4125806,9.06946085 50.556129,9.27963695 L50.3079032,9.92393539 C50.6562903,10.0710587 50.8362903,10.3384896 50.8479032,10.7262283 C50.8587903,11.1146917 50.6446774,11.8800226 50.2055645,13.0229457 L46.9648387,21.4524566 C46.5692742,22.4801452 46.4575,23.2375039 46.6287903,23.7252574 C46.8000806,24.2130108 47.2609677,24.4565252 48.0121774,24.4565252 C48.6029839,24.4565252 49.3716129,24.2079376 50.3180645,23.7100377 C51.2645161,23.2121378 52.4040323,22.4591276 53.7358871,21.4524566 L52.7567742,24.0006605 L56.8953226,24.0006605 Z M67.5320161,10.8523339 C67.9595161,10.4856129 68.3514516,10.212384 68.7070968,10.0340967 C69.0620161,9.85580935 69.3958871,9.76666569 69.7079839,9.76666569 C70.5433871,9.76666569 70.9505645,10.3334164 70.9287903,11.4654683 C70.9062903,12.598245 70.4562903,14.3071941 69.5773387,16.5930403 C68.6345161,19.0463026 67.8027419,20.7661229 67.0820161,21.7517763 C66.3612903,22.7374297 65.5999194,23.2302564 64.798629,23.2302564 C64.1657258,23.2302564 63.7854032,22.9287624 63.6591129,22.3257745 C63.5320968,21.7227865 63.6743548,20.8864306 64.0851613,19.8167067 L67.5320161,10.8523339 Z M59.3151613,22.3808551 C59.4958871,22.3286734 59.6374194,22.2888125 59.7404839,22.2627216 C59.8435484,22.2366308 59.9204839,22.2235854 59.9705645,22.2235854 C60.1730645,22.2235854 60.5258065,22.4801452 61.0287903,22.9939895 C61.0375,22.9939895 61.0433065,22.9997875 61.0483871,23.0099339 C61.6101613,23.5447958 62.1160484,23.9194891 62.5653226,24.1340136 C63.013871,24.3492629 63.4958065,24.4565252 64.0104032,24.4565252 C65.74,24.4565252 67.5443548,23.5288514 69.4220161,21.6727791 C71.2996774,19.8167067 72.7846774,17.4685324 73.8777419,14.6268067 C74.7719355,12.2989253 75.1181452,10.4616963 74.9141935,9.11439505 C74.7109677,7.76709381 73.9931452,7.09308082 72.7614516,7.09308082 C72.0690323,7.09308082 71.3374194,7.28948676 70.5666129,7.68302337 C69.7950806,8.07583525 68.9567742,8.6817222 68.0516935,9.49923473 L71.7039516,0 L71.0833871,0 C70.3575806,0.702278054 69.5925806,1.28714739 68.7891129,1.75388327 C67.9856452,2.22061915 67.1509677,2.55835039 66.2858065,2.76780174 L66.0252419,3.44398897 C66.3656452,3.59111224 66.5420161,3.850571 66.5550806,4.22309001 C66.5681452,4.59488427 66.3533065,5.35804092 65.9098387,6.51111046 L60.8066935,19.7855427 C60.6216129,20.268223 60.4089516,20.671906 60.1701613,20.9965918 C59.931371,21.3220024 59.638871,21.604653 59.2933871,21.8459932 L59.3151613,22.3808551 Z M81.5241129,9.61736819 C82.2441129,8.710712 82.975,8.25702154 83.7175,8.25702154 C84.4179032,8.25702154 84.8403226,8.59040431 84.9854839,9.25572036 C85.1299194,9.92176115 84.9767742,10.8421875 84.5260484,12.0162746 C84.2516935,12.7294239 83.961371,13.1932608 83.6550806,13.4077853 C83.3487903,13.6230347 82.7020968,13.7302969 81.715,13.7302969 L79.3858871,13.7302969 C80.091371,11.895967 80.8041129,10.5247491 81.5241129,9.61736819 L81.5241129,9.61736819 Z M82.4553226,20.9734 C81.7549194,21.3140302 81.0675806,21.4843453 80.3925806,21.4843453 C79.1521774,21.4843453 78.3987903,20.9473092 78.1324194,19.8717874 C77.8660484,18.7977151 78.1033871,17.2431367 78.8429839,15.2087771 L86.5387097,15.2087771 C87.4517742,12.7446435 87.696371,10.7762357 87.2710484,9.30282879 C86.8457258,7.83014664 85.8274194,7.09308082 84.216129,7.09308082 C82.5620161,7.09308082 80.8534677,7.92146453 79.0897581,9.57823195 C77.3267742,11.2349994 75.9673387,13.3055963 75.0121774,15.7907474 C74.0207258,18.3701154 73.7783065,20.4595557 74.286371,22.0583435 C74.7937097,23.6571313 75.9499194,24.4565252 77.7557258,24.4565252 C78.8444355,24.4565252 79.9991935,24.0716855 81.2192742,23.3005567 C82.4393548,22.5301526 83.7022581,21.3901285 85.0087097,19.8797596 L84.7024194,19.3927308 C83.9047581,20.1058801 83.1564516,20.6327698 82.4553226,20.9734 L82.4553226,20.9734 Z"/>
</svg>
